<svg xmlns="http://www.w3.org/2000/svg" xmlns:xlink="http://www.w3.org/1999/xlink" width="369" height="434" fill="none" xmlns:v="https://vecta.io/nano"><style><![CDATA[.B{fill-rule:evenodd}.C{fill:#000}.D{fill:#fff}.E{fill-opacity:.6}.F{fill:#e6e6e6}.G{fill-opacity:.16}.H{stroke:#2fa910}.I{fill:#dbdffd}.J{fill:#d0c6ac}.K{fill-opacity:.1}.L{fill-opacity:.7}.M{fill:#2f4351}.N{fill:#d08b5b}.O{fill-opacity:.24}.P{fill:#3a4c5a}]]></style><rect x="8" y="26" width="202" height="21" rx="10.5" class="I"/><rect width="369" height="434" rx="25" fill="#212121"/><path d="M35 42.819v4.327c0 .595.45 1.082 1 1.082h3l3.29 3.559c.63.681 1.71.195 1.71-.768V38.936c0-.963-1.08-1.45-1.71-.768L39 41.737h-3c-.55 0-1 .487-1 1.082zm13.5 2.163c0-1.915-1.02-3.559-2.5-4.359v8.708c1.48-.79 2.5-2.434 2.5-4.349zM46 36.816v.216c0 .411.25.768.6.919 2.58 1.114 4.4 3.851 4.4 7.031s-1.82 5.917-4.4 7.031a.99.99 0 0 0-.6.919v.216c0 .681.63 1.157 1.21.919C50.6 52.673 53 49.136 53 44.982s-2.4-7.691-5.79-9.086c-.58-.249-1.21.238-1.21.919z" class="I"/><g fill="#555"><use xlink:href="#c"/><use xlink:href="#c" y="55"/></g><mask id="A" maskUnits="userSpaceOnUse" x="32" y="305" width="39" height="39" mask-type="alpha"><circle cx="51.5" cy="324.5" r="19.5" class="D"/><circle cx="51.5" cy="324.5" r="19.5" class="H"/></mask><g mask="url(#A)"><circle cx="51.5" cy="324.5" r="19.5" fill="#fddbdb"/><path d="M52 310.909a7.64 7.64 0 0 0-7.636 7.636v.841c-.774.13-1.364.803-1.364 1.614v1.909c0 .825.611 1.508 1.405 1.62.282 2.701 1.971 4.983 4.322 6.1v2.528a11.05 11.05 0 0 0-10.364 11.025h27.273a11.05 11.05 0 0 0-10.364-11.025v-2.528c2.351-1.117 4.04-3.399 4.322-6.1.794-.112 1.405-.795 1.405-1.62V321c0-.811-.59-1.484-1.364-1.614v-.841A7.64 7.64 0 0 0 52 310.909z" class="B J"/><mask id="B" maskUnits="userSpaceOnUse" x="38" y="310" width="28" height="35" mask-type="alpha"><path d="M52 310.909a7.64 7.64 0 0 0-7.636 7.636v.841c-.774.13-1.364.803-1.364 1.614v1.909c0 .825.611 1.508 1.405 1.62.282 2.701 1.971 4.983 4.322 6.1v2.528a11.05 11.05 0 0 0-10.364 11.025h27.273a11.05 11.05 0 0 0-10.364-11.025v-2.528c2.351-1.117 4.04-3.399 4.322-6.1.794-.112 1.405-.795 1.405-1.62V321c0-.811-.59-1.484-1.364-1.614v-.841A7.64 7.64 0 0 0 52 310.909z" class="B D"/></mask><g mask="url(#B)"><path fill="#edb98a" d="M34 310.909h36v33.273H34z"/><path d="M44.364 323.727v1.091A7.64 7.64 0 0 0 52 332.455a7.64 7.64 0 0 0 7.636-7.637v-1.091A7.64 7.64 0 0 1 52 331.364a7.64 7.64 0 0 1-7.636-7.637z" class="B C K"/></g><path d="M52.068 338.158c3.728 0 6.75-1.8 6.75-4.02l-.005-.161c4.005 1.656 6.824 5.601 6.824 10.205H38.364c0-4.658 2.885-8.641 6.964-10.262a2.43 2.43 0 0 0-.01.218c0 2.22 3.022 4.02 6.75 4.02z" class="B F"/><mask id="C" maskUnits="userSpaceOnUse" x="38" y="333" width="28" height="12" mask-type="alpha"><path d="M52.068 338.158c3.728 0 6.75-1.8 6.75-4.02l-.005-.161c4.005 1.656 6.824 5.601 6.824 10.205H38.364c0-4.658 2.885-8.641 6.964-10.262a2.43 2.43 0 0 0-.01.218c0 2.22 3.022 4.02 6.75 4.02z" class="B D"/></mask><g mask="url(#C)" class="F"><path d="M34 329.182h36v15H34z"/></g><path d="M50.091 326.318A1.91 1.91 0 0 0 52 328.227a1.91 1.91 0 0 0 1.909-1.909" class="B C L"/><path d="M50.364 323.727c0 .603.733 1.091 1.636 1.091s1.636-.488 1.636-1.091" class="B C G"/><circle cx="48.455" cy="321.273" r=".818" class="C E"/><circle cx="55.546" cy="321.273" r=".818" class="C E"/><path d="M46.495 319.522c.534-.752 1.997-1.173 3.258-.863.146.036.294-.054.33-.2s-.054-.294-.2-.33c-1.464-.36-3.159.128-3.833 1.077-.087.122-.058.293.064.38s.293.058.38-.064zm11.01 0c-.534-.752-1.997-1.173-3.258-.863-.146.036-.294-.054-.33-.2s.053-.294.2-.33c1.464-.36 3.159.128 3.833 1.077.087.122.058.293-.064.38s-.293.058-.38-.064z" class="C E"/><mask id="D" maskUnits="userSpaceOnUse" x="34" y="306" width="36" height="39" mask-type="alpha"><path d="M34 306h36v38.182H34z" class="D"/></mask><g mask="url(#D)"><path d="M55.273 333.136v-2.507c2.391-1.136 4.097-3.477 4.335-6.238.788-.118 1.392-.798 1.392-1.618V321c0-.633-.359-1.182-.886-1.454l-.317-.124a1.45 1.45 0 0 0-.161-.036v-.034c-1.742-.775-3.426-2.297-4.621-4.368-.4-.693-.72-1.403-.961-2.112-1.177 1.438-2.907 2.892-5.008 4.105-1.304.753-2.617 1.335-3.865 1.741v8.452c.764 1.51 2.014 2.732 3.545 3.459v2.507h-.545c-1.046 0-2.054.164-3 .467v6.215a3.82 3.82 0 0 1-3.273 3.78v-8.197-16.856c0-5.573 4.518-10.09 10.091-10.09s10.091 4.517 10.091 10.09v1.384 15.472a9.78 9.78 0 0 0-6.273-2.265h-.545z" fill="#944f23" class="B"/><mask id="E" maskUnits="userSpaceOnUse" x="41" y="308" width="22" height="36" mask-type="alpha"><path d="M55.273 333.136v-2.507c2.391-1.136 4.097-3.477 4.335-6.238.788-.118 1.392-.798 1.392-1.618V321c0-.633-.359-1.182-.886-1.454l-.317-.124a1.45 1.45 0 0 0-.161-.036v-.034c-1.742-.775-3.426-2.297-4.621-4.368-.4-.693-.72-1.403-.961-2.112-1.177 1.438-2.907 2.892-5.008 4.105-1.304.753-2.617 1.335-3.865 1.741v8.452c.764 1.51 2.014 2.732 3.545 3.459v2.507h-.545c-1.046 0-2.054.164-3 .467v6.215a3.82 3.82 0 0 1-3.273 3.78v-8.197-16.856c0-5.573 4.518-10.09 10.091-10.09s10.091 4.517 10.091 10.09v1.384 15.472a9.78 9.78 0 0 0-6.273-2.265h-.545z" class="B D"/></mask><g mask="url(#E)"><path fill="#a55728" d="M34 306h36v38.182H34z"/></g><path d="M55.273 333.136v-2.507c2.391-1.136 4.098-3.477 4.335-6.238.788-.118 1.392-.798 1.392-1.618V321c0-.633-.36-1.182-.886-1.454.664.241 1.33.373 1.976.383v15.472a9.78 9.78 0 0 0-6.273-2.265h-.546zm-10.091.467c.946-.303 1.954-.467 3-.467h.545v-2.507a7.67 7.67 0 0 1-3.545-3.459v6.433zm14.455-14.251v.034a1.44 1.44 0 0 1 .161.036l-.161-.07z" class="B C O"/></g></g><path d="M62.5 51v-8.42h-2.04V40.8h2.04v-2.96h2.12v2.96H67v1.78h-2.38V51H62.5zm6.561 0V36.14h2.12v5.92h.14c.16-.307.373-.56.64-.76.267-.213.6-.373 1-.48.413-.107.913-.16 1.5-.16.72 0 1.3.08 1.74.24.453.16.793.407 1.02.74s.38.747.46 1.24c.093.493.14 1.073.14 1.74V51h-2.14v-5.54c0-.667-.027-1.193-.08-1.58-.04-.4-.133-.693-.28-.88-.147-.2-.367-.327-.66-.38-.28-.053-.66-.08-1.14-.08-.533 0-.96.067-1.28.2-.307.133-.54.333-.7.6-.147.267-.247.6-.3 1a14.27 14.27 0 0 0-.06 1.4V51h-2.12zm16.254.16c-.867 0-1.587-.053-2.16-.16-.573-.12-1.033-.307-1.38-.56-.347-.267-.607-.6-.78-1-.173-.413-.287-.907-.34-1.48-.053-.587-.08-1.267-.08-2.04 0-.92.047-1.713.14-2.38s.287-1.213.58-1.64c.293-.44.747-.76 1.36-.96.627-.2 1.46-.3 2.5-.3.813 0 1.48.067 2 .2.52.12.927.313 1.22.58a2.22 2.22 0 0 1 .66 1.04c.147.413.24.913.28 1.5l.06 1.96v.68h-6.66a10.73 10.73 0 0 0 .08 1.46c.053.36.173.64.36.84.2.187.507.32.92.4.427.067 1 .1 1.72.1l1-.02 1.14-.08 1.04-.1v1.66l-1.06.14-1.3.12-1.3.04zm2.02-5.7v-.38c0-.6-.04-1.073-.12-1.42-.067-.36-.187-.627-.36-.8-.16-.187-.387-.307-.68-.36-.28-.067-.633-.1-1.06-.1-.533 0-.96.04-1.28.12-.307.067-.54.2-.7.4s-.273.48-.34.84c-.053.347-.08.807-.08 1.38h4.98l-.36.32zm4.332.78v-1.88h5.06v1.88h-5.06zm13.105 4.92a6.61 6.61 0 0 1-1.26-.12c-.4-.067-.767-.207-1.1-.42s-.607-.533-.82-.96h-.14l-.06 1.34h-1.96V36.14h2.12V42h.12c.2-.36.453-.633.76-.82.32-.2.68-.34 1.08-.42s.84-.12 1.32-.12c.68 0 1.246.087 1.7.26a2.22 2.22 0 0 1 1.08.86c.28.387.48.92.6 1.6.133.667.2 1.513.2 2.54s-.067 1.88-.2 2.56c-.134.667-.34 1.2-.62 1.6-.28.387-.654.667-1.12.84-.454.173-1.02.26-1.7.26zm-.88-1.88c.533 0 .953-.033 1.26-.1.32-.08.56-.233.72-.46s.266-.56.32-1c.053-.453.08-1.06.08-1.82l-.08-1.8c-.054-.453-.16-.787-.32-1-.16-.227-.4-.373-.72-.44-.307-.08-.727-.12-1.26-.12-.52 0-.94.06-1.26.18-.307.12-.534.32-.68.6-.174.293-.287.653-.34 1.08a15.91 15.91 0 0 0-.06 1.5l.06 1.52c.053.427.16.78.32 1.06s.393.487.7.62c.32.12.74.18 1.26.18zM111.17 51V40.8h1.94l.08 1.84h.16c.173-.533.413-.947.72-1.24a2.41 2.41 0 0 1 1.12-.6c.44-.107.94-.16 1.5-.16v2.08c-.907 0-1.607.133-2.1.4-.48.267-.82.693-1.02 1.28-.187.573-.28 1.327-.28 2.26V51h-2.12zm11.84.16c-.867 0-1.587-.053-2.16-.16-.573-.12-1.033-.307-1.38-.56-.347-.267-.607-.6-.78-1-.173-.413-.287-.907-.34-1.48-.053-.587-.08-1.267-.08-2.04 0-.92.047-1.713.14-2.38s.287-1.213.58-1.64c.293-.44.747-.76 1.36-.96.627-.2 1.46-.3 2.5-.3.813 0 1.48.067 2 .2.52.12.927.313 1.22.58.307.267.527.613.66 1.04.147.413.24.913.28 1.5l.06 1.96v.68h-6.66c0 .6.027 1.087.08 1.46.053.36.173.64.36.84.2.187.507.32.92.4.427.067 1 .1 1.72.1l1-.02 1.14-.08 1.04-.1v1.66l-1.06.14-1.3.12-1.3.04zm2.02-5.7v-.38c0-.6-.04-1.073-.12-1.42-.067-.36-.187-.627-.36-.8-.16-.187-.387-.307-.68-.36a4.68 4.68 0 0 0-1.06-.1c-.533 0-.96.04-1.28.12-.307.067-.54.2-.7.4s-.273.48-.34.84c-.053.347-.08.807-.08 1.38h4.98l-.36.32zm7.392 5.7c-.693 0-1.28-.093-1.76-.28-.466-.187-.82-.493-1.06-.92-.24-.44-.36-1.033-.36-1.78 0-.787.094-1.407.28-1.86a1.77 1.77 0 0 1 .96-1c.454-.2 1.094-.3 1.92-.3l.58.02.9.02 1.02.02.94.02v-.48c0-.52-.033-.927-.1-1.22s-.206-.507-.42-.64c-.2-.147-.493-.24-.88-.28a15.12 15.12 0 0 0-1.5-.06l-1.04.04-1.14.06-.86.1v-1.68c.547-.107 1.147-.18 1.8-.22l1.96-.08c.76 0 1.394.047 1.9.14.52.093.94.24 1.26.44s.56.46.72.78.274.707.34 1.16c.067.44.1.947.1 1.52V51h-1.96l-.08-1.32h-.12c-.226.427-.533.753-.92.98a3.21 3.21 0 0 1-1.22.4c-.44.067-.86.1-1.26.1zm.94-1.72c.334 0 .634-.02.9-.06.28-.053.52-.133.72-.24.214-.12.38-.28.5-.48.12-.227.207-.487.26-.78.067-.293.1-.64.1-1.04v-.36h-2.92c-.44 0-.78.033-1.02.1-.226.067-.38.207-.46.42s-.12.54-.12.98c0 .413.047.727.14.94.094.2.287.34.58.42.307.067.747.1 1.32.1zM141.15 51V36.14h2.12v8.84h1.06l3.26-4.18h2.34l-3.9 4.92 3.96 5.28h-2.42l-3.24-4.24h-1.06V51h-2.12zm11.838 0v-8.42h-2.02V40.8h2.02v-1.24c0-.653.047-1.187.14-1.6.094-.427.247-.76.46-1 .227-.24.52-.413.88-.52.374-.12.827-.193 1.36-.22l1.88-.06v1.6l-1.36.06c-.333.027-.593.087-.78.18-.173.093-.293.24-.36.44-.053.187-.08.433-.08.74v1.62h2.58v1.78h-2.58V51h-2.14zm9.239.16c-.693 0-1.28-.093-1.76-.28a2.05 2.05 0 0 1-1.06-.92c-.24-.44-.36-1.033-.36-1.78 0-.787.093-1.407.28-1.86a1.77 1.77 0 0 1 .96-1c.453-.2 1.093-.3 1.92-.3l.58.02.9.02 1.02.02.94.02v-.48c0-.52-.033-.927-.1-1.22s-.207-.507-.42-.64c-.2-.147-.493-.24-.88-.28s-.887-.06-1.5-.06l-1.04.04-1.14.06-.86.1v-1.68c.547-.107 1.147-.18 1.8-.22l1.96-.08c.76 0 1.393.047 1.9.14.52.093.94.24 1.26.44s.56.46.72.78.273.707.34 1.16c.067.44.1.947.1 1.52V51h-1.96l-.08-1.32h-.12c-.227.427-.533.753-.92.98a3.21 3.21 0 0 1-1.22.4c-.44.067-.86.1-1.26.1zm.94-1.72c.333 0 .633-.02.9-.06.28-.053.52-.133.72-.24.213-.12.38-.28.5-.48.12-.227.207-.487.26-.78.067-.293.1-.64.1-1.04v-.36h-2.92c-.44 0-.78.033-1.02.1a.66.66 0 0 0-.46.42c-.08.213-.12.54-.12.98 0 .413.047.727.14.94.093.2.287.34.58.42.307.067.747.1 1.32.1zm11.348 1.72c-.4 0-.833-.013-1.3-.04l-1.34-.1-1.18-.14V49.2l.76.06.92.06.94.04.9.02c.64 0 1.1-.04 1.38-.12.293-.08.48-.213.56-.4.093-.2.14-.453.14-.76 0-.347-.033-.6-.1-.76a.48.48 0 0 0-.32-.32c-.16-.053-.407-.1-.74-.14l-2.48-.3c-.64-.067-1.127-.213-1.46-.44-.32-.24-.54-.56-.66-.96-.107-.413-.16-.913-.16-1.5 0-.68.093-1.22.28-1.62.2-.413.473-.72.82-.92.36-.2.793-.333 1.3-.4s1.06-.1 1.66-.1l1.16.04 1.18.12 1 .14v1.68l-1.04-.1-1.12-.06-1.04-.04c-.493 0-.9.027-1.22.08-.32.04-.56.147-.72.32-.147.16-.22.44-.22.84 0 .307.02.54.06.7.053.147.153.253.3.32.16.053.4.1.72.14l2.68.32c.507.053.913.16 1.22.32.32.147.553.42.7.82.16.387.24.98.24 1.78 0 .667-.087 1.207-.26 1.62-.16.4-.407.713-.74.94-.333.213-.74.353-1.22.42-.467.08-1 .12-1.6.12zm7.223-.16v-8.42h-2.04V40.8h2.04v-2.96h2.12v2.96h2.38v1.78h-2.38V51h-2.12zm6.101-4.76v-1.88h5.06v1.88h-5.06zm11.584 4.92c-.786 0-1.44-.067-1.96-.2-.506-.147-.913-.353-1.22-.62-.306-.28-.533-.627-.68-1.04-.146-.427-.246-.92-.3-1.48l-.06-1.94.08-1.9c.054-.56.16-1.047.32-1.46.174-.427.414-.773.72-1.04.307-.28.707-.487 1.2-.62.494-.147 1.114-.22 1.86-.22.48 0 .98.027 1.5.08.534.053.974.12 1.32.2v1.68c-.293-.053-.66-.093-1.1-.12l-1.18-.06c-.573 0-1.033.047-1.38.14-.333.093-.586.267-.76.52s-.293.607-.36 1.06c-.053.453-.08 1.04-.08 1.76l.08 1.8c.067.467.187.82.36 1.06.187.24.454.407.8.5.347.08.807.12 1.38.12l1.12-.04 1.22-.14v1.68c-.36.08-.806.147-1.34.2l-1.54.08zm5.399-.16V36.14h2.12V51h-2.12zm8.614.16c-.707 0-1.287-.08-1.74-.24-.44-.173-.78-.427-1.02-.76-.227-.333-.38-.747-.46-1.24s-.12-1.073-.12-1.74V40.8h2.12v5.54l.06 1.6c.053.387.153.68.3.88.146.187.36.307.64.36.293.053.68.08 1.16.08.533 0 .96-.067 1.28-.2s.553-.333.7-.6c.16-.267.26-.6.3-1a14.27 14.27 0 0 0 .06-1.4V40.8h2.14V51h-1.96l-.08-1.36h-.14c-.147.32-.36.593-.64.82-.267.227-.614.4-1.04.52s-.947.18-1.56.18zm13.914 0a6.61 6.61 0 0 1-1.26-.12c-.4-.067-.767-.207-1.1-.42s-.607-.533-.82-.96h-.14l-.06 1.34h-1.96V36.14h2.12V42h.12c.2-.36.453-.633.76-.82.32-.2.68-.34 1.08-.42s.84-.12 1.32-.12c.68 0 1.246.087 1.7.26a2.22 2.22 0 0 1 1.08.86c.28.387.48.92.6 1.6.133.667.2 1.513.2 2.54s-.067 1.88-.2 2.56c-.134.667-.34 1.2-.62 1.6-.28.387-.654.667-1.12.84-.454.173-1.02.26-1.7.26zm-.88-1.88c.533 0 .953-.033 1.26-.1.32-.08.56-.233.72-.46s.266-.56.32-1c.053-.453.08-1.06.08-1.82l-.08-1.8c-.054-.453-.16-.787-.32-1-.16-.227-.4-.373-.72-.44-.307-.08-.727-.12-1.26-.12-.52 0-.94.06-1.26.18-.307.12-.534.32-.68.6-.174.293-.287.653-.34 1.08a15.91 15.91 0 0 0-.06 1.5l.06 1.52c.053.427.16.78.32 1.06s.393.487.7.62c.32.12.74.18 1.26.18z" class="I"/><path d="M61.58 278v-10.2h1.96l.06 1.36h.14c.147-.32.347-.593.6-.82.267-.227.593-.4.98-.52.4-.12.88-.18 1.44-.18.853 0 1.493.127 1.92.38.427.24.727.62.9 1.14h.16a2.35 2.35 0 0 1 .62-.82 2.94 2.94 0 0 1 1.02-.52c.413-.12.9-.18 1.46-.18.88 0 1.54.147 1.98.44s.733.74.88 1.34c.147.587.22 1.32.22 2.2V278H73.8v-5.54l-.06-1.58c-.04-.4-.127-.693-.26-.88-.12-.2-.313-.327-.58-.38-.253-.053-.587-.08-1-.08-.48 0-.86.067-1.14.2-.28.12-.487.313-.62.58-.133.253-.22.58-.26.98s-.06.88-.06 1.44V278H67.7v-5.54c0-.667-.027-1.193-.08-1.58-.04-.4-.127-.693-.26-.88-.12-.2-.307-.327-.56-.38s-.593-.08-1.02-.08c-.467 0-.84.067-1.12.2s-.493.333-.64.6c-.133.253-.22.587-.26 1-.04.4-.06.867-.06 1.4V278h-2.12zm21.68.16c-.853 0-1.567-.053-2.14-.16-.56-.107-1.007-.273-1.34-.5-.32-.24-.56-.56-.72-.96-.147-.4-.247-.9-.3-1.5l-.06-2.16.06-2.14c.053-.6.153-1.1.3-1.5.16-.4.4-.713.72-.94.333-.24.78-.407 1.34-.5.573-.107 1.287-.16 2.14-.16.867 0 1.58.053 2.14.16.573.093 1.02.26 1.34.5a1.89 1.89 0 0 1 .72.94c.16.4.26.9.3 1.5l.08 2.14-.08 2.16c-.04.6-.14 1.1-.3 1.5a2 2 0 0 1-.72.96c-.32.227-.767.393-1.34.5-.56.107-1.273.16-2.14.16zm0-1.78c.613 0 1.087-.04 1.42-.12s.567-.24.7-.48c.147-.24.233-.593.26-1.06.04-.467.06-1.08.06-1.84l-.06-1.82c-.027-.467-.113-.82-.26-1.06-.133-.24-.367-.393-.7-.46-.333-.08-.807-.12-1.42-.12-.6 0-1.067.04-1.4.12-.333.067-.573.22-.72.46-.133.24-.22.593-.26 1.06l-.04 1.82.04 1.84c.04.467.127.82.26 1.06.147.24.387.4.72.48s.8.12 1.4.12zm9.549 1.62l-3.54-10.2h2.22l2.64 8.12h.16l2.6-8.12h2.18l-3.5 10.2h-2.76zm8.244-12.76v-2.1h2.22v2.1h-2.22zm.04 12.76v-10.2h2.12V278h-2.12zm9.613.16c-.867 0-1.587-.053-2.16-.16-.573-.12-1.033-.307-1.38-.56a2.49 2.49 0 0 1-.78-1c-.173-.413-.287-.907-.34-1.48-.053-.587-.08-1.267-.08-2.04 0-.92.047-1.713.14-2.38s.287-1.213.58-1.64c.293-.44.747-.76 1.36-.96.627-.2 1.46-.3 2.5-.3.813 0 1.48.067 2 .2.52.12.927.313 1.22.58.307.267.527.613.66 1.04.147.413.24.913.28 1.5l.06 1.96v.68h-6.66c0 .6.027 1.087.08 1.46.053.36.173.64.36.84.2.187.507.32.92.4.427.067 1 .1 1.72.1l1-.02 1.14-.08 1.04-.1v1.66l-1.06.14-1.3.12-1.3.04zm2.02-5.7v-.38c0-.6-.04-1.073-.12-1.42-.067-.36-.187-.627-.36-.8-.16-.187-.387-.307-.68-.36-.28-.067-.633-.1-1.06-.1-.533 0-.96.04-1.28.12-.307.067-.54.2-.7.4s-.273.48-.34.84c-.053.347-.08.807-.08 1.38h4.98l-.36.32zm4.333.78v-1.88h5.06v1.88h-5.06zm7.764 4.76v-10.2h1.96l.06 1.36h.16a2.32 2.32 0 0 1 .64-.82c.267-.227.614-.4 1.04-.52s.947-.18 1.56-.18c.72 0 1.3.087 1.74.26.44.16.774.407 1 .74s.38.747.46 1.24c.094.493.14 1.073.14 1.74V278h-2.14v-5.54c0-.667-.026-1.193-.08-1.58-.04-.4-.133-.693-.28-.88-.146-.2-.366-.327-.66-.38-.28-.053-.66-.08-1.14-.08-.533 0-.96.067-1.28.2-.306.133-.54.333-.7.6-.146.267-.246.6-.3 1-.04.4-.06.867-.06 1.4V278h-2.12zm11.874-12.76v-2.1h2.22v2.1h-2.22zm.04 12.76v-10.2h2.12V278h-2.12zm9.074 4.12a21.21 21.21 0 0 1-1.3-.04l-1.24-.08-.98-.08v-1.68l.96.06 1.08.02 1 .02c.72 0 1.286-.047 1.7-.14.426-.08.74-.233.94-.46.213-.213.346-.527.4-.94.066-.413.1-.947.1-1.6v-.5h-.12c-.187.36-.434.64-.74.84-.294.2-.64.34-1.04.42s-.84.12-1.32.12c-.694 0-1.274-.08-1.74-.24-.454-.173-.82-.453-1.1-.84s-.487-.913-.62-1.58c-.12-.667-.18-1.507-.18-2.52 0-1.027.06-1.873.18-2.54.133-.68.34-1.213.62-1.6.28-.4.653-.687 1.12-.86s1.046-.26 1.74-.26c.4 0 .806.04 1.22.12.413.067.786.213 1.12.44.346.213.62.533.82.96h.12l.08-1.36h1.96v8.94c0 .96-.047 1.78-.14 2.46s-.3 1.233-.62 1.66-.8.74-1.44.94c-.627.213-1.487.32-2.58.32zm.3-5.9c.546 0 .98-.067 1.3-.2.32-.147.553-.36.7-.64.16-.28.26-.62.3-1.02.04-.413.06-.907.06-1.48l-.06-1.44c-.04-.413-.134-.76-.28-1.04-.16-.307-.407-.527-.74-.66-.32-.147-.747-.22-1.28-.22-.52 0-.94.04-1.26.12-.307.067-.54.213-.7.44s-.267.56-.32 1-.08 1.04-.08 1.8l.08 1.78c.053.44.16.773.32 1s.393.38.7.46c.32.067.74.1 1.26.1zm7.638 1.78v-14.86h2.12v5.92h.14a2.21 2.21 0 0 1 .64-.76c.267-.213.6-.373 1-.48.413-.107.913-.16 1.5-.16.72 0 1.3.08 1.74.24.453.16.793.407 1.02.74s.38.747.46 1.24c.093.493.14 1.073.14 1.74V278h-2.14v-5.54c0-.667-.027-1.193-.08-1.58-.04-.4-.133-.693-.28-.88-.147-.2-.367-.327-.66-.38-.28-.053-.66-.08-1.14-.08-.533 0-.96.067-1.28.2a1.47 1.47 0 0 0-.7.6c-.147.267-.247.6-.3 1-.04.4-.06.867-.06 1.4V278h-2.12zm12.834 0v-8.42h-2.04v-1.78h2.04v-2.96h2.12v2.96h2.38v1.78h-2.38V278h-2.12zM65.14 395.16a22.59 22.59 0 0 1-1.3-.04l-1.34-.1-1.18-.14v-1.68l.76.06.92.06.94.04.9.02c.64 0 1.1-.04 1.38-.12.293-.08.48-.213.56-.4.093-.2.14-.453.14-.76 0-.347-.033-.6-.1-.76a.48.48 0 0 0-.32-.32c-.16-.053-.407-.1-.74-.14l-2.48-.3c-.64-.067-1.127-.213-1.46-.44-.32-.24-.54-.56-.66-.96-.107-.413-.16-.913-.16-1.5 0-.68.093-1.22.28-1.62.2-.413.473-.72.82-.92.36-.2.793-.333 1.3-.4a12.71 12.71 0 0 1 1.66-.1l1.16.04 1.18.12 1 .14v1.68l-1.04-.1-1.12-.06-1.04-.04c-.493 0-.9.027-1.22.08-.32.04-.56.147-.72.32-.147.16-.22.44-.22.84 0 .307.02.54.06.7.053.147.153.253.3.32.16.053.4.1.72.14l2.68.32c.507.053.913.16 1.22.32.32.147.553.42.7.82.16.387.24.98.24 1.78 0 .667-.087 1.207-.26 1.62-.16.4-.407.713-.74.94-.333.213-.74.353-1.22.42-.467.08-1 .12-1.6.12zm7.223-.16v-8.42h-2.04v-1.78h2.04v-2.96h2.12v2.96h2.38v1.78h-2.38V395h-2.12zm9.901.16c-.707 0-1.287-.08-1.74-.24-.44-.173-.78-.427-1.02-.76-.227-.333-.38-.747-.46-1.24s-.12-1.073-.12-1.74v-6.38h2.12v5.54l.06 1.6c.053.387.153.68.3.88.147.187.36.307.64.36.293.053.68.08 1.16.08.533 0 .96-.067 1.28-.2a1.36 1.36 0 0 0 .7-.6c.16-.267.26-.6.3-1s.06-.867.06-1.4v-5.26h2.14V395h-1.96l-.08-1.36h-.14c-.147.32-.36.593-.64.82-.267.227-.613.4-1.04.52s-.947.18-1.56.18zm11.814 0c-.68 0-1.253-.08-1.72-.24a2.36 2.36 0 0 1-1.12-.84c-.28-.4-.487-.94-.62-1.62-.12-.68-.18-1.527-.18-2.54 0-1.027.06-1.88.18-2.56.133-.68.333-1.213.6-1.6a2.33 2.33 0 0 1 1.1-.86c.453-.173 1.013-.26 1.68-.26a6.86 6.86 0 0 1 1.34.12c.4.08.753.22 1.06.42.32.187.573.46.76.82h.14v-5.86h2.12V395h-1.96l-.08-1.34h-.12c-.2.427-.473.747-.82.96-.333.213-.707.353-1.12.42a6.51 6.51 0 0 1-1.24.12zm.86-1.88c.587 0 1.04-.073 1.36-.22.333-.16.567-.407.7-.74.133-.307.213-.66.24-1.06.04-.4.06-.867.06-1.4l-.06-1.32c-.027-.387-.1-.713-.22-.98a1.43 1.43 0 0 0-.72-.78c-.32-.16-.773-.24-1.36-.24-.533 0-.96.04-1.28.12-.307.067-.54.213-.7.44-.147.213-.247.547-.3 1-.053.44-.08 1.04-.08 1.8l.08 1.82c.053.44.16.773.32 1s.393.38.7.46c.32.067.74.1 1.26.1zm11.678 5.84c-.387 0-.793-.013-1.22-.04l-1.2-.06-1-.1v-1.66l1.24.04.96.02.74.02c.72 0 1.287-.047 1.7-.14s.72-.253.92-.48.32-.54.36-.94c.053-.387.08-.88.08-1.48v-.62h-.12c-.133.293-.333.547-.6.76-.253.2-.593.36-1.02.48-.413.107-.927.16-1.54.16-.707 0-1.287-.08-1.74-.24-.44-.173-.78-.42-1.02-.74-.227-.333-.38-.747-.46-1.24s-.12-1.067-.12-1.72v-6.34h2.12v5.5l.06 1.6c.053.387.153.673.3.86s.36.313.64.38c.293.053.68.08 1.16.08.533 0 .96-.067 1.28-.2a1.36 1.36 0 0 0 .7-.6c.16-.267.26-.6.3-1s.06-.867.06-1.4v-5.22h2.14v9c0 .947-.053 1.753-.16 2.42-.093.68-.3 1.233-.62 1.66-.307.427-.773.74-1.4.94s-1.473.3-2.54.3zm7.414-8.88v-1.88h5.06v1.88h-5.06zm7.765 4.76v-10.2h1.94l.08 1.84h.16c.173-.533.413-.947.72-1.24s.68-.493 1.12-.6.94-.16 1.5-.16v2.08c-.907 0-1.607.133-2.1.4-.48.267-.82.693-1.02 1.28-.187.573-.28 1.327-.28 2.26V395h-2.12zm11.66.16c-.853 0-1.567-.053-2.14-.16-.56-.107-1.007-.273-1.34-.5-.32-.24-.56-.56-.72-.96-.147-.4-.247-.9-.3-1.5l-.06-2.16.06-2.14c.053-.6.153-1.1.3-1.5.16-.4.4-.713.72-.94.333-.24.78-.407 1.34-.5.573-.107 1.287-.16 2.14-.16.867 0 1.58.053 2.14.16.573.093 1.02.26 1.34.5.333.227.573.54.72.94.16.4.26.9.3 1.5l.08 2.14-.08 2.16c-.04.6-.14 1.1-.3 1.5-.147.4-.387.72-.72.96-.32.227-.767.393-1.34.5-.56.107-1.273.16-2.14.16zm0-1.78c.613 0 1.087-.04 1.42-.12s.567-.24.7-.48c.147-.24.233-.593.26-1.06.04-.467.06-1.08.06-1.84l-.06-1.82c-.027-.467-.113-.82-.26-1.06-.133-.24-.367-.393-.7-.46-.333-.08-.807-.12-1.42-.12-.6 0-1.067.04-1.4.12-.333.067-.573.22-.72.46-.133.24-.22.593-.26 1.06l-.04 1.82.04 1.84c.04.467.127.82.26 1.06.147.24.387.4.72.48s.8.12 1.4.12zm11.504 1.78c-.854 0-1.567-.053-2.14-.16-.56-.107-1.007-.273-1.34-.5-.32-.24-.56-.56-.72-.96-.147-.4-.247-.9-.3-1.5l-.06-2.16.06-2.14c.053-.6.153-1.1.3-1.5.16-.4.4-.713.72-.94.333-.24.78-.407 1.34-.5.573-.107 1.286-.16 2.14-.16.866 0 1.58.053 2.14.16.573.093 1.02.26 1.34.5.333.227.573.54.72.94.16.4.26.9.3 1.5l.08 2.14-.08 2.16c-.04.6-.14 1.1-.3 1.5-.147.4-.387.72-.72.96-.32.227-.767.393-1.34.5-.56.107-1.274.16-2.14.16zm0-1.78c.613 0 1.086-.04 1.42-.12s.566-.24.7-.48c.146-.24.233-.593.26-1.06.04-.467.06-1.08.06-1.84l-.06-1.82c-.027-.467-.114-.82-.26-1.06-.134-.24-.367-.393-.7-.46-.334-.08-.807-.12-1.42-.12-.6 0-1.067.04-1.4.12-.334.067-.574.22-.72.46-.134.24-.22.593-.26 1.06l-.04 1.82.04 1.84c.04.467.126.82.26 1.06.146.24.386.4.72.48s.8.12 1.4.12zm7.344 1.62v-10.2h1.96l.06 1.36h.14a2.45 2.45 0 0 1 .6-.82c.266-.227.593-.4.98-.52.4-.12.88-.18 1.44-.18.853 0 1.493.127 1.92.38.426.24.726.62.9 1.14h.16c.146-.32.353-.593.62-.82a2.94 2.94 0 0 1 1.02-.52c.413-.12.9-.18 1.46-.18.88 0 1.54.147 1.98.44s.733.74.88 1.34c.146.587.22 1.32.22 2.2V395h-2.12v-5.54l-.06-1.58c-.04-.4-.127-.693-.26-.88-.12-.2-.314-.327-.58-.38-.254-.053-.587-.08-1-.08-.48 0-.86.067-1.14.2-.28.12-.487.313-.62.58-.134.253-.22.58-.26.98s-.06.88-.06 1.44V395h-2.12v-5.54c0-.667-.027-1.193-.08-1.58-.04-.4-.127-.693-.26-.88-.12-.2-.307-.327-.56-.38s-.594-.08-1.02-.08c-.467 0-.84.067-1.12.2a1.39 1.39 0 0 0-.64.6c-.134.253-.22.587-.26 1-.04.4-.06.867-.06 1.4V395h-2.12z" fill="#dadada"/><path d="M80.6 214v-11.008h7.152v1.184h-5.776v3.664H87v1.2h-5.024v3.776h5.776V214H80.6zm9.417 0v-8.16h1.168l.064 1.568h.096c.139-.459.336-.811.592-1.056s.565-.411.928-.496c.363-.096.763-.144 1.2-.144v1.28c-.736 0-1.301.117-1.696.352s-.667.597-.816 1.088-.224 1.109-.224 1.856V214h-1.312zm5.843-10.464v-1.424h1.392v1.424H95.86zM95.892 214v-8.16h1.312V214h-1.312zm7.038.128c-.619 0-1.131-.053-1.536-.16-.395-.107-.715-.267-.96-.48a1.96 1.96 0 0 1-.528-.816c-.117-.331-.197-.725-.24-1.184l-.048-1.568.064-1.6c.053-.459.144-.853.272-1.184a2.1 2.1 0 0 1 .56-.816c.245-.203.56-.352.944-.448.384-.107.859-.16 1.424-.16.373 0 .763.021 1.168.064.416.032.757.08 1.024.144v1.056a11.03 11.03 0 0 0-.912-.112l-.96-.048c-.501 0-.907.043-1.216.128-.299.085-.528.24-.688.464-.149.224-.251.539-.304.944s-.08.928-.08 1.568c0 .651.027 1.184.08 1.6.053.405.16.72.32.944.171.213.405.363.704.448.309.075.715.112 1.216.112l.976-.048.944-.112v1.056c-.267.053-.608.101-1.024.144l-1.2.064zM79.528 159v-1.136c.576-.011 1.019-.043 1.328-.096s.533-.165.672-.336c.139-.181.219-.464.24-.848a21.41 21.41 0 0 0 .048-1.632v-6.96h1.376v6.528l-.048 2.128c-.032.555-.107.992-.224 1.312-.117.309-.309.539-.576.688-.256.149-.613.245-1.072.288-.448.043-1.029.064-1.744.064zm9.767.128c-.672 0-1.232-.043-1.68-.128-.437-.075-.784-.203-1.04-.384a1.64 1.64 0 0 1-.576-.752c-.117-.32-.192-.72-.224-1.2l-.048-1.744.048-1.728c.032-.491.107-.896.224-1.216a1.64 1.64 0 0 1 .576-.752c.256-.181.603-.309 1.04-.384.448-.085 1.008-.128 1.68-.128.683 0 1.243.043 1.68.128.437.075.784.203 1.04.384a1.51 1.51 0 0 1 .576.752c.128.32.208.725.24 1.216l.048 1.728-.048 1.744c-.032.48-.112.88-.24 1.2a1.51 1.51 0 0 1-.576.752c-.256.181-.603.309-1.04.384-.437.085-.997.128-1.68.128zm0-1.104c.576 0 1.019-.037 1.328-.112s.528-.219.656-.432c.139-.213.219-.523.24-.928l.048-1.632-.048-1.616c-.021-.416-.101-.731-.24-.944-.128-.213-.347-.357-.656-.432s-.752-.112-1.328-.112c-.565 0-1.008.037-1.328.112-.309.075-.528.219-.656.432s-.208.528-.24.944l-.048 1.616.048 1.632c.032.405.112.715.24.928s.347.357.656.432c.32.075.763.112 1.328.112zm6.002.976v-11.888h1.312v4.8h.08a1.92 1.92 0 0 1 .464-.608c.203-.181.48-.32.832-.416.352-.107.8-.16 1.344-.16.597 0 1.077.064 1.44.192.373.117.656.304.848.56.203.256.336.587.4.992.064.395.096.869.096 1.424V159h-1.296v-4.656c0-.555-.027-.992-.08-1.312-.043-.331-.133-.576-.272-.736-.139-.171-.341-.283-.608-.336s-.619-.08-1.056-.08c-.523 0-.933.069-1.232.208-.299.128-.517.32-.656.576-.139.245-.224.549-.256.912-.032.352-.048.757-.048 1.216V159h-1.312zm9.578 0v-8.16h1.184l.048 1.168h.096a2.14 2.14 0 0 1 .48-.672c.213-.192.496-.341.848-.448.363-.117.821-.176 1.376-.176.608 0 1.093.064 1.456.192s.64.32.832.576c.203.256.336.587.4.992.064.395.096.869.096 1.424V159h-1.296v-4.656c0-.555-.027-.992-.08-1.312-.043-.331-.133-.576-.272-.736-.139-.171-.341-.283-.608-.336s-.619-.08-1.056-.08c-.523 0-.933.069-1.232.208-.299.128-.517.32-.656.576-.139.245-.224.549-.256.912-.032.352-.048.757-.048 1.216V159h-1.312zm12.298.128c-.309 0-.64-.011-.992-.032l-1.04-.08-.928-.096v-1.056l.736.064.72.064.704.032h.72c.555 0 .955-.037 1.2-.112.256-.085.421-.224.496-.416.085-.192.128-.443.128-.752 0-.352-.032-.608-.096-.768-.053-.16-.155-.261-.304-.304-.139-.053-.352-.096-.64-.128l-2.112-.24c-.501-.053-.88-.16-1.136-.32a1.3 1.3 0 0 1-.528-.72c-.096-.309-.144-.699-.144-1.168 0-.533.075-.96.224-1.28s.363-.56.64-.72.613-.261 1.008-.304a10.04 10.04 0 0 1 1.328-.08l.88.032.912.08.768.112v1.056l-.848-.096-.864-.064-.88-.016c-.405 0-.752.021-1.04.064s-.507.149-.656.32c-.139.171-.208.453-.208.848 0 .309.021.544.064.704a.53.53 0 0 0 .304.32 3.01 3.01 0 0 0 .624.128l2.208.24c.437.043.779.128 1.024.256.256.117.437.331.544.64.117.309.176.773.176 1.392 0 .512-.064.928-.192 1.248-.117.309-.304.549-.56.72s-.571.283-.944.336a7.74 7.74 0 0 1-1.296.096zm8.497 0c-.672 0-1.232-.043-1.68-.128-.438-.075-.784-.203-1.04-.384a1.64 1.64 0 0 1-.576-.752c-.118-.32-.192-.72-.224-1.2l-.048-1.744.048-1.728c.032-.491.106-.896.224-1.216a1.64 1.64 0 0 1 .576-.752c.256-.181.602-.309 1.04-.384.448-.085 1.008-.128 1.68-.128.682 0 1.242.043 1.68.128.437.075.784.203 1.04.384.266.181.458.432.576.752.128.32.208.725.24 1.216l.048 1.728-.048 1.744c-.032.48-.112.88-.24 1.2-.118.32-.31.571-.576.752-.256.181-.603.309-1.04.384-.438.085-.998.128-1.68.128zm0-1.104c.576 0 1.018-.037 1.328-.112s.528-.219.656-.432c.138-.213.218-.523.24-.928l.048-1.632-.048-1.616c-.022-.416-.102-.731-.24-.944-.128-.213-.347-.357-.656-.432s-.752-.112-1.328-.112c-.566 0-1.008.037-1.328.112-.31.075-.528.219-.656.432s-.208.528-.24.944l-.048 1.616.048 1.632c.032.405.112.715.24.928s.346.357.656.432c.32.075.762.112 1.328.112zm6.002.976v-8.16h1.184l.048 1.168H133a2.14 2.14 0 0 1 .48-.672c.213-.192.496-.341.848-.448.363-.117.821-.176 1.376-.176.608 0 1.093.064 1.456.192s.64.32.832.576c.203.256.336.587.4.992.064.395.096.869.096 1.424V159h-1.296v-4.656c0-.555-.027-.992-.08-1.312-.043-.331-.133-.576-.272-.736-.139-.171-.341-.283-.608-.336s-.619-.08-1.056-.08c-.523 0-.933.069-1.232.208-.299.128-.517.32-.656.576-.139.245-.224.549-.256.912-.032.352-.048.757-.048 1.216V159h-1.312zm-52.224-56l4.16-11.008h1.728L89.48 103h-1.424l-1.136-3.008h-4.944L80.84 103h-1.392zm2.944-4.208h4.112L84.488 93.4h-.08l-2.016 5.392zM91.314 103V91.112h1.312V103h-1.312zm4.03-10.464v-1.424h1.392v1.424h-1.392zM95.376 103v-8.16h1.312V103h-1.312zm4.063 0v-8.16h1.185l.048 1.168h.096a2.14 2.14 0 0 1 .48-.672c.213-.192.496-.341.848-.448.362-.117.821-.176 1.376-.176.608 0 1.093.064 1.456.192s.64.32.832.576c.202.256.336.587.4.992.064.395.096.869.096 1.424V103h-1.296v-4.656c0-.555-.027-.992-.08-1.312-.043-.331-.134-.576-.272-.736-.139-.171-.342-.283-.608-.336a5.6 5.6 0 0 0-1.056-.08c-.523 0-.934.069-1.232.208-.299.128-.518.32-.656.576-.139.245-.224.549-.256.912-.032.352-.048.757-.048 1.216V103H99.44zm12.906.128c-.662 0-1.216-.043-1.664-.128-.438-.085-.79-.224-1.056-.416a1.92 1.92 0 0 1-.608-.784c-.139-.331-.23-.731-.272-1.2a18.56 18.56 0 0 1-.064-1.664c0-.757.032-1.403.096-1.936.064-.544.208-.981.432-1.312.234-.341.597-.587 1.088-.736.49-.16 1.152-.24 1.984-.24.629 0 1.141.048 1.536.144.405.096.725.245.96.448s.405.475.512.816c.117.331.192.731.224 1.2l.048 1.6v.432h-5.584c0 .555.026 1.008.08 1.36s.16.624.32.816c.17.192.432.325.784.4.362.075.853.112 1.472.112l.848-.016.928-.08.832-.096v1.056c-.224.043-.502.08-.832.112l-1.024.08-1.04.032zm1.952-4.432v-.432c0-.555-.032-.992-.096-1.312-.064-.331-.176-.576-.336-.736-.15-.171-.358-.283-.624-.336a5.18 5.18 0 0 0-.992-.08c-.512 0-.918.037-1.216.112-.299.064-.523.187-.672.368s-.251.443-.304.784-.08.795-.08 1.36h4.624l-.304.272z" fill="#eee"/><mask id="F" maskUnits="userSpaceOnUse" x="32" y="78" width="39" height="39" mask-type="alpha"><circle cx="51.5" cy="97.5" r="19.5" class="D"/><circle cx="51.5" cy="97.5" r="19.5" class="H"/></mask><g mask="url(#F)"><circle cx="51.5" cy="97.5" r="19.5" class="I"/><path d="M51.5 84.318c-4.569 0-8.273 3.704-8.273 8.273v.911c-.838.141-1.477.87-1.477 1.748v2.068c0 .894.662 1.634 1.522 1.755.305 2.926 2.136 5.399 4.682 6.608v2.739a11.97 11.97 0 0 0-11.227 11.944h29.546a11.97 11.97 0 0 0-11.227-11.944v-2.739c2.546-1.209 4.377-3.682 4.682-6.608.861-.122 1.522-.861 1.522-1.755V95.25c0-.878-.639-1.608-1.477-1.748v-.911c0-4.569-3.704-8.273-8.273-8.273z" class="B J"/><mask id="G" maskUnits="userSpaceOnUse" x="36" y="84" width="31" height="37" mask-type="alpha"><path d="M51.5 84.318c-4.569 0-8.273 3.704-8.273 8.273v.911c-.838.141-1.477.87-1.477 1.748v2.068c0 .894.662 1.634 1.522 1.755.305 2.926 2.136 5.399 4.682 6.608v2.739a11.97 11.97 0 0 0-11.227 11.944h29.546a11.97 11.97 0 0 0-11.227-11.944v-2.739c2.546-1.209 4.377-3.682 4.682-6.608.861-.122 1.522-.861 1.522-1.755V95.25c0-.878-.639-1.608-1.477-1.748v-.911c0-4.569-3.704-8.273-8.273-8.273z" class="B D"/></mask><g mask="url(#G)"><path d="M32 84.318h39v36.046H32z" class="N"/><path d="M43.227 98.205v1.182c0 4.569 3.704 8.273 8.273 8.273s8.273-3.704 8.273-8.273v-1.182c0 4.569-3.704 8.272-8.273 8.272s-8.273-3.704-8.273-8.272z" class="B C K"/></g><path d="M51.5 112.542c2.203 0 3.989-1.654 3.989-3.693a3.47 3.47 0 0 0-.022-.389c6.064.58 10.806 5.688 10.806 11.904H36.727c0-6.216 4.742-11.324 10.806-11.904a3.47 3.47 0 0 0-.022.389c0 2.039 1.786 3.693 3.989 3.693z" class="B F"/><mask id="H" maskUnits="userSpaceOnUse" x="36" y="108" width="31" height="13" mask-type="alpha"><path d="M51.5 112.542c2.203 0 3.989-1.654 3.989-3.693a3.47 3.47 0 0 0-.022-.389c6.064.58 10.806 5.688 10.806 11.904H36.727c0-6.216 4.742-11.324 10.806-11.904a3.47 3.47 0 0 0-.022.389c0 2.039 1.786 3.693 3.989 3.693z" class="B D"/></mask><g mask="url(#H)" class="F"><path d="M32 104.114h39v16.25H32z"/></g><path d="M56.174 120.364c.502-1.785.792-3.884.792-6.131 0-2.054-.242-3.984-.667-5.664 5.66.945 9.974 5.866 9.974 11.795H56.174zm-9.2 0H36.727c0-5.982 4.392-10.939 10.128-11.819-.429 1.685-.674 3.624-.674 5.688 0 2.247.29 4.346.792 6.131z" class="B P"/><path d="M58.739 116.818l.425-.319c.796-.596 1.892-.587 2.677.024l-3.102.295z" class="B F"/><use xlink:href="#d" class="B M"/><path d="M56.08 108.25c.886 4.284-.739 12.114-.739 12.114h2.364l2.068-5.319-.886-1.329.886-.886-2.807-4.432s-.449-.14-.886-.148z" class="B M"/><path d="M47.955 107.296c-1.001.679-1.625 1.642-1.625 2.71 0 1.093.654 2.077 1.696 2.758l.878-.691.676.049-.148-.466.011-.009c-.901-.464-1.489-1.225-1.489-2.086v-2.265zm7.091 2.262c0 .864-.588 1.625-1.489 2.089l.011.009-.148.466.677-.049.878.691c1.042-.681 1.696-1.665 1.696-2.758 0-1.068-.624-2.031-1.625-2.71v2.262z" fill="#f2f2f2" class="B"/><path d="M48.711 101.03a2.81 2.81 0 0 0 5.58-.013c.012-.113-.114-.301-.273-.301h-5.016c-.16 0-.306.174-.291.314z" class="B C L"/><mask id="I" maskUnits="userSpaceOnUse" x="48" y="100" width="7" height="4" mask-type="alpha"><path d="M48.711 101.03a2.81 2.81 0 0 0 5.58-.013c.012-.113-.114-.301-.273-.301h-5.016c-.16 0-.306.174-.291.314z" class="B D"/></mask><g mask="url(#I)"><rect x="49.284" y="99.091" width="4.58" height="2.364" rx="1.182" class="D"/><circle cx="50.761" cy="103.966" r="1.625" fill="#ff4f6d"/><circle cx="52.239" cy="103.966" r="1.625" fill="#ff4f6d"/></g><path d="M49.727 98.205c0 .653.794 1.182 1.773 1.182s1.773-.529 1.773-1.182" class="B C G"/><path d="M45.615 95.612c.273-.561.887-.952 1.601-.952s1.324.389 1.598.947c.081.166-.034.301-.151.201-.362-.311-.876-.506-1.447-.506-.553 0-1.052.182-1.412.477-.132.108-.269-.002-.189-.166zm8.568 0c.273-.561.887-.952 1.601-.952s1.324.389 1.598.947c.081.166-.035.301-.151.201-.362-.311-.876-.506-1.447-.506-.553 0-1.052.182-1.412.477-.132.108-.269-.002-.189-.166z" class="B C E"/><path d="M45.536 93.649c.578-.814 2.164-1.27 3.53-.935.159.039.319-.058.357-.216s-.058-.319-.216-.357c-1.586-.389-3.422.139-4.152 1.166-.095.133-.063.317.07.412s.318.063.412-.07zm11.928 0c-.578-.814-2.164-1.27-3.53-.935-.158.039-.319-.058-.357-.216s.058-.319.217-.357c1.586-.389 3.422.139 4.152 1.166.094.133.063.317-.07.412s-.317.063-.412-.07z" class="C E"/><mask id="J" maskUnits="userSpaceOnUse" x="32" y="79" width="39" height="42" mask-type="alpha"><path d="M32 79h39v41.364H32z" class="D"/></mask><g mask="url(#J)"><path d="M39.239 92.369c0 .672.25 1.277.717 1.592.134.09.365.136.613.158v11.768a1.18 1.18 0 0 0 1.182 1.182h6.205v-1.387c-2.59-1.23-4.439-3.766-4.696-6.757-.853-.128-1.508-.864-1.508-1.753v-1.92a1.77 1.77 0 0 1 .572-1.304c1.705-.387 3.56-1.113 5.388-2.168 1.792-1.035 3.324-2.251 4.503-3.507-.506 1.168-1.119 2.192-1.839 3.07 1.872-.816 3.147-2.128 3.825-3.935l.175.408c1.515 3.403 4.118 5.815 6.76 6.61a3.69 3.69 0 0 1 .117.827v1.92c0 .889-.655 1.625-1.508 1.753-.258 2.992-2.107 5.527-4.696 6.757v1.387h2.659a4.73 4.73 0 0 0 4.727-4.727v-7.66h0v-.336a.24.24 0 0 0-.005-.041l-.09-3.158c-.707-5.355-5.289-9.488-10.837-9.488-5.331 0-9.77 3.816-10.784 8.864-.816 0-1.477.827-1.477 1.847z" fill="#944f23" class="B"/><mask id="K" maskUnits="userSpaceOnUse" x="39" y="81" width="24" height="27" mask-type="alpha"><path d="M39.239 92.369c0 .672.25 1.277.717 1.592.134.09.365.136.613.158v11.768a1.18 1.18 0 0 0 1.182 1.182h6.205v-1.387c-2.59-1.23-4.439-3.766-4.696-6.757-.853-.128-1.508-.864-1.508-1.753v-1.92a1.77 1.77 0 0 1 .572-1.304c1.705-.387 3.56-1.113 5.388-2.168 1.792-1.035 3.324-2.251 4.503-3.507-.506 1.168-1.119 2.192-1.839 3.07 1.872-.816 3.147-2.128 3.825-3.935l.175.408c1.515 3.403 4.118 5.815 6.76 6.61a3.69 3.69 0 0 1 .117.827v1.92c0 .889-.655 1.625-1.508 1.753-.258 2.992-2.107 5.527-4.696 6.757v1.387h2.659a4.73 4.73 0 0 0 4.727-4.727v-7.66h0v-.336a.24.24 0 0 0-.005-.041l-.09-3.158c-.707-5.355-5.289-9.488-10.837-9.488-5.331 0-9.77 3.816-10.784 8.864-.816 0-1.477.827-1.477 1.847z" class="B D"/></mask><g mask="url(#K)"><path fill="#a55728" d="M31.852 79h39.296v41.364H31.852z"/></g><g opacity=".44" class="B D G"><path d="M54.373 87.813c1.764 3.961 5.001 6.579 8.059 6.868v-2.09c0-6.038-4.894-10.932-10.932-10.932-5.331 0-9.77 3.816-10.737 8.865a1.25 1.25 0 0 0-.047-.001c-.816 0-1.477.827-1.477 1.847 0 .958.583 1.745 1.33 1.838v.023l.141-.014c.103 0 .197-.011.288-.033 2.04-.26 4.399-1.069 6.713-2.405 1.792-1.035 3.324-2.251 4.503-3.507-.506 1.168-1.119 2.192-1.839 3.07 1.872-.816 3.147-2.128 3.825-3.935l.175.408z"/></g></g><circle cx="51.5" cy="97.5" r="18.5" stroke-width="2" class="H"/></g><mask id="L" maskUnits="userSpaceOnUse" x="32" y="133" width="39" height="39" mask-type="alpha"><circle cx="51.5" cy="152.5" r="19.5" class="D"/><circle cx="51.5" cy="152.5" r="19.5" class="H"/></mask><g mask="url(#L)"><circle cx="51.5" cy="152.5" r="19.5" fill="#f8fddb"/><path d="M51 142.364a6.79 6.79 0 0 0-6.788 6.788v.747c-.688.115-1.212.714-1.212 1.434v1.697c0 .734.543 1.341 1.249 1.44.251 2.401 1.752 4.43 3.842 5.422v2.248a9.82 9.82 0 0 0-9.212 9.799h24.242a9.82 9.82 0 0 0-9.212-9.799v-2.248c2.089-.992 3.591-3.021 3.842-5.422.706-.099 1.249-.706 1.249-1.44v-1.697c0-.72-.524-1.319-1.212-1.434v-.747A6.79 6.79 0 0 0 51 142.364z" class="B J"/><mask id="M" maskUnits="userSpaceOnUse" x="38" y="142" width="26" height="30" mask-type="alpha"><path d="M51 142.364a6.79 6.79 0 0 0-6.788 6.788v.747c-.688.115-1.212.714-1.212 1.434v1.697c0 .734.543 1.341 1.249 1.44.251 2.401 1.752 4.43 3.842 5.422v2.248a9.82 9.82 0 0 0-9.212 9.799h24.242a9.82 9.82 0 0 0-9.212-9.799v-2.248c2.089-.992 3.591-3.021 3.842-5.422.706-.099 1.249-.706 1.249-1.44v-1.697c0-.72-.524-1.319-1.212-1.434v-.747A6.79 6.79 0 0 0 51 142.364z" class="B D"/></mask><g mask="url(#M)"><path d="M35 142.364h32v29.576H35z" class="N"/><path d="M44.212 153.758v.969A6.79 6.79 0 0 0 51 161.515a6.79 6.79 0 0 0 6.788-6.788v-.969A6.79 6.79 0 0 1 51 160.545a6.79 6.79 0 0 1-6.788-6.787z" class="B C K"/></g><path d="M48.091 160.387c-2.144.509-3.669 1.564-3.859 2.806-3.178 1.625-5.353 4.932-5.353 8.746h24.242c0-3.814-2.175-7.121-5.353-8.746-.189-1.242-1.715-2.297-3.859-2.806v2.098A2.91 2.91 0 0 1 51 165.394a2.91 2.91 0 0 1-2.909-2.909v-2.098z" fill="#b7c1db" class="B"/><mask id="N" maskUnits="userSpaceOnUse" x="38" y="160" width="26" height="12" mask-type="alpha"><path d="M48.091 160.387c-2.144.509-3.669 1.564-3.859 2.806-3.178 1.625-5.353 4.932-5.353 8.746h24.242c0-3.814-2.175-7.121-5.353-8.746-.189-1.242-1.715-2.297-3.859-2.806v2.098A2.91 2.91 0 0 1 51 165.394a2.91 2.91 0 0 1-2.909-2.909v-2.098z" class="B D"/></mask><g mask="url(#N)"><path d="M35 158.606h32v13.333H35z" class="F"/><path d="M47.364 166.283a8.17 8.17 0 0 1-.849-.341v5.997h.849v-5.656zm7.273 0a8.17 8.17 0 0 0 .848-.341v4.603c0 .235-.19.425-.424.425s-.424-.19-.424-.425v-4.262z" fill="#f4f4f4" class="B"/><path d="M51 166.849c3.749 0 6.788-1.629 6.788-3.637 0-1.195-1.077-2.256-2.739-2.919 2.399.609 4.012 1.743 4.012 3.04 0 1.942-3.609 3.516-8.061 3.516zm-4.049-6.556c-1.663.663-2.739 1.724-2.739 2.919 0 2.008 3.039 3.637 6.788 3.637-4.452 0-8.061-1.574-8.061-3.516 0-1.297 1.613-2.431 4.012-3.04z" class="B C G"/></g><path d="M49.303 156.061A1.7 1.7 0 0 0 51 157.758a1.7 1.7 0 0 0 1.697-1.697" class="B C L"/><path d="M49.546 153.758c0 .535.651.969 1.455.969s1.454-.434 1.454-.969" class="B C G"/><circle cx="47.849" cy="151.576" r=".727" class="C E"/><circle cx="54.152" cy="151.576" r=".727" class="C E"/><path d="M46.107 150.019c.475-.667 1.776-1.042 2.896-.767.13.032.261-.047.293-.177s-.048-.262-.178-.293c-1.301-.32-2.808.114-3.407.956-.078.11-.052.261.057.339s.261.051.338-.058zm9.786 0c-.475-.667-1.776-1.042-2.896-.767-.13.032-.261-.047-.293-.177s.048-.262.178-.293c1.301-.32 2.808.114 3.407.956.078.11.052.261-.057.339s-.261.051-.338-.058z" class="C E"/><mask id="O" maskUnits="userSpaceOnUse" x="35" y="138" width="32" height="34" mask-type="alpha"><path d="M35 138h32v33.939H35z" class="D"/></mask><g mask="url(#O)"><path d="M43 146.485c0-1.125.232-2.196.651-3.167-.486-1.059-1.156-2.928-.574-4.212 1.049-.319 2.353.241 3.334.825 1.299-.911 2.881-1.446 4.588-1.446a7.96 7.96 0 0 1 4.592 1.448c.981-.585 2.288-1.146 3.338-.827.583 1.287-.092 3.162-.578 4.22a7.97 7.97 0 0 1 .648 3.159v.363H43v-.363z" fill="#d8d8d8" class="B"/><mask id="P" maskUnits="userSpaceOnUse" x="42" y="138" width="18" height="9" mask-type="alpha"><path d="M43 146.485c0-1.125.232-2.196.651-3.167-.486-1.059-1.156-2.928-.574-4.212 1.049-.319 2.353.241 3.334.825 1.299-.911 2.881-1.446 4.588-1.446a7.96 7.96 0 0 1 4.592 1.448c.981-.585 2.288-1.146 3.338-.827.583 1.287-.092 3.162-.578 4.22a7.97 7.97 0 0 1 .648 3.159v.363H43v-.363z" class="B D"/></mask><g mask="url(#P)"><path fill="#5199e4" d="M40.091 138h21.877v23.152H40.091z"/></g><path d="M58.352 143.326c.486-1.058 1.161-2.933.578-4.22-1.05-.319-2.357.242-3.338.827 1.208.848 2.17 2.021 2.76 3.393zm-11.941-3.395c-.981-.584-2.285-1.144-3.334-.825-.582 1.284.088 3.153.574 4.212.591-1.369 1.553-2.541 2.76-3.387z" class="B C O"/><path d="M57.837 142.329c.282-.782.551-1.786.276-2.23-.368-.159-1.089.119-1.744.456.57.516 1.065 1.114 1.468 1.774zm-12.215-1.767c-.665-.346-1.407-.639-1.783-.476-.281.455.007 1.497.297 2.286a8.04 8.04 0 0 1 1.486-1.81z" fill-opacity=".3" class="B D"/><g filter="url(#b)" class="B"><path d="M42.636 147.421c0-1.053.475-2.057 1.414-2.533 1.373-.695 3.724-1.555 6.958-1.555 3.262 0 5.619.874 6.981 1.573.913.468 1.374 1.445 1.374 2.472 0 1.425-1.751 2.398-3.096 1.925-1.354-.477-3.107-.879-5.171-.879-2.136 0-3.975.431-5.388.93-1.353.477-3.073-.498-3.073-1.933z" fill="#f4f4f4"/></g></g></g><mask id="Q" maskUnits="userSpaceOnUse" x="32" y="188" width="39" height="39" mask-type="alpha"><circle cx="51.5" cy="207.5" r="19.5" class="D"/><circle cx="51.5" cy="207.5" r="19.5" class="H"/></mask><g mask="url(#Q)"><circle cx="51.5" cy="207.5" r="19.5" fill="#f2c9a8"/><path d="M51.5 196.5a7 7 0 0 0-7 7v.771a1.5 1.5 0 0 0-1.25 1.479v1.75a1.5 1.5 0 0 0 1.288 1.485c.258 2.476 1.807 4.568 3.962 5.591v2.318A10.13 10.13 0 0 0 39 227h25a10.13 10.13 0 0 0-9.5-10.106v-2.318c2.155-1.023 3.703-3.115 3.962-5.591a1.5 1.5 0 0 0 1.288-1.485v-1.75a1.5 1.5 0 0 0-1.25-1.479v-.771a7 7 0 0 0-7-7z" class="B J"/><mask id="R" maskUnits="userSpaceOnUse" x="39" y="196" width="25" height="31" mask-type="alpha"><path d="M51.5 196.5a7 7 0 0 0-7 7v.771a1.5 1.5 0 0 0-1.25 1.479v1.75a1.5 1.5 0 0 0 1.288 1.485c.258 2.476 1.807 4.568 3.962 5.591v2.318A10.13 10.13 0 0 0 39 227h25a10.13 10.13 0 0 0-9.5-10.106v-2.318c2.155-1.023 3.703-3.115 3.962-5.591a1.5 1.5 0 0 0 1.288-1.485v-1.75a1.5 1.5 0 0 0-1.25-1.479v-.771a7 7 0 0 0-7-7z" class="B D"/></mask><g mask="url(#R)"><path d="M35 196.5h33V227H35z" class="N"/><path d="M44.5 208.25v1a7 7 0 1 0 14 0v-1a7 7 0 1 1-14 0z" class="B C K"/></g><path d="M51.5 220.381c1.864 0 3.375-1.399 3.375-3.125 0-.111-.006-.22-.018-.328A10.12 10.12 0 0 1 64 227H39a10.12 10.12 0 0 1 9.143-10.072c-.012.108-.018.217-.018.328 0 1.726 1.511 3.125 3.375 3.125z" class="B F"/><mask id="S" maskUnits="userSpaceOnUse" x="39" y="216" width="25" height="11" mask-type="alpha"><path d="M51.5 220.381c1.864 0 3.375-1.399 3.375-3.125 0-.111-.006-.22-.018-.328A10.12 10.12 0 0 1 64 227H39a10.12 10.12 0 0 1 9.143-10.072c-.012.108-.018.217-.018.328 0 1.726 1.511 3.125 3.375 3.125z" class="B D"/></mask><g mask="url(#S)" class="F"><path d="M35 213.25h33V227H35z"/></g><path d="M55.455 227c.425-1.51.67-3.286.67-5.187 0-1.738-.205-3.372-.565-4.793 4.789.8 8.44 4.964 8.44 9.98h-8.545zm-7.785 0H39c0-5.062 3.717-9.255 8.57-10.001-.363 1.426-.57 3.067-.57 4.814 0 1.901.245 3.677.67 5.187z" class="B P"/><path d="M57.625 224l.36-.27c.673-.505 1.601-.497 2.265.02l-2.625.25z" class="B F"/><path d="M47.625 216.75c-.75 3.625.625 10.25.625 10.25h-2l-1.75-4.5.75-1.125-.75-.75 2.375-3.75s.38-.118.75-.125zm7.75 0c.75 3.625-.625 10.25-.625 10.25h2l1.75-4.5-.75-1.125.75-.75-2.375-3.75s-.38-.118-.75-.125z" class="B M"/><path d="M48.5 215.942c-.846.575-1.375 1.39-1.375 2.294 0 .925.553 1.757 1.435 2.334l.743-.585.572.041-.125-.394.01-.008c-.763-.392-1.26-1.036-1.26-1.764v-1.918zm6 1.918c0 .728-.497 1.372-1.26 1.764l.01.008-.125.394.572-.041.743.585c.882-.577 1.435-1.409 1.435-2.334 0-.904-.529-1.719-1.375-2.294v1.918z" fill="#f2f2f2" class="B"/><path d="M49.75 210.625a1.75 1.75 0 1 0 3.5 0" class="B C L"/><path d="M50 208.25c0 .552.672 1 1.5 1s1.5-.448 1.5-1" class="B C G"/><circle cx="48.25" cy="206" r=".75" class="C E"/><circle cx="54.75" cy="206" r=".75" class="C E"/><path d="M46.454 204.395c.489-.689 1.831-1.075 2.987-.791a.25.25 0 1 0 .119-.486c-1.342-.329-2.896.118-3.513.987a.25.25 0 1 0 .408.29zm10.092 0c-.489-.689-1.831-1.075-2.987-.791a.25.25 0 1 1-.119-.486c1.342-.329 2.896.118 3.513.987a.25.25 0 1 1-.408.29z" class="C E"/><mask id="T" maskUnits="userSpaceOnUse" x="35" y="192" width="33" height="35" mask-type="alpha"><path d="M35 192h33v35H35z" class="D"/></mask><g mask="url(#T)"><path d="M65.06 212.993l.082.115.307.42c.536.726 1.104 1.494 1.224 2.336.057.4.089 2.03-.943 1.429l-.032.348c-.03.269-.046.413.074.803.111.357.26 1.077-.483 1.012l.062.167c.28.755.643 1.735.249 2.478-.699 1.315-1.487-.342-1.696-.936.013.41-.428 1.149-.98.579l.054.509c.078.621.17 1.357-.137 1.848-.77 1.231-1.622-.328-1.651-.987-.03.096-.049.222-.069.358-.073.49-.164 1.105-.88.911-.791-.215-.505-1.262-.352-1.734-.251.444-.56 1.106-.609 1.608-.009.098.004.224.018.36.05.467.111 1.044-.713.897-.815-.146-.844-1.362-.83-1.898.004-.144.053-.351.106-.576.107-.449.231-.97.041-1.206-.815.342-.775 1.099-.736 1.823.037.688.072 1.347-.633 1.59-.442.153-.791-.074-.972-.398l-.068-.182c.05-.211-.045-.32-.285-.325a1.21 1.21 0 0 0-.137-.14.64.64 0 0 1-.213-.317c-.289-.815.274-1.899.679-2.625-.176.16-.337.345-.499.531-.224.257-.448.515-.712.708-.307.225-.761.289-1.048-.022-.264-.286-.097-.562.064-.827l.088-.15c.295-.539.722-.9 1.191-1.298l.392-.337c.48-.428.914-.904 1.341-1.372l.159-.174c.253-.276.497-.569.714-.875-.862-.303-1.778-.492-2.728-.55v-2.318a7.03 7.03 0 0 0 3.225-3.122l.058-1.4.06-4.418-.025-.323c-.139-1.794-.223-2.878-1.499-4.507-.57-.728-1.648-.959-2.716-1.188-1.011-.216-2.012-.43-2.564-1.063-.515.597-1.268.915-2.092 1.124l-.543.12c-.623.128-1.211.249-1.635.7-.975 1.039-1.405 1.735-1.703 3.032-.331 1.438-.418 2.862-.317 4.322l.04.712c.044.887.089 1.79.361 2.638a7.03 7.03 0 0 0 3.349 3.373v2.318l-.891.094c.072.396.114.797.082 1.189l-.052.508c-.05.441-.099.872-.054 1.33.106 1.075.492 2.107.876 3.133l.251.68c.077.214.248.442.418.67.307.41.612.817.361 1.137-.391.498-1.727-.683-2.026-1.256l-.363-.717-.534-1.037.298 1.246.218.896c.019.079.05.176.085.284.171.534.43 1.341-.285 1.493-.949.203-1.123-1.072-1.222-1.792l-.049-.321c-.127-.618-.263-.976-.433-1.424l-.255-.698c-.024.266-.022.535-.02.806.003.41.006.821-.081 1.22-.061.277-.301.522-.534.759l-.285.307c-.747.92-1.042-.114-1.252-.847l-.153-.472c-.413.301-1.312.896-1.863.518-.342-.235-.214-.629-.108-.954l.054-.175c.152-.556.243-1.106-.164-1.609-.386.376-1.24.594-1.735.235-.549-.398-.194-.957.09-1.406l.113-.181c.385-.647.46-1.294.539-1.982l.046-.387.024-.16.029-.198.042-.266c.057-.338.133-.782.037-1.015-.137-.334-.287-.337-.592-.261-.431.107-.786.348-.859.697-.059.283.09.47.239.657.116.146.232.291.252.483.097.944-1.088.5-1.44.077-.514-.617-.53-1.3-.235-2.002.151-.359.385-.68.62-1.002l.033-.045.108-.146c.233-.312.301-.402.252-.81l-.109-.71c-.091-.537-.181-1.06-.126-1.631.08-.832.33-1.573.704-2.346.124-.257.295-.506.465-.756.216-.316.432-.632.554-.964.114-.311.142-.647.169-.981l.068-.596.215-.971.224-1.018c.23-1.3.77-2.549 1.375-3.759l.129-.259c.28-.564.559-1.128.944-1.651.228-.309.477-.627.781-.889.136-.117.327-.203.513-.288.194-.089.385-.175.507-.293.209-.202.234-.476.26-.76.029-.321.06-.656.359-.914.349-.301.712-.368 1.172-.441.231-.037.304-.027.362-.052s.097-.079.247-.237l.194-.221c.22-.261.444-.527.836-.618.471-.11.873.086 1.269.278l.439.197c.803.298 1.306.211 2.094-.038l.01-.003c.524-.166.869-.275 1.361.012.13.076.247.212.367.351.176.204.358.414.59.446.246.034.544-.07.847-.175.282-.097.569-.197.823-.189.806.026 1.198.531 1.531 1.07.115.187.2.239.301.302a1.27 1.27 0 0 1 .219.163c.098.092.17.197.243.303.077.112.155.226.265.327.451.412.982.771 1.512 1.13l1.16.83c1.583 1.268 1.958 2.985 2.06 4.728l.03.751c.038 1.208.079 2.507.813 3.538l.38.501c.334.426.651.829.834 1.372l.038.109c.098.273.233.649.066.889-.226.323-.795.326-1.04.018-.223.69.478 1.668.923 2.288z" fill="#8d5a5a" class="B"/><mask id="U" maskUnits="userSpaceOnUse" x="36" y="193" width="31" height="34" mask-type="alpha"><path d="M65.06 212.993l.082.115.307.42c.536.726 1.104 1.494 1.224 2.336.057.4.089 2.03-.943 1.429l-.032.348c-.03.269-.046.413.074.803.111.357.26 1.077-.483 1.012l.062.167c.28.755.643 1.735.249 2.478-.699 1.315-1.487-.342-1.696-.936.013.41-.428 1.149-.98.579l.054.509c.078.621.17 1.357-.137 1.848-.77 1.231-1.622-.328-1.651-.987-.03.096-.049.222-.069.358-.073.49-.164 1.105-.88.911-.791-.215-.505-1.262-.352-1.734-.251.444-.56 1.106-.609 1.608-.009.098.004.224.018.36.05.467.111 1.044-.713.897-.815-.146-.844-1.362-.83-1.898.004-.144.053-.351.106-.576.107-.449.231-.97.041-1.206-.815.342-.775 1.099-.736 1.823.037.688.072 1.347-.633 1.59-.442.153-.791-.074-.972-.398l-.068-.182c.05-.211-.045-.32-.285-.325a1.21 1.21 0 0 0-.137-.14.64.64 0 0 1-.213-.317c-.289-.815.274-1.899.679-2.625-.176.16-.337.345-.499.531-.224.257-.448.515-.712.708-.307.225-.761.289-1.048-.022-.264-.286-.097-.562.064-.827l.088-.15c.295-.539.722-.9 1.191-1.298l.392-.337c.48-.428.914-.904 1.341-1.372l.159-.174c.253-.276.497-.569.714-.875-.862-.303-1.778-.492-2.728-.55v-2.318a7.03 7.03 0 0 0 3.225-3.122l.058-1.4.06-4.418-.025-.323c-.139-1.794-.223-2.878-1.499-4.507-.57-.728-1.648-.959-2.716-1.188-1.011-.216-2.012-.43-2.564-1.063-.515.597-1.268.915-2.092 1.124l-.543.12c-.623.128-1.211.249-1.635.7-.975 1.039-1.405 1.735-1.703 3.032-.331 1.438-.418 2.862-.317 4.322l.04.712c.044.887.089 1.79.361 2.638a7.03 7.03 0 0 0 3.349 3.373v2.318l-.891.094c.072.396.114.797.082 1.189l-.052.508c-.05.441-.099.872-.054 1.33.106 1.075.492 2.107.876 3.133l.251.68c.077.214.248.442.418.67.307.41.612.817.361 1.137-.391.498-1.727-.683-2.026-1.256l-.363-.717-.534-1.037.298 1.246.218.896c.019.079.05.176.085.284.171.534.43 1.341-.285 1.493-.949.203-1.123-1.072-1.222-1.792l-.049-.321c-.127-.618-.263-.976-.433-1.424l-.255-.698c-.024.266-.022.535-.02.806.003.41.006.821-.081 1.22-.061.277-.301.522-.534.759l-.285.307c-.747.92-1.042-.114-1.252-.847l-.153-.472c-.413.301-1.312.896-1.863.518-.342-.235-.214-.629-.108-.954l.054-.175c.152-.556.243-1.106-.164-1.609-.386.376-1.24.594-1.735.235-.549-.398-.194-.957.09-1.406l.113-.181c.385-.647.46-1.294.539-1.982l.046-.387.024-.16.029-.198.042-.266c.057-.338.133-.782.037-1.015-.137-.334-.287-.337-.592-.261-.431.107-.786.348-.859.697-.059.283.09.47.239.657.116.146.232.291.252.483.097.944-1.088.5-1.44.077-.514-.617-.53-1.3-.235-2.002.151-.359.385-.68.62-1.002l.033-.045.108-.146c.233-.312.301-.402.252-.81l-.109-.71c-.091-.537-.181-1.06-.126-1.631.08-.832.33-1.573.704-2.346.124-.257.295-.506.465-.756.216-.316.432-.632.554-.964.114-.311.142-.647.169-.981l.068-.596.215-.971.224-1.018c.23-1.3.77-2.549 1.375-3.759l.129-.259c.28-.564.559-1.128.944-1.651.228-.309.477-.627.781-.889.136-.117.327-.203.513-.288.194-.089.385-.175.507-.293.209-.202.234-.476.26-.76.029-.321.06-.656.359-.914.349-.301.712-.368 1.172-.441.231-.037.304-.027.362-.052s.097-.079.247-.237l.194-.221c.22-.261.444-.527.836-.618.471-.11.873.086 1.269.278l.439.197c.803.298 1.306.211 2.094-.038l.01-.003c.524-.166.869-.275 1.361.012.13.076.247.212.367.351.176.204.358.414.59.446.246.034.544-.07.847-.175.282-.097.569-.197.823-.189.806.026 1.198.531 1.531 1.07.115.187.2.239.301.302a1.27 1.27 0 0 1 .219.163c.098.092.17.197.243.303.077.112.155.226.265.327.451.412.982.771 1.512 1.13l1.16.83c1.583 1.268 1.958 2.985 2.06 4.728l.03.751c.038 1.208.079 2.507.813 3.538l.38.501c.334.426.651.829.834 1.372l.038.109c.098.273.233.649.066.889-.226.323-.795.326-1.04.018-.223.69.478 1.668.923 2.288z" class="B D"/></mask><g mask="url(#U)"><path fill="#2c1b18" d="M35 192h33v35H35z"/><path d="M57.688 211.526a7.06 7.06 0 0 0 .047 1.106c.041.312.105.614.169.914.141.667.279 1.32.162 2.034-.108.659-.426 1.286-.836 1.864-.862-.303-1.778-.492-2.728-.55v-2.318c1.363-.647 2.483-1.721 3.188-3.05zm-10.078 5.462l-.173-.789c-.267-1.103-.803-2.079-1.346-3.069l-.694-1.316c-.097-.2-.177-.404-.244-.611a7.03 7.03 0 0 0 3.349 3.373v2.318l-.891.094z" class="B C O"/><path d="M47.685 196.189c-.209 0-1.52.593-1.03.768.3.108 1.562-.768 1.03-.768zm8.571 1.731c-.106.047-.104.092.005.133.106-.047.104-.092-.005-.133zm3.058 2.28h0 0l-.172-.345-.055-.071h0 0 0 0v-.001h0 0 0c-.197-.252-.771-.989-.254-.867.261.062.611.773.769 1.094h0l.041.083.039.073c.124.222.405.728.009.687-.079-.008-.244-.364-.378-.653h0 0zm1.312 8.414v-.002h0 0 0 0 0 0 0 0 0 0v-.001h0 0 0 0l-.248-2.768a1.13 1.13 0 0 1-.006-.093h0c-.007-.184-.019-.473-.301-.333-.184.091-.015 1 .066 1.432l.036.208.057.496h0 0 0 0 0 0v.001h0 0 0 0 0 0 0v.001h0l.166 2.278c0 .015-.004.044-.008.082-.026.216-.089.728.202.595.182-.084.097-1.093.071-1.402l-.005-.066-.029-.428zm-17.581-1.333c.002.039 0 .111-.003.201-.011.362-.032 1.019.182 1.024.228.005.155-1.05.126-1.479h0 0 0l-.01-.157.001-.082h0c.006-.292.024-1.169-.255-.999-.224.135-.135.775-.076 1.197l.035.295zm1.058 7.109h0c.015-.409.061-1.653-.242-1.312-.141.159-.089.656-.057.954h0l.015.155c.002.023-.002.059-.007.1-.012.114-.028.268.058.299.095.033.228.041.229-.086l.003-.11zm-3.213 1.755c.241-.007.018-4.729-.353-4.724-.26.004.17 4.729.353 4.724zm.279 2.419c-.3 0-.245 1.058-.068 1.143.267.128.403-1.143.068-1.143zm1.932-.114l-.028.557c.003.132-.147.134-.247.093-.09-.037-.079-.289-.073-.436l.002-.089c-.004-.068-.021-.183-.041-.322-.063-.423-.157-1.06.006-1.207.202-.182.242-.051.287.093l.032.094c.133.332.096.793.063 1.217zm17.152-5.252c-.317-.062-.482 1.012-.338 1.127.24.192.669-1.061.338-1.127zm-.033 4.725c-.142-.028-1.179 1.967-1.094 2.079.162.215 1.604-1.977 1.094-2.079zm-2.553.922c-.223-.1-1.167 1.344-.926 1.452.218.098 1.195-1.331.926-1.452zm5.261-5.414c-.269 0-.257 1.478-.05 1.571.214.096.368-1.571.05-1.571zm-17.614-14.657c.158-.081.68-.108.388.162-.078.071-.223.25-.395.462h0c-.382.471-.898 1.107-1.12 1.116-.528.022.323-.905.595-1.201h0 0l.067-.074.032-.038h0 0 0 0c.09-.108.299-.359.433-.427zm-3.032 3.724c-.273-.054-.729 1.283-.57 1.444.241.244.876-1.384.57-1.444zm2.768 14.733c.06-.326.297-.025.349.143.011.035.043.117.085.226h0c.159.407.466 1.193.361 1.319-.165.2-.234.006-.29-.15l-.037-.096-.035-.076c-.165-.354-.49-1.054-.433-1.366zm-.677 2.996c-.287 0-.254 1.225-.083 1.298.265.113.435-1.298.083-1.298zm19.603-2.743c.28.551.489 1.109.623 1.697.002.009.008.028.016.052.053.169.198.632-.099.553-.146-.038-.199-.352-.238-.578l-.037-.185c-.065-.216-.192-.453-.322-.694-.177-.329-.357-.664-.382-.956-.042-.487.23-.301.439.111zm-1.84 1.635c-.267-.001-.279 1.346-.113 1.425.233.11.453-1.425.113-1.425zm.77-11.037c.198-.052-.426-1.666-.647-1.648-.337.027.347 1.725.647 1.648zm-3.352 7.011c-.106.048-.104.093.005.134.106-.047.104-.092-.005-.134zm-3.027 6.905c.099 0 .14-.153-.006-.156-.097.001-.148.156.006.156zm-12.316-6.919c.004-.239-.309-.064-.307.137.004.402.3.219.307-.137zm-.771-5.969c-.1 0-.142.155.006.159.098-.001.15-.159-.006-.159zm-2.392 7.814c-.01-.243-.212.005-.201.006s.028.012.051.027c.063.042.156.102.15-.033zm.527-12.666c-.296 0-.253.719-.064.765.315.077.358-.765.064-.765zm1.577 15.533c-.286 0-.305.976-.108 1.037.306.094.405-1.037.108-1.037zm-2.345.7c-.109.049-.107.095.005.138.109-.049.107-.094-.005-.138zm21.25.419c-.29 0-.279 1.194-.101 1.275.249.113.436-1.275.101-1.275zm-2.939 1.11c-.301-.06-.459.926-.319 1.036.231.183.628-.974.319-1.036zm-2.56.911c-.25 0-.188.447-.044.514.249.115.323-.514.044-.514z" fill-opacity=".3" class="B D"/></g></g></g><mask id="V" maskUnits="userSpaceOnUse" x="83" y="305" width="39" height="39" mask-type="alpha"><circle cx="102.5" cy="324.5" r="19.5" class="D"/><circle cx="102.5" cy="324.5" r="19.5" class="H"/></mask><g mask="url(#V)"><circle cx="102.5" cy="324.5" r="19.5" class="I"/><path d="M102.5 313.318c-4.569 0-8.273 3.704-8.273 8.273v.911c-.838.14-1.477.87-1.477 1.748v2.068c0 .894.662 1.634 1.522 1.755.305 2.926 2.136 5.399 4.682 6.608v2.739a11.97 11.97 0 0 0-11.227 11.944h29.546a11.97 11.97 0 0 0-11.228-11.944v-2.739a8.28 8.28 0 0 0 4.683-6.608c.86-.121 1.522-.861 1.522-1.755v-2.068c0-.878-.639-1.608-1.477-1.748v-.911c0-4.569-3.704-8.273-8.273-8.273z" class="B J"/><mask id="W" maskUnits="userSpaceOnUse" x="87" y="313" width="31" height="37" mask-type="alpha"><path d="M102.5 313.318c-4.569 0-8.273 3.704-8.273 8.273v.911c-.838.14-1.477.87-1.477 1.748v2.068c0 .894.662 1.634 1.522 1.755.305 2.926 2.136 5.399 4.682 6.608v2.739a11.97 11.97 0 0 0-11.227 11.944h29.546a11.97 11.97 0 0 0-11.228-11.944v-2.739a8.28 8.28 0 0 0 4.683-6.608c.86-.121 1.522-.861 1.522-1.755v-2.068c0-.878-.639-1.608-1.477-1.748v-.911c0-4.569-3.704-8.273-8.273-8.273z" class="B D"/></mask><g mask="url(#W)"><path d="M83 313.318h39v36.046H83z" class="N"/><path d="M94.227 327.205v1.181c0 4.569 3.704 8.273 8.273 8.273s8.273-3.704 8.273-8.273v-1.181c0 4.569-3.704 8.272-8.273 8.272s-8.273-3.704-8.273-8.272z" class="B C K"/></g><path d="M107.523 337.609c-.01 1.747-2.222 3.161-4.949 3.161-2.733 0-4.949-1.421-4.949-3.173-5.622.962-9.898 5.865-9.898 11.767h29.546c0-5.85-4.201-10.719-9.75-11.755z" class="B F"/><mask id="X" maskUnits="userSpaceOnUse" x="87" y="337" width="31" height="13" mask-type="alpha"><path d="M107.523 337.609c-.01 1.747-2.222 3.161-4.949 3.161-2.733 0-4.949-1.421-4.949-3.173-5.622.962-9.898 5.865-9.898 11.767h29.546c0-5.85-4.201-10.719-9.75-11.755z" class="B D"/></mask><g mask="url(#X)"><path d="M83 333.114h39v16.25H83z" class="F"/><g opacity=".6" class="C G"><ellipse cx="102.574" cy="337.818" rx="5.855" ry="3.976"/></g></g><path d="M107.174 349.364c.502-1.785.792-3.884.792-6.131 0-2.054-.242-3.984-.667-5.664 5.66.945 9.974 5.866 9.974 11.795h-10.099zm-9.2 0H87.727c0-5.982 4.392-10.939 10.128-11.819-.429 1.685-.674 3.624-.674 5.688 0 2.247.29 4.346.792 6.131z" class="B P"/><use xlink:href="#d" x="51" y="229" class="B M"/><path d="M107.08 337.25c.886 4.284-.739 12.114-.739 12.114h2.364l2.068-5.319-.887-1.329.887-.886-2.807-4.432s-.449-.14-.886-.148z" class="B M"/><rect x="97.773" y="328.829" width="9.455" height="3.841" rx="1.92" class="C E"/><rect x="98.068" y="329.125" width="8.864" height="3.25" rx="1.625" class="D"/><mask id="Y" maskUnits="userSpaceOnUse" x="98" y="329" width="9" height="4" mask-type="alpha"><rect x="98.068" y="329.125" width="8.864" height="3.25" rx="1.625" class="D"/></mask><g mask="url(#Y)" class="B F"><path d="M99.25 328.682h.591v1.772h1.329v-1.772h.591v1.772h1.33v-1.772h.591v1.772h1.329v-1.772h.591v1.772h1.31v.591h-1.31v1.773h-.591v-1.773h-1.329v1.773h-.591v-1.773h-1.33v1.773h-.591v-1.773h-1.329v1.773h-.591v-1.773h-1.182v-.591h1.182v-1.772z"/></g><path d="M100.727 327.204c0 .653.794 1.182 1.773 1.182s1.773-.529 1.773-1.182" class="B C G"/><circle cx="106.341" cy="324.545" r="1.773" class="D"/><circle cx="106.341" cy="324.545" r=".886" class="C L"/><path d="M96.615 325.055c.273-.562.887-.953 1.601-.953s1.324.389 1.598.947c.081.165-.034.301-.151.201-.362-.312-.876-.506-1.447-.506-.553 0-1.052.182-1.412.477-.132.107-.268-.002-.189-.166z" class="B C E"/><path d="M96.536 322.648c.578-.813 2.164-1.27 3.53-.934.158.039.318-.058.357-.217s-.058-.318-.216-.357c-1.586-.39-3.422.139-4.152 1.166-.094.133-.063.318.07.412s.317.063.412-.07zm11.928 0c-.579-.813-2.164-1.27-3.53-.934-.158.039-.318-.058-.357-.217s.058-.318.216-.357c1.586-.39 3.422.139 4.152 1.166.095.133.064.318-.069.412s-.318.063-.412-.07z" class="C E"/><mask id="Z" maskUnits="userSpaceOnUse" x="83" y="308" width="39" height="42" mask-type="alpha"><path d="M83 308h39v41.364H83z" class="D"/></mask><g mask="url(#Z)"><path d="M100.102 308c-.5 0-.567.714-.614 1.211l-.041.335c-.609-.369-1.014.141-1.378.6l-.022.028c.066-.21.229-2.298-.438-1.66-.123.118-.079.273-.035.423.024.083.047.165.043.238-.012.189-.074.358-.147.535-.118.284-.254.574-.439.816l-.105.146h0c-.047.068-.071.104-.101.109s-.072-.025-.155-.09l-.056-.044c-.358-.276-.528-.978-.511-1.407l.014-.174c.033-.333.077-.769-.367-.643s-.305.909-.223 1.357l.032.187c.056.397.094.804.027 1.208-.339-.347-.456.129-.531.44h0c-.023.093-.042.171-.062.208-.102.185-.272.304-.439.421h0l-.201.149c-.062-.218.04-.419.137-.608h0c.087-.168.168-.328.124-.482-.164-.572-.606.137-.756.378l-.029.046a3.95 3.95 0 0 0-.176.383h0c-.118.275-.255.596-.321.641-.151.102-1.124-.374-1.222-.464-.082-.076-.114-.214-.145-.352-.037-.164-.074-.328-.198-.385-.697-.325-.285.847-.148 1.089a3.59 3.59 0 0 1 .436 2.143.95.95 0 0 1-.364-.307c-.077-.106-.103-.243-.128-.375h0c-.027-.141-.053-.276-.139-.362-.486-.484-.543.425-.503.708.049.348.179.541.325.758.077.113.157.233.233.385.139.28.055.6-.029.92h0l-.093.428c-.507-.488-2.688-.081-2.127.665.172.229.364.065.561-.104.137-.117.276-.236.414-.229.603.034.921.783.882 1.307-.073-.28-.358-.556-.553-.213-.118.206.047.542.162.776h0l.041.084c-.134-.066-.794-.372-.923-.319-.508.209.192.613.375.694.624.276 1.017.579 1.211 1.328-.212-.068-.273-.155-.341-.252a.73.73 0 0 0-.184-.197c-.14-.103-.206-.105-.29-.107-.046-.002-.096-.003-.167-.022l-.011-.002c-.347-.09-.797-.207-1.188-.045-.291.121-.781.489-.872.835-.112.425.125.533.429.317.128-.091.219-.213.308-.33.161-.215.313-.417.665-.403.261.01.52.147.685.343a1.55 1.55 0 0 1 .169.274h0 0c.045.084.09.17.144.243.042.055.111.12.183.187.107.1.219.205.254.293.192.488-.128.927-.388 1.283l-.067.093c-.062-.082-.514-.259-.607-.277-.434-.083-.596.118-.325.519a.63.63 0 0 0 .19.16h0c.063.041.125.081.169.134.055.067.097.152.14.238a1.44 1.44 0 0 0 .129.227c.137.183.295.307.458.434l.248.204c-.048.032-.068.004-.088-.024s-.036-.051-.075-.036c-.029.011-.068.006-.11 0s-.09-.011-.129.002c-.068.022-.093.099-.116.167-.018.055-.034.104-.068.118-.282.112-.567-.085-.841-.276-.199-.138-.392-.272-.576-.282-.238-.013-.44.147-.325.446.064.169.301.275.481.355h0v.001l.115.053c.48.243.957.424 1.47.238a2.18 2.18 0 0 0 1.429.543c-.297.147-.591.33-.695.697-.035-.037-.081-.1-.133-.173h0c-.208-.288-.519-.72-.699-.191-.154.456.55 1.015.875 1.221-.377.111-.691.134-1.075.089-.043-.005-.097-.021-.153-.038-.208-.062-.453-.136-.325.297.166.565 1.121.349 1.497.239-.263.221-1.413 1.73-.415 1.386.142-.048.227-.198.316-.354.113-.198.233-.409.484-.439.366-.045.499.201.652.483a2.37 2.37 0 0 0 .217.351c.057.072.193.179.337.292.233.184.488.385.468.485-.013.067-.106.121-.208.179-.112.065-.236.136-.278.239-.094.229-.051.406.079.603.173.262.456.356.727.445l.247.087c.467.191.637.424.846.919-.369.017-1.421 1.087-.777 1.277.166.049.199-.038.237-.135.017-.043.035-.089.066-.126l.121-.228c.068-.177.142-.188.224-.033.009-.002.068.013.132.028h0l.156.033c.175.011.311-.079.447-.169l.183-.111c.046-.023.092-.037.137-.052.101-.032.197-.062.276-.182-.013.02.082-.371.084-.375.02-.046.056-.066.093-.087s.076-.044.101-.095c-1.292-1.342-2.136-3.12-2.288-5.091-.701-.236-1.207-.899-1.207-1.681v-1.92c0-.744.458-1.381 1.108-1.644.078.056.188.001.222-.124-.068-.222.487-4.115 1.92-5.152.534-.36 3.399-.387 6.251-.385 2.821.002 5.63.029 6.159.385 1.433 1.037 1.988 4.93 1.92 5.152.034.125.144.18.222.124.65.263 1.108.9 1.108 1.644v1.92c0 .782-.506 1.445-1.207 1.681-.125 1.617-.715 3.104-1.636 4.327l.082.37c.027.162.034.315.041.464.014.301.027.582.202.879.028.048.063.087.098.127.049.056.097.112.127.19.024.064.03.154.036.247.014.207.029.431.252.431.459 0 .203-.881.088-1.09l-.121-.209c-.152-.256-.241-.404-.231-.832.258.171 1.112.499 1.396.342.517-.286-.398-.575-.861-.722h0l-.238-.084c.094-.092.193-.167.292-.243.167-.127.333-.254.475-.458l.109-.165c.149-.236.309-.487.564-.5.058-.002.154.044.262.096.215.104.477.231.581.032.107-.205-.04-.279-.171-.344-.043-.021-.084-.042-.114-.066-.081-.066-.14-.083-.178-.095-.066-.019-.074-.022-.039-.22.16.172.412.063.479-.15.043-.136-.023-.216-.084-.288-.041-.051-.08-.098-.078-.157-.002.057.123-.756.103-.73.125-.165.563-.117.789-.093l.011.002c.315.034.32.045.449.297l.032.063c.13.253.472.764.547.094.018-.16-.128-.503-.214-.641-.048-.076-.145-.139-.237-.197h0c-.085-.054-.165-.105-.193-.161-.071-.14.012-.366.101-.61.087-.238.179-.492.141-.698.045.017.109.104.183.204.19.258.442.6.585.032.048-.189-.15-.483-.336-.758h0c-.219-.326-.423-.628-.183-.704.338-.107.681.329.775.598.029.082.041.202.053.327.017.179.035.367.105.464.449.621.504-.405.466-.676-.082-.595-.293-1.032-.83-1.257.168-.209.001-.38-.135-.52l-.053-.055c.082-.089.328-.111.592-.135.461-.042.977-.088.768-.504-.058-.116-.228-.162-.371-.201l-.141-.044a1.8 1.8 0 0 1-.925-.821c.07-.018.174-.018.288-.019.335-.003.761-.007.682-.424-.083-.44-.798-.305-1.075-.238.086-.051.199-.07.313-.09.22-.037.445-.075.49-.344.078-.471-.486-.455-.751-.355-.039-.313.296-.574.612-.819.184-.144.362-.282.454-.422.02-.031.043-.057.065-.081h0c.069-.078.126-.143.045-.308-.171-.346-.583.048-.788.245h-.001l-.067.064c.13-.241.491-1.242.436-1.496-.081-.373-.347-.386-.56-.083-.091.13-.138.392-.181.629h0l-.067.32c-.128-.097-.204-.104-.251-.109-.063-.007-.072-.008-.081-.215-.006-.151.119-.397.23-.614h0l.144-.309.045-.12h0c.078-.2.182-.469.094-.625-.262-.464-.513.173-.582.392-.073-.316.074-.587.226-.868.091-.168.184-.339.233-.526.08-.302.292-1.119-.076-1.264s-.371.313-.374.688c-.001.138-.002.265-.021.346l-.005.02c-.054.231-.137.585-.311.696-.026.016-.417.05-.436.028-.162-.189.061-.521.256-.81.113-.167.216-.32.229-.424.033-.255-.065-.417-.304-.432-.068-.005-.161.054-.238.102-.058.037-.107.068-.131.063-.157-.034-.053-.564.025-.961l.062-.364c.022-.296-.014-1.059-.514-.706l.024-.304v-.001h0l.084-.861c.008-.055.026-.108.043-.16h0c.049-.143.094-.275-.098-.397-.319-.201-.495.221-.568.468-.038.132-.041.286-.043.436-.004.338-.009.658-.423.667-.497.012-.389-.356-.277-.736.044-.148.088-.297.097-.426.019-.257-.149-.949-.482-.482-.077.109-.094.38-.109.629-.011.176-.021.341-.051.432-.082-.037-.054-.207-.024-.386s.061-.359-.01-.436c-.221-.241-.416-.052-.58.107-.062.06-.12.116-.173.143l-.011-.18-.026-.461a2.77 2.77 0 0 1 .034-.406h0c.04-.318.085-.676-.051-.827-.345-.382-.564.064-.665.373l-.038.126h0c-.065.23-.122.433-.44.465m-16.85 17.147c.001-.02-.018-.013-.051.015l.051-.015zM100.102 308l.062.003-.062-.003zm.062.003c.451.05.207.373.036.599l-.036-.599zm.036.599l-.104.149.104-.149zm-.104.149c-.081.151-.082.339-.082.523l.082-.523zm-.082.523l-.014.293.014-.293zm-.014.293c.398-.104.413-.178.47-.447l-.47.447zm.47-.447l.048-.21-.048.21zm.048-.21c.046-.176.177-.599.361-.671l-.361.671zm.361-.671c.595-.234.391.359.266.719l-.266-.719zm.266.719l-.06.189.06-.189zm-.06.189c.163-.008.333.093.503.192l-.503-.192zm.503.192c.247.146.494.291.715.102l-.715-.102zm.715.102c.087-.074.111-.203.135-.333l-.135.333zm.135-.333c.032-.174.065-.351.247-.406l-.247.406zm.247-.406c.252-.077.356.209.303.43l-.303-.43zm.303.43c.085-.008.381.02.451.081l-.451-.081zm.451.081c.076.066.084.174.091.27l-.091-.27zm.091.27c.007.083.013.158.061.192l-.061-.192zm.061.192c.298.207 1.229-.477 1.462-.686l-1.462.686zm1.462-.686c.035-.031.089-.093.155-.169l-.155.169zm1.119-.566c.055.145-.103.493-.227.765l.227-.765zm-.227.765h0 0zm0 0l-.126.305.126-.305zm-.126.305l-.018.067.018-.067zm-.018.067c-.079.289-.173.635-.103.918l.103-.918zm-.103.918c.141-.173.391-.491.494-.705l-.494.705zm.494-.705c.041-.086.058-.186.075-.288l-.075.288zm.075-.288c.026-.158.053-.319.175-.433l-.175.433zm.175-.433c.656-.616.539.384.478.902l-.478-.902zm.478.902h0 0zm0 0l-.023.252.023-.252zm-.023.252c.258-.106.546-.126.726.109l-.726-.109zm.726.109c.085.111.083.206.081.293l-.081-.293zm.081.293c-.002.085-.004.163.077.239l-.077-.239zm.077.239c.137-.135.106-.424.074-.726l-.074.726zm.074-.726c-.051-.482-.105-.998.512-.972l-.512.972zm.512-.972c.216.009.415.128.293.41l-.293-.41zm.293.41c-.038.088-.101.102-.164.115l.164-.115zm-.164.115c-.059.013-.118.026-.158.1l.158-.1zm-.158.1c-.107.201-.022.58.058.939l-.058-.939z" fill="#2e3257" class="B"/><mask id="a" maskUnits="userSpaceOnUse" x="88" y="308" width="28" height="27" mask-type="alpha"><path d="M100.102 308c-.5 0-.567.714-.614 1.211l-.041.335c-.609-.369-1.014.141-1.378.6l-.022.028c.066-.21.229-2.298-.438-1.66-.123.118-.079.273-.035.423.024.083.047.165.043.238-.012.189-.074.358-.147.535-.118.284-.254.574-.439.816l-.105.146h0c-.047.068-.071.104-.101.109s-.072-.025-.155-.09l-.056-.044c-.358-.276-.528-.978-.511-1.407l.014-.174c.033-.333.077-.769-.367-.643s-.305.909-.223 1.357l.032.187c.056.397.094.804.027 1.208-.339-.347-.456.129-.531.44h0c-.023.093-.042.171-.062.208-.102.185-.272.304-.439.421h0l-.201.149c-.062-.218.04-.419.137-.608h0c.087-.168.168-.328.124-.482-.164-.572-.606.137-.756.378l-.029.046a3.95 3.95 0 0 0-.176.383h0c-.118.275-.255.596-.321.641-.151.102-1.124-.374-1.222-.464-.082-.076-.114-.214-.145-.352-.037-.164-.074-.328-.198-.385-.697-.325-.285.847-.148 1.089a3.59 3.59 0 0 1 .436 2.143.95.95 0 0 1-.364-.307c-.077-.106-.103-.243-.128-.375h0c-.027-.141-.053-.276-.139-.362-.486-.484-.543.425-.503.708.049.348.179.541.325.758.077.113.157.233.233.385.139.28.055.6-.029.92h0l-.093.428c-.507-.488-2.688-.081-2.127.665.172.229.364.065.561-.104.137-.117.276-.236.414-.229.603.034.921.783.882 1.307-.073-.28-.358-.556-.553-.213-.118.206.047.542.162.776h0l.041.084c-.134-.066-.794-.372-.923-.319-.508.209.192.613.375.694.624.276 1.017.579 1.211 1.328-.212-.068-.273-.155-.341-.252a.73.73 0 0 0-.184-.197c-.14-.103-.206-.105-.29-.107-.046-.002-.096-.003-.167-.022l-.011-.002c-.347-.09-.797-.207-1.188-.045-.291.121-.781.489-.872.835-.112.425.125.533.429.317.128-.091.219-.213.308-.33.161-.215.313-.417.665-.403.261.01.52.147.685.343a1.55 1.55 0 0 1 .169.274h0 0c.045.084.09.17.144.243.042.055.111.12.183.187.107.1.219.205.254.293.192.488-.128.927-.388 1.283l-.067.093c-.062-.082-.514-.259-.607-.277-.434-.083-.596.118-.325.519a.63.63 0 0 0 .19.16h0c.063.041.125.081.169.134.055.067.097.152.14.238a1.44 1.44 0 0 0 .129.227c.137.183.295.307.458.434l.248.204c-.048.032-.068.004-.088-.024s-.036-.051-.075-.036c-.029.011-.068.006-.11 0s-.09-.011-.129.002c-.068.022-.093.099-.116.167-.018.055-.034.104-.068.118-.282.112-.567-.085-.841-.276-.199-.138-.392-.272-.576-.282-.238-.013-.44.147-.325.446.064.169.301.275.481.355h0v.001l.115.053c.48.243.957.424 1.47.238a2.18 2.18 0 0 0 1.429.543c-.297.147-.591.33-.695.697-.035-.037-.081-.1-.133-.173h0c-.208-.288-.519-.72-.699-.191-.154.456.55 1.015.875 1.221-.377.111-.691.134-1.075.089-.043-.005-.097-.021-.153-.038-.208-.062-.453-.136-.325.297.166.565 1.121.349 1.497.239-.263.221-1.413 1.73-.415 1.386.142-.048.227-.198.316-.354.113-.198.233-.409.484-.439.366-.045.499.201.652.483a2.37 2.37 0 0 0 .217.351c.057.072.193.179.337.292.233.184.488.385.468.485-.013.067-.106.121-.208.179-.112.065-.236.136-.278.239-.094.229-.051.406.079.603.173.262.456.356.727.445l.247.087c.467.191.637.424.846.919-.369.017-1.421 1.087-.777 1.277.166.049.199-.038.237-.135.017-.043.035-.089.066-.126l.121-.228c.068-.177.142-.188.224-.033.009-.002.068.013.132.028h0l.156.033c.175.011.311-.079.447-.169l.183-.111c.046-.023.092-.037.137-.052.101-.032.197-.062.276-.182-.013.02.082-.371.084-.375.02-.046.056-.066.093-.087s.076-.044.101-.095c-1.292-1.342-2.136-3.12-2.288-5.091-.701-.236-1.207-.899-1.207-1.681v-1.92c0-.744.458-1.381 1.108-1.644.078.056.188.001.222-.124-.068-.222.487-4.115 1.92-5.152.534-.36 3.399-.387 6.251-.385 2.821.002 5.63.029 6.159.385 1.433 1.037 1.988 4.93 1.92 5.152.034.125.144.18.222.124.65.263 1.108.9 1.108 1.644v1.92c0 .782-.506 1.445-1.207 1.681-.125 1.617-.715 3.104-1.636 4.327l.082.37c.027.162.034.315.041.464.014.301.027.582.202.879.028.048.063.087.098.127.049.056.097.112.127.19.024.064.03.154.036.247.014.207.029.431.252.431.459 0 .203-.881.088-1.09l-.121-.209c-.152-.256-.241-.404-.231-.832.258.171 1.112.499 1.396.342.517-.286-.398-.575-.861-.722h0l-.238-.084c.094-.092.193-.167.292-.243.167-.127.333-.254.475-.458l.109-.165c.149-.236.309-.487.564-.5.058-.002.154.044.262.096.215.104.477.231.581.032.107-.205-.04-.279-.171-.344-.043-.021-.084-.042-.114-.066-.081-.066-.14-.083-.178-.095-.066-.019-.074-.022-.039-.22.16.172.412.063.479-.15.043-.136-.023-.216-.084-.288-.041-.051-.08-.098-.078-.157-.002.057.123-.756.103-.73.125-.165.563-.117.789-.093l.011.002c.315.034.32.045.449.297l.032.063c.13.253.472.764.547.094.018-.16-.128-.503-.214-.641-.048-.076-.145-.139-.237-.197h0c-.085-.054-.165-.105-.193-.161-.071-.14.012-.366.101-.61.087-.238.179-.492.141-.698.045.017.109.104.183.204.19.258.442.6.585.032.048-.189-.15-.483-.336-.758h0c-.219-.326-.423-.628-.183-.704.338-.107.681.329.775.598.029.082.041.202.053.327.017.179.035.367.105.464.449.621.504-.405.466-.676-.082-.595-.293-1.032-.83-1.257.168-.209.001-.38-.135-.52l-.053-.055c.082-.089.328-.111.592-.135.461-.042.977-.088.768-.504-.058-.116-.228-.162-.371-.201l-.141-.044a1.8 1.8 0 0 1-.925-.821c.07-.018.174-.018.288-.019.335-.003.761-.007.682-.424-.083-.44-.798-.305-1.075-.238.086-.051.199-.07.313-.09.22-.037.445-.075.49-.344.078-.471-.486-.455-.751-.355-.039-.313.296-.574.612-.819.184-.144.362-.282.454-.422.02-.031.043-.057.065-.081h0c.069-.078.126-.143.045-.308-.171-.346-.583.048-.788.245h-.001l-.067.064c.13-.241.491-1.242.436-1.496-.081-.373-.347-.386-.56-.083-.091.13-.138.392-.181.629h0l-.067.32c-.128-.097-.204-.104-.251-.109-.063-.007-.072-.008-.081-.215-.006-.151.119-.397.23-.614h0l.144-.309.045-.12h0c.078-.2.182-.469.094-.625-.262-.464-.513.173-.582.392-.073-.316.074-.587.226-.868.091-.168.184-.339.233-.526.08-.302.292-1.119-.076-1.264s-.371.313-.374.688c-.001.138-.002.265-.021.346l-.005.02c-.054.231-.137.585-.311.696-.026.016-.417.05-.436.028-.162-.189.061-.521.256-.81.113-.167.216-.32.229-.424.033-.255-.065-.417-.304-.432-.068-.005-.161.054-.238.102-.058.037-.107.068-.131.063-.157-.034-.053-.564.025-.961l.062-.364c.022-.296-.014-1.059-.514-.706l.024-.304v-.001h0l.084-.861c.008-.055.026-.108.043-.16h0c.049-.143.094-.275-.098-.397-.319-.201-.495.221-.568.468-.038.132-.041.286-.043.436-.004.338-.009.658-.423.667-.497.012-.389-.356-.277-.736.044-.148.088-.297.097-.426.019-.257-.149-.949-.482-.482-.077.109-.094.38-.109.629-.011.176-.021.341-.051.432-.082-.037-.054-.207-.024-.386s.061-.359-.01-.436c-.221-.241-.416-.052-.58.107-.062.06-.12.116-.173.143l-.011-.18-.026-.461a2.77 2.77 0 0 1 .034-.406h0c.04-.318.085-.676-.051-.827-.345-.382-.564.064-.665.373l-.038.126h0c-.065.23-.122.433-.44.465m-16.85 17.147c.001-.02-.018-.013-.051.015l.051-.015zM100.102 308l.062.003-.062-.003zm.062.003c.451.05.207.373.036.599l-.036-.599zm.036.599l-.104.149.104-.149zm-.104.149c-.081.151-.082.339-.082.523l.082-.523zm-.082.523l-.014.293.014-.293zm-.014.293c.398-.104.413-.178.47-.447l-.47.447zm.47-.447l.048-.21-.048.21zm.048-.21c.046-.176.177-.599.361-.671l-.361.671zm.361-.671c.595-.234.391.359.266.719l-.266-.719zm.266.719l-.06.189.06-.189zm-.06.189c.163-.008.333.093.503.192l-.503-.192zm.503.192c.247.146.494.291.715.102l-.715-.102zm.715.102c.087-.074.111-.203.135-.333l-.135.333zm.135-.333c.032-.174.065-.351.247-.406l-.247.406zm.247-.406c.252-.077.356.209.303.43l-.303-.43zm.303.43c.085-.008.381.02.451.081l-.451-.081zm.451.081c.076.066.084.174.091.27l-.091-.27zm.091.27c.007.083.013.158.061.192l-.061-.192zm.061.192c.298.207 1.229-.477 1.462-.686l-1.462.686zm1.462-.686c.035-.031.089-.093.155-.169l-.155.169zm1.119-.566c.055.145-.103.493-.227.765l.227-.765zm-.227.765h0 0zm0 0l-.126.305.126-.305zm-.126.305l-.018.067.018-.067zm-.018.067c-.079.289-.173.635-.103.918l.103-.918zm-.103.918c.141-.173.391-.491.494-.705l-.494.705zm.494-.705c.041-.086.058-.186.075-.288l-.075.288zm.075-.288c.026-.158.053-.319.175-.433l-.175.433zm.175-.433c.656-.616.539.384.478.902l-.478-.902zm.478.902h0 0zm0 0l-.023.252.023-.252zm-.023.252c.258-.106.546-.126.726.109l-.726-.109zm.726.109c.085.111.083.206.081.293l-.081-.293zm.081.293c-.002.085-.004.163.077.239l-.077-.239zm.077.239c.137-.135.106-.424.074-.726l-.074.726zm.074-.726c-.051-.482-.105-.998.512-.972l-.512.972zm.512-.972c.216.009.415.128.293.41l-.293-.41zm.293.41c-.038.088-.101.102-.164.115l.164-.115zm-.164.115c-.059.013-.118.026-.158.1l.158-.1zm-.158.1c-.107.201-.022.58.058.939l-.058-.939z" class="B D"/></mask><g mask="url(#a)"><path fill="#2c1b18" d="M83 308h39v41.364H83z"/></g></g></g><path d="M35 269.819v4.327c0 .595.45 1.082 1 1.082h3l3.29 3.558c.63.682 1.71.195 1.71-.768v-12.082c0-.963-1.08-1.45-1.71-.768L39 268.737h-3c-.55 0-1 .487-1 1.082zm13.5 2.163c0-1.914-1.02-3.558-2.5-4.359v8.708c1.48-.79 2.5-2.434 2.5-4.349zm-2.5-8.166v.216c0 .411.25.768.6.919 2.58 1.114 4.4 3.851 4.4 7.031s-1.82 5.917-4.4 7.031a.99.99 0 0 0-.6.92v.216c0 .682.63 1.158 1.21.92 3.39-1.396 5.79-4.933 5.79-9.087s-2.4-7.691-5.79-9.086c-.58-.249-1.21.238-1.21.92zM35 386.819v4.327c0 .595.45 1.082 1 1.082h3l3.29 3.558c.63.682 1.71.195 1.71-.768v-12.082c0-.963-1.08-1.45-1.71-.768L39 385.737h-3c-.55 0-1 .487-1 1.082zm13.5 2.163c0-1.914-1.02-3.558-2.5-4.359v8.708c1.48-.79 2.5-2.434 2.5-4.349zm-2.5-8.166v.216c0 .411.25.768.6.919 2.58 1.114 4.4 3.851 4.4 7.031s-1.82 5.917-4.4 7.031a.99.99 0 0 0-.6.92v.216c0 .682.63 1.158 1.21.92 3.39-1.396 5.79-4.933 5.79-9.087s-2.4-7.691-5.79-9.086c-.58-.249-1.21.238-1.21.92z" fill="#dadada"/><path d="M325 106.634c1.1 0 2-.973 2-2.163V91.49c0-1.19-.9-2.163-2-2.163s-2 .973-2 2.163v12.981c0 1.19.9 2.163 2 2.163zm-6 0c1.1 0 2-.973 2-2.163v-4.327c0-1.19-.9-2.164-2-2.164s-2 .974-2 2.164v4.327c0 1.19.9 2.163 2 2.163zm10-9.735v7.572c0 1.19.9 2.163 2 2.163s2-.973 2-2.163v-7.572c0-1.19-.9-2.163-2-2.163s-2 .974-2 2.163z" fill="#2fa910"/><defs><filter id="b" x="42.636" y="143.333" width="16.727" height="8.143" filterUnits="userSpaceOnUse" color-interpolation-filters="sRGB"><feFlood flood-opacity="0" result="A"/><feColorMatrix in="SourceAlpha" values="0 0 0 0 0 0 0 0 0 0 0 0 0 0 0 0 0 0 127 0"/><feOffset dy="2"/><feColorMatrix values="0 0 0 0 0 0 0 0 0 0 0 0 0 0 0 0 0 0 0.1 0"/><feBlend in2="A"/><feBlend in="SourceGraphic"/></filter><path id="c" d="M322.08 152.007v-6.058c0-1.795 1.34-3.245 3-3.245 1.54 0 2.79 1.255 2.96 2.867l-5.96 6.436zm-3.08.433c.41 0 .77.324.83.768.05.346.12.692.22 1.006l-1.27 1.373a7.66 7.66 0 0 1-.63-2.098c-.07-.552.33-1.049.85-1.049zm14.37-8.048a1.14 1.14 0 0 1 0 1.525l-5.29 5.733v.465c0 1.287-.6 2.51-1.63 3.148a2.52 2.52 0 0 1-2.02.335l-1.66 1.796c.71.357 1.5.562 2.31.562 2.54 0 4.88-1.914 5.25-4.748.06-.444.42-.768.83-.768.52 0 .92.497.85 1.049-.46 3.202-2.96 5.733-5.93 6.22v2.466c0 .595-.45 1.082-1 1.082s-1-.487-1-1.082v-2.466c-.91-.141-1.77-.487-2.55-.974l-3.49 3.775a.94.94 0 0 1-1.41 0 1.14 1.14 0 0 1 0-1.525l15.33-16.593a.94.94 0 0 1 1.41 0z"/><path id="d" d="M46.921 108.25c-.886 4.284.739 12.114.739 12.114h-2.364l-2.068-5.319.886-1.329-.886-.886 2.807-4.432s.449-.14.886-.148z"/></defs></svg>