<svg width="385" height="314" viewBox="0 0 385 314" fill="none" xmlns="http://www.w3.org/2000/svg">
<g filter="url(#filter0_d_134_1621)">
<rect x="133.073" y="239.383" width="119.081" height="69.6166" rx="22.5949" fill="#212121"/>
</g>
<rect x="138.569" y="244.269" width="109.31" height="59.8459" rx="21.9842" fill="#333333"/>
<rect x="141.623" y="229.002" width="102.593" height="71.4486" rx="17.0988" fill="#212121"/>
<g filter="url(#filter1_d_134_1621)">
<rect x="3" width="379.227" height="262.589" rx="29.6313" fill="#212121"/>
</g>
<rect width="6.10672" height="6.10672" rx="3.05336" transform="matrix(1 0 0 -1 189.866 10.9921)" fill="#4D4C7D"/>
<rect width="4.88538" height="4.88538" rx="2.44269" transform="matrix(1 0 0 -1 190.476 10.3814)" fill="#555555"/>
<rect width="3.66403" height="3.66403" rx="1.83202" transform="matrix(1 0 0 -1 191.087 9.77075)" fill="#333333"/>
<path d="M9.10669 51.2965C9.10669 31.7351 24.9643 15.8775 44.5257 15.8775H341.312C360.874 15.8775 376.731 31.7351 376.731 51.2964V227.673C376.731 243.921 363.559 257.093 347.311 257.093H38.5267C22.2784 257.093 9.10669 243.921 9.10669 227.673V51.2965Z" fill="#333333"/>
<mask id="mask0_134_1621" style="mask-type:alpha" maskUnits="userSpaceOnUse" x="15" y="23" width="356" height="229">
<path d="M15.2135 53.4475C15.2135 37.0826 28.4799 23.8162 44.8448 23.8162H340.993C357.358 23.8162 370.625 37.0826 370.625 53.4475V225.967C370.625 240.122 359.15 251.597 344.995 251.597H40.8435C26.6884 251.597 15.2135 240.122 15.2135 225.967V53.4475Z" fill="#2E0249"/>
</mask>
<g mask="url(#mask0_134_1621)">
<g filter="url(#filter2_d_134_1621)">
<path d="M15 -18H358.733C367.165 -18 374 -11.1649 374 -2.73323V236.733C374 245.165 367.165 252 358.733 252H15V-18Z" fill="#DBDFFD"/>
<path d="M15.2135 -1.832C15.2135 -10.2636 22.0486 -17.0988 30.4803 -17.0988H64.0672V251.597H30.4803C22.0486 251.597 15.2135 244.762 15.2135 236.33V-1.832Z" fill="#646FD4"/>
</g>
<rect x="75.67" y="86.1047" width="201.522" height="34.8083" rx="6.10672" fill="#F9F9F9"/>
<rect x="289.405" y="23.8162" width="83.662" height="227.781" fill="#F9F9F9"/>
<rect width="32.9763" height="4.2747" rx="2.13735" transform="matrix(1 0 0 -1 115.974 108.7)" fill="#EEEEEE"/>
<rect width="32.9763" height="4.2747" rx="2.13735" transform="matrix(1 0 0 -1 115.974 95.2648)" fill="#EEEEEE"/>
<rect width="24.4269" height="4.2747" rx="2.13735" transform="matrix(1 0 0 -1 115.974 115.417)" fill="#EEEEEE"/>
<rect width="58.0138" height="4.2747" rx="2.13735" transform="matrix(1 0 0 -1 115.974 101.982)" fill="#EEEEEE"/>
<circle opacity="0.55" cx="93.0741" cy="103.509" r="11.9081" fill="#827397"/>
<rect x="75.67" y="39.6937" width="201.522" height="34.8083" rx="6.10672" fill="#F9F9F9"/>
<rect width="32.9763" height="4.2747" rx="2.13735" transform="matrix(1 0 0 -1 115.974 62.2885)" fill="#EEEEEE"/>
<rect width="32.9763" height="4.2747" rx="2.13735" transform="matrix(1 0 0 -1 115.974 48.8538)" fill="#EEEEEE"/>
<rect width="24.4269" height="4.2747" rx="2.13735" transform="matrix(1 0 0 -1 115.974 69.0059)" fill="#EEEEEE"/>
<rect width="58.0138" height="4.2747" rx="2.13735" transform="matrix(1 0 0 -1 115.974 55.5711)" fill="#EEEEEE"/>
<circle opacity="0.55" cx="94.2955" cy="57.0978" r="11.9081" fill="#827397"/>
<rect x="26.8162" y="30.5336" width="24.4269" height="24.4269" rx="3.66403" fill="#F9F9F9"/>
<rect x="26.8162" y="73.8913" width="24.4269" height="24.4269" rx="3.66403" fill="#F9F9F9"/>
<rect x="26.8162" y="117.249" width="24.4269" height="24.4269" rx="3.66403" fill="#F9F9F9"/>
<rect x="26.8162" y="160.607" width="24.4269" height="24.4269" rx="3.66403" fill="#F9F9F9"/>
<rect x="26.8162" y="203.964" width="24.4269" height="24.4269" rx="3.66403" fill="#F9F9F9"/>
<rect x="75.67" y="133.126" width="201.522" height="34.8083" rx="6.10672" fill="#F9F9F9"/>
<rect width="32.9763" height="4.2747" rx="2.13735" transform="matrix(1 0 0 -1 115.974 155.721)" fill="#EEEEEE"/>
<rect width="32.9763" height="4.2747" rx="2.13735" transform="matrix(1 0 0 -1 115.974 142.287)" fill="#EEEEEE"/>
<rect width="24.4269" height="4.2747" rx="2.13735" transform="matrix(1 0 0 -1 115.974 162.439)" fill="#EEEEEE"/>
<rect width="58.0138" height="4.2747" rx="2.13735" transform="matrix(1 0 0 -1 115.974 149.004)" fill="#EEEEEE"/>
<circle opacity="0.55" cx="93.0741" cy="149.92" r="11.9081" fill="#827397"/>
<rect x="75.67" y="218.621" width="201.522" height="20.7628" rx="4.88538" fill="#B9BEE2"/>
<path d="M89.5731 231.949V228.519H88.772V227.982H89.5731V226.831H90.2032V227.982H91.1521V228.519H90.2032V231.949H89.5731ZM93.5508 233.551C93.4004 233.551 93.2423 233.546 93.0764 233.535C92.9156 233.53 92.7601 233.522 92.6097 233.512C92.4645 233.507 92.3349 233.496 92.2208 233.481V232.975C92.3919 232.981 92.5475 232.986 92.6875 232.991C92.8327 233.001 92.9649 233.006 93.0841 233.006C93.2086 233.012 93.3201 233.014 93.4186 233.014C93.7193 233.014 93.9553 232.991 94.1264 232.944C94.3027 232.898 94.4323 232.82 94.5153 232.711C94.5983 232.607 94.6501 232.467 94.6709 232.291C94.6968 232.115 94.7097 231.899 94.7097 231.645V231.412H94.6631C94.6216 231.516 94.5516 231.612 94.4531 231.7C94.3546 231.788 94.2197 231.858 94.0486 231.91C93.8775 231.962 93.6545 231.988 93.3797 231.988C93.0893 231.988 92.8534 231.959 92.6719 231.902C92.4956 231.84 92.3608 231.746 92.2674 231.622C92.1741 231.492 92.1093 231.332 92.073 231.14C92.0419 230.948 92.0263 230.72 92.0263 230.455V227.982H92.6641V230.23C92.6641 230.499 92.6745 230.715 92.6952 230.875C92.716 231.036 92.7601 231.158 92.8275 231.241C92.9001 231.319 93.0012 231.37 93.1308 231.396C93.2604 231.422 93.429 231.435 93.6364 231.435C93.8956 231.435 94.0979 231.404 94.2431 231.342C94.3883 231.275 94.492 231.179 94.5542 231.054C94.6216 230.93 94.6631 230.782 94.6786 230.611C94.6994 230.434 94.7097 230.237 94.7097 230.02V227.982H95.3398V231.459C95.3398 231.837 95.319 232.159 95.2775 232.423C95.2412 232.693 95.1609 232.908 95.0364 233.069C94.9172 233.235 94.7383 233.356 94.4997 233.434C94.2612 233.512 93.9449 233.551 93.5508 233.551ZM96.6825 233.496V227.982H97.2581L97.2814 228.55H97.3281C97.4059 228.373 97.5122 228.239 97.647 228.145C97.7818 228.052 97.9348 227.992 98.1059 227.966C98.277 227.935 98.4533 227.92 98.6348 227.92C98.92 227.92 99.1559 227.951 99.3426 228.013C99.5345 228.075 99.6848 228.184 99.7937 228.34C99.9026 228.49 99.9804 228.697 100.027 228.962C100.074 229.226 100.097 229.558 100.097 229.957C100.097 230.362 100.074 230.699 100.027 230.969C99.9856 231.233 99.9104 231.44 99.8015 231.591C99.6926 231.741 99.5448 231.85 99.3582 231.918C99.1715 231.98 98.9356 232.011 98.6504 232.011C98.4378 232.011 98.2485 231.993 98.0826 231.956C97.9166 231.925 97.7714 231.868 97.647 231.785C97.5277 231.702 97.4318 231.588 97.3592 231.443H97.3203V233.496H96.6825ZM98.3859 231.443C98.6244 231.443 98.8137 231.427 98.9537 231.396C99.0989 231.365 99.2078 231.3 99.2804 231.202C99.353 231.098 99.4022 230.95 99.4282 230.759C99.4541 230.562 99.4671 230.297 99.4671 229.965C99.4671 229.633 99.4541 229.369 99.4282 229.172C99.4022 228.975 99.353 228.827 99.2804 228.729C99.2078 228.63 99.0989 228.565 98.9537 228.534C98.8137 228.498 98.6244 228.48 98.3859 228.48C98.1215 228.48 97.9114 228.519 97.7559 228.596C97.6055 228.669 97.4966 228.786 97.4292 228.946C97.3774 229.071 97.3462 229.219 97.3359 229.39C97.3255 229.561 97.3203 229.753 97.3203 229.965C97.3203 230.183 97.3255 230.375 97.3359 230.541C97.3462 230.702 97.3722 230.836 97.4136 230.945C97.4862 231.127 97.6003 231.256 97.7559 231.334C97.9114 231.407 98.1215 231.443 98.3859 231.443ZM102.888 232.011C102.567 232.011 102.297 231.99 102.079 231.949C101.867 231.907 101.696 231.84 101.566 231.746C101.436 231.648 101.338 231.521 101.27 231.365C101.203 231.205 101.159 231.01 101.138 230.782C101.117 230.554 101.107 230.284 101.107 229.973C101.107 229.605 101.123 229.291 101.154 229.032C101.185 228.767 101.255 228.555 101.364 228.394C101.478 228.228 101.654 228.109 101.893 228.036C102.131 227.958 102.453 227.92 102.857 227.92C103.163 227.92 103.412 227.943 103.604 227.99C103.801 228.036 103.956 228.109 104.07 228.207C104.185 228.306 104.267 228.438 104.319 228.604C104.376 228.765 104.413 228.959 104.428 229.187C104.444 229.41 104.452 229.67 104.452 229.965V230.175H101.737C101.737 230.445 101.75 230.665 101.776 230.836C101.802 231.007 101.854 231.14 101.931 231.233C102.014 231.326 102.141 231.391 102.313 231.427C102.489 231.464 102.727 231.482 103.028 231.482C103.153 231.482 103.29 231.479 103.44 231.474C103.591 231.464 103.741 231.451 103.892 231.435C104.042 231.42 104.177 231.404 104.296 231.389V231.902C104.187 231.923 104.052 231.941 103.892 231.956C103.736 231.972 103.57 231.985 103.394 231.995C103.223 232.006 103.054 232.011 102.888 232.011ZM103.837 229.856V229.646C103.837 229.377 103.822 229.164 103.79 229.009C103.759 228.848 103.705 228.729 103.627 228.651C103.554 228.568 103.453 228.513 103.324 228.487C103.194 228.461 103.033 228.449 102.842 228.449C102.593 228.449 102.396 228.467 102.25 228.503C102.105 228.534 101.996 228.594 101.924 228.682C101.851 228.77 101.802 228.897 101.776 229.063C101.75 229.229 101.737 229.449 101.737 229.724H103.985L103.837 229.856ZM107.446 231.949V227.982H108.021L108.045 228.55H108.091C108.138 228.425 108.208 228.316 108.301 228.223C108.4 228.13 108.527 228.057 108.682 228.005C108.843 227.948 109.048 227.92 109.297 227.92C109.649 227.92 109.911 227.971 110.082 228.075C110.254 228.174 110.373 228.332 110.44 228.55H110.487C110.539 228.425 110.614 228.316 110.712 228.223C110.811 228.13 110.943 228.057 111.109 228.005C111.275 227.948 111.48 227.92 111.724 227.92C112.081 227.92 112.348 227.974 112.525 228.083C112.701 228.192 112.818 228.36 112.875 228.589C112.932 228.817 112.96 229.11 112.96 229.467V231.949H112.33V229.685C112.33 229.416 112.32 229.203 112.299 229.047C112.278 228.887 112.24 228.767 112.182 228.69C112.125 228.607 112.04 228.552 111.926 228.526C111.812 228.5 111.659 228.487 111.467 228.487C111.244 228.487 111.068 228.519 110.938 228.581C110.808 228.638 110.712 228.726 110.65 228.845C110.593 228.964 110.557 229.112 110.541 229.289C110.526 229.465 110.518 229.67 110.518 229.903V231.949H109.888V229.685C109.888 229.416 109.878 229.203 109.857 229.047C109.836 228.887 109.797 228.767 109.74 228.69C109.683 228.607 109.598 228.552 109.484 228.526C109.369 228.5 109.216 228.487 109.025 228.487C108.802 228.487 108.625 228.521 108.496 228.589C108.366 228.651 108.273 228.741 108.216 228.861C108.159 228.98 108.122 229.128 108.107 229.304C108.091 229.48 108.083 229.68 108.083 229.903V231.949H107.446ZM115.922 232.011C115.601 232.011 115.331 231.99 115.114 231.949C114.901 231.907 114.73 231.84 114.6 231.746C114.471 231.648 114.372 231.521 114.305 231.365C114.237 231.205 114.193 231.01 114.172 230.782C114.152 230.554 114.141 230.284 114.141 229.973C114.141 229.605 114.157 229.291 114.188 229.032C114.219 228.767 114.289 228.555 114.398 228.394C114.512 228.228 114.688 228.109 114.927 228.036C115.165 227.958 115.487 227.92 115.891 227.92C116.197 227.92 116.446 227.943 116.638 227.99C116.835 228.036 116.991 228.109 117.105 228.207C117.219 228.306 117.302 228.438 117.354 228.604C117.411 228.765 117.447 228.959 117.463 229.187C117.478 229.41 117.486 229.67 117.486 229.965V230.175H114.771C114.771 230.445 114.784 230.665 114.81 230.836C114.836 231.007 114.888 231.14 114.966 231.233C115.049 231.326 115.176 231.391 115.347 231.427C115.523 231.464 115.762 231.482 116.062 231.482C116.187 231.482 116.324 231.479 116.475 231.474C116.625 231.464 116.775 231.451 116.926 231.435C117.076 231.42 117.211 231.404 117.33 231.389V231.902C117.221 231.923 117.087 231.941 116.926 231.956C116.77 231.972 116.604 231.985 116.428 231.995C116.257 232.006 116.088 232.011 115.922 232.011ZM116.871 229.856V229.646C116.871 229.377 116.856 229.164 116.825 229.009C116.794 228.848 116.739 228.729 116.661 228.651C116.589 228.568 116.488 228.513 116.358 228.487C116.228 228.461 116.068 228.449 115.876 228.449C115.627 228.449 115.43 228.467 115.285 228.503C115.139 228.534 115.031 228.594 114.958 228.682C114.885 228.77 114.836 228.897 114.81 229.063C114.784 229.229 114.771 229.449 114.771 229.724H117.019L116.871 229.856ZM119.972 232.011C119.821 232.011 119.661 232.006 119.489 231.995C119.318 231.985 119.15 231.972 118.984 231.956C118.818 231.946 118.668 231.93 118.533 231.91V231.396C118.657 231.407 118.776 231.417 118.891 231.427C119.01 231.438 119.126 231.448 119.241 231.459C119.355 231.464 119.469 231.469 119.583 231.474C119.697 231.474 119.813 231.474 119.933 231.474C120.202 231.474 120.397 231.456 120.516 231.42C120.641 231.378 120.721 231.311 120.757 231.217C120.799 231.124 120.819 231.002 120.819 230.852C120.819 230.681 120.804 230.556 120.773 230.479C120.747 230.401 120.698 230.352 120.625 230.331C120.558 230.305 120.454 230.284 120.314 230.269L119.287 230.152C119.043 230.126 118.859 230.074 118.735 229.996C118.61 229.913 118.525 229.797 118.478 229.646C118.432 229.496 118.408 229.307 118.408 229.079C118.408 228.819 118.445 228.612 118.517 228.456C118.59 228.301 118.693 228.184 118.828 228.106C118.963 228.028 119.126 227.979 119.318 227.958C119.51 227.933 119.725 227.92 119.964 227.92C120.099 227.92 120.241 227.925 120.392 227.935C120.542 227.946 120.69 227.958 120.835 227.974C120.98 227.99 121.105 228.008 121.208 228.028V228.542C121.074 228.521 120.936 228.506 120.796 228.495C120.661 228.48 120.521 228.469 120.376 228.464C120.236 228.459 120.094 228.456 119.948 228.456C119.751 228.456 119.583 228.467 119.443 228.487C119.303 228.508 119.196 228.56 119.124 228.643C119.056 228.726 119.023 228.863 119.023 229.055C119.023 229.206 119.033 229.32 119.054 229.397C119.08 229.47 119.129 229.522 119.202 229.553C119.274 229.579 119.375 229.6 119.505 229.615L120.578 229.732C120.791 229.753 120.957 229.794 121.076 229.856C121.201 229.913 121.289 230.017 121.341 230.167C121.398 230.318 121.426 230.543 121.426 230.844C121.426 231.093 121.395 231.295 121.333 231.451C121.276 231.601 121.185 231.718 121.061 231.801C120.936 231.884 120.783 231.938 120.602 231.964C120.42 231.995 120.21 232.011 119.972 232.011ZM123.853 232.011C123.703 232.011 123.542 232.006 123.371 231.995C123.2 231.985 123.031 231.972 122.865 231.956C122.699 231.946 122.549 231.93 122.414 231.91V231.396C122.539 231.407 122.658 231.417 122.772 231.427C122.891 231.438 123.008 231.448 123.122 231.459C123.236 231.464 123.35 231.469 123.464 231.474C123.578 231.474 123.695 231.474 123.814 231.474C124.084 231.474 124.278 231.456 124.398 231.42C124.522 231.378 124.602 231.311 124.639 231.217C124.68 231.124 124.701 231.002 124.701 230.852C124.701 230.681 124.685 230.556 124.654 230.479C124.628 230.401 124.579 230.352 124.506 230.331C124.439 230.305 124.335 230.284 124.195 230.269L123.169 230.152C122.925 230.126 122.741 230.074 122.616 229.996C122.492 229.913 122.406 229.797 122.36 229.646C122.313 229.496 122.29 229.307 122.29 229.079C122.29 228.819 122.326 228.612 122.399 228.456C122.471 228.301 122.575 228.184 122.71 228.106C122.845 228.028 123.008 227.979 123.2 227.958C123.392 227.933 123.607 227.92 123.845 227.92C123.98 227.92 124.123 227.925 124.273 227.935C124.423 227.946 124.571 227.958 124.716 227.974C124.862 227.99 124.986 228.008 125.09 228.028V228.542C124.955 228.521 124.818 228.506 124.678 228.495C124.543 228.48 124.403 228.469 124.258 228.464C124.118 228.459 123.975 228.456 123.83 228.456C123.633 228.456 123.464 228.467 123.324 228.487C123.184 228.508 123.078 228.56 123.005 228.643C122.938 228.726 122.904 228.863 122.904 229.055C122.904 229.206 122.915 229.32 122.935 229.397C122.961 229.47 123.01 229.522 123.083 229.553C123.156 229.579 123.257 229.6 123.386 229.615L124.46 229.732C124.672 229.753 124.838 229.794 124.958 229.856C125.082 229.913 125.17 230.017 125.222 230.167C125.279 230.318 125.308 230.543 125.308 230.844C125.308 231.093 125.276 231.295 125.214 231.451C125.157 231.601 125.066 231.718 124.942 231.801C124.818 231.884 124.665 231.938 124.483 231.964C124.302 231.995 124.092 232.011 123.853 232.011ZM127.478 232.011C127.187 232.011 126.944 231.977 126.747 231.91C126.555 231.842 126.41 231.726 126.311 231.56C126.218 231.394 126.171 231.16 126.171 230.86C126.171 230.559 126.205 230.323 126.272 230.152C126.345 229.976 126.469 229.851 126.646 229.779C126.822 229.706 127.068 229.67 127.384 229.67C127.436 229.67 127.517 229.672 127.626 229.677C127.74 229.677 127.869 229.68 128.014 229.685C128.16 229.685 128.305 229.688 128.45 229.693C128.6 229.693 128.738 229.696 128.862 229.701V229.452C128.862 229.219 128.847 229.037 128.816 228.907C128.79 228.773 128.733 228.674 128.645 228.612C128.556 228.544 128.432 228.503 128.271 228.487C128.116 228.467 127.908 228.456 127.649 228.456C127.535 228.456 127.4 228.461 127.244 228.472C127.089 228.477 126.936 228.487 126.786 228.503C126.64 228.513 126.524 228.526 126.436 228.542V228.028C126.633 227.992 126.853 227.966 127.097 227.951C127.346 227.93 127.602 227.92 127.867 227.92C128.147 227.92 128.383 227.938 128.575 227.974C128.772 228.005 128.93 228.057 129.049 228.13C129.173 228.202 129.267 228.298 129.329 228.417C129.391 228.537 129.433 228.682 129.453 228.853C129.479 229.024 129.492 229.224 129.492 229.452V231.949H128.925L128.901 231.389H128.855C128.772 231.57 128.652 231.708 128.497 231.801C128.346 231.889 128.18 231.946 127.999 231.972C127.817 231.998 127.644 232.011 127.478 232.011ZM127.711 231.49C127.862 231.49 128.002 231.482 128.131 231.466C128.261 231.446 128.375 231.409 128.473 231.357C128.572 231.306 128.65 231.228 128.707 231.124C128.764 231.015 128.803 230.899 128.823 230.774C128.849 230.645 128.862 230.494 128.862 230.323V230.121H127.54C127.338 230.121 127.182 230.136 127.073 230.167C126.964 230.199 126.889 230.263 126.848 230.362C126.811 230.46 126.793 230.608 126.793 230.805C126.793 230.997 126.817 231.142 126.863 231.241C126.91 231.339 126.998 231.407 127.128 231.443C127.263 231.474 127.457 231.49 127.711 231.49ZM132.295 233.551C132.129 233.551 131.958 233.546 131.782 233.535C131.611 233.53 131.447 233.522 131.292 233.512C131.136 233.502 131.004 233.491 130.895 233.481V232.968C131.019 232.978 131.157 232.986 131.307 232.991C131.458 233.001 131.605 233.006 131.751 233.006C131.901 233.012 132.036 233.014 132.155 233.014C132.456 233.014 132.692 232.993 132.863 232.952C133.034 232.911 133.164 232.838 133.252 232.734C133.34 232.63 133.394 232.485 133.415 232.299C133.441 232.112 133.454 231.873 133.454 231.583V231.42H133.415C133.348 231.565 133.254 231.679 133.135 231.762C133.016 231.845 132.873 231.905 132.707 231.941C132.541 231.972 132.352 231.988 132.139 231.988C131.849 231.988 131.608 231.956 131.416 231.894C131.229 231.832 131.082 231.728 130.973 231.583C130.864 231.433 130.786 231.225 130.739 230.961C130.698 230.696 130.677 230.364 130.677 229.965C130.677 229.561 130.701 229.226 130.747 228.962C130.794 228.697 130.872 228.49 130.981 228.34C131.089 228.189 131.237 228.083 131.424 228.021C131.616 227.953 131.857 227.92 132.147 227.92C132.324 227.92 132.497 227.935 132.668 227.966C132.839 227.992 132.992 228.052 133.127 228.145C133.267 228.239 133.374 228.373 133.446 228.55H133.493L133.524 227.982H134.092V231.435C134.092 231.819 134.071 232.146 134.03 232.415C133.993 232.685 133.915 232.903 133.796 233.069C133.677 233.235 133.498 233.356 133.26 233.434C133.021 233.512 132.699 233.551 132.295 233.551ZM132.388 231.435C132.648 231.435 132.852 231.402 133.003 231.334C133.153 231.262 133.262 231.15 133.33 231C133.387 230.875 133.42 230.727 133.431 230.556C133.446 230.385 133.454 230.186 133.454 229.957C133.454 229.74 133.449 229.548 133.438 229.382C133.428 229.211 133.394 229.066 133.337 228.946C133.27 228.78 133.158 228.661 133.003 228.589C132.847 228.516 132.642 228.48 132.388 228.48C132.15 228.48 131.958 228.498 131.813 228.534C131.673 228.565 131.566 228.63 131.494 228.729C131.421 228.827 131.372 228.975 131.346 229.172C131.32 229.369 131.307 229.631 131.307 229.957C131.307 230.284 131.32 230.546 131.346 230.743C131.372 230.94 131.421 231.088 131.494 231.186C131.566 231.285 131.673 231.352 131.813 231.389C131.958 231.42 132.15 231.435 132.388 231.435ZM137.046 232.011C136.725 232.011 136.455 231.99 136.237 231.949C136.025 231.907 135.854 231.84 135.724 231.746C135.594 231.648 135.496 231.521 135.428 231.365C135.361 231.205 135.317 231.01 135.296 230.782C135.275 230.554 135.265 230.284 135.265 229.973C135.265 229.605 135.281 229.291 135.312 229.032C135.343 228.767 135.413 228.555 135.522 228.394C135.636 228.228 135.812 228.109 136.051 228.036C136.289 227.958 136.611 227.92 137.015 227.92C137.321 227.92 137.57 227.943 137.762 227.99C137.959 228.036 138.114 228.109 138.228 228.207C138.343 228.306 138.425 228.438 138.477 228.604C138.534 228.765 138.571 228.959 138.586 229.187C138.602 229.41 138.61 229.67 138.61 229.965V230.175H135.895C135.895 230.445 135.908 230.665 135.934 230.836C135.96 231.007 136.012 231.14 136.089 231.233C136.172 231.326 136.299 231.391 136.471 231.427C136.647 231.464 136.885 231.482 137.186 231.482C137.311 231.482 137.448 231.479 137.598 231.474C137.749 231.464 137.899 231.451 138.05 231.435C138.2 231.42 138.335 231.404 138.454 231.389V231.902C138.345 231.923 138.21 231.941 138.05 231.956C137.894 231.972 137.728 231.985 137.552 231.995C137.381 232.006 137.212 232.011 137.046 232.011ZM137.995 229.856V229.646C137.995 229.377 137.98 229.164 137.948 229.009C137.917 228.848 137.863 228.729 137.785 228.651C137.713 228.568 137.611 228.513 137.482 228.487C137.352 228.461 137.191 228.449 137 228.449C136.751 228.449 136.554 228.467 136.408 228.503C136.263 228.534 136.154 228.594 136.082 228.682C136.009 228.77 135.96 228.897 135.934 229.063C135.908 229.229 135.895 229.449 135.895 229.724H138.143L137.995 229.856Z" fill="#363062"/>
<rect x="244.215" y="223.506" width="27.4802" height="10.9921" rx="3.66403" fill="#F9F9F9"/>
<path d="M249.8 230.791C249.62 230.791 249.427 230.785 249.221 230.775C249.014 230.764 248.813 230.751 248.617 230.735C248.427 230.719 248.255 230.701 248.101 230.68V229.687C248.191 229.693 248.289 229.701 248.395 229.711C248.501 229.716 248.607 229.722 248.713 229.727C248.818 229.732 248.919 229.738 249.014 229.743C249.11 229.743 249.197 229.743 249.276 229.743C249.53 229.743 249.71 229.738 249.816 229.727C249.927 229.716 249.996 229.693 250.022 229.656C250.049 229.619 250.062 229.563 250.062 229.489C250.062 229.436 250.054 229.396 250.038 229.37C250.028 229.338 249.993 229.317 249.935 229.306C249.882 229.29 249.79 229.274 249.657 229.259L248.713 229.14C248.501 229.108 248.342 229.039 248.236 228.933C248.13 228.822 248.059 228.676 248.022 228.496C247.99 228.311 247.974 228.097 247.974 227.853C247.974 227.573 248.017 227.351 248.101 227.187C248.191 227.017 248.313 226.893 248.466 226.813C248.625 226.729 248.81 226.676 249.022 226.655C249.239 226.628 249.469 226.615 249.713 226.615C249.893 226.615 250.078 226.62 250.269 226.631C250.459 226.641 250.636 226.655 250.8 226.671C250.97 226.686 251.11 226.708 251.221 226.734V227.718C251.078 227.708 250.935 227.7 250.793 227.695C250.65 227.684 250.517 227.676 250.396 227.671C250.279 227.666 250.184 227.663 250.11 227.663C249.888 227.663 249.721 227.668 249.61 227.679C249.504 227.684 249.435 227.703 249.403 227.734C249.372 227.761 249.356 227.811 249.356 227.885C249.356 227.938 249.361 227.98 249.372 228.012C249.387 228.039 249.419 228.06 249.467 228.076C249.514 228.086 249.596 228.1 249.713 228.115L250.578 228.227C250.753 228.248 250.904 228.29 251.031 228.354C251.163 228.417 251.264 228.534 251.332 228.703C251.406 228.867 251.444 229.118 251.444 229.457C251.444 229.769 251.401 230.015 251.316 230.195C251.237 230.37 251.121 230.5 250.967 230.584C250.819 230.669 250.644 230.725 250.443 230.751C250.247 230.778 250.033 230.791 249.8 230.791ZM255.003 230.791C254.606 230.791 254.278 230.767 254.019 230.719C253.759 230.666 253.553 230.59 253.399 230.489C253.251 230.383 253.14 230.251 253.066 230.092C252.997 229.928 252.952 229.732 252.931 229.505C252.915 229.272 252.907 229.007 252.907 228.711C252.907 228.34 252.923 228.023 252.955 227.758C252.992 227.494 253.071 227.277 253.193 227.107C253.315 226.938 253.508 226.813 253.772 226.734C254.037 226.655 254.4 226.615 254.86 226.615C255.231 226.615 255.532 226.639 255.765 226.686C255.998 226.734 256.178 226.808 256.305 226.909C256.437 227.009 256.532 227.142 256.591 227.306C256.649 227.464 256.683 227.663 256.694 227.901C256.71 228.134 256.718 228.404 256.718 228.711V229.02H254.384C254.384 229.179 254.392 229.306 254.408 229.402C254.423 229.491 254.46 229.56 254.519 229.608C254.582 229.65 254.68 229.677 254.812 229.687C254.95 229.698 255.133 229.703 255.36 229.703C255.461 229.703 255.575 229.701 255.702 229.695C255.834 229.69 255.974 229.685 256.122 229.679C256.276 229.669 256.421 229.658 256.559 229.648V230.64C256.453 230.672 256.313 230.698 256.138 230.719C255.969 230.741 255.786 230.756 255.59 230.767C255.395 230.783 255.199 230.791 255.003 230.791ZM255.32 228.481V228.354C255.32 228.179 255.315 228.041 255.305 227.941C255.294 227.84 255.27 227.769 255.233 227.726C255.201 227.679 255.154 227.647 255.09 227.631C255.032 227.615 254.953 227.607 254.852 227.607C254.746 227.607 254.662 227.615 254.598 227.631C254.54 227.647 254.495 227.679 254.463 227.726C254.431 227.774 254.41 227.848 254.4 227.949C254.389 228.049 254.384 228.184 254.384 228.354H255.455L255.32 228.481ZM258.369 230.727V226.679H259.814L259.846 227.147H259.917C260.007 227.009 260.11 226.903 260.227 226.829C260.348 226.75 260.478 226.694 260.616 226.663C260.759 226.631 260.899 226.615 261.036 226.615C261.301 226.615 261.51 226.649 261.664 226.718C261.822 226.787 261.941 226.89 262.021 227.028C262.105 227.16 262.158 227.324 262.18 227.52C262.206 227.716 262.219 227.941 262.219 228.195V230.727H260.719V228.592C260.719 228.401 260.714 228.253 260.703 228.147C260.698 228.041 260.682 227.965 260.655 227.917C260.629 227.869 260.587 227.84 260.528 227.83C260.475 227.814 260.404 227.806 260.314 227.806C260.213 227.806 260.131 227.816 260.068 227.838C260.01 227.853 259.967 227.891 259.941 227.949C259.914 228.002 259.896 228.081 259.885 228.187C259.875 228.287 259.869 228.428 259.869 228.608V230.727H258.369ZM265.119 230.791C264.896 230.791 264.703 230.759 264.539 230.696C264.38 230.632 264.248 230.524 264.142 230.37C264.042 230.217 263.968 230.005 263.92 229.735C263.872 229.465 263.849 229.126 263.849 228.719C263.849 228.306 263.872 227.965 263.92 227.695C263.968 227.425 264.044 227.21 264.15 227.052C264.256 226.893 264.388 226.782 264.547 226.718C264.711 226.655 264.904 226.623 265.127 226.623C265.275 226.623 265.412 226.636 265.539 226.663C265.672 226.684 265.794 226.729 265.905 226.798C266.016 226.861 266.116 226.962 266.206 227.099H266.278V224.829H267.778V230.727H266.333L266.302 230.259H266.222C266.143 230.407 266.045 230.521 265.928 230.6C265.812 230.674 265.685 230.725 265.547 230.751C265.41 230.778 265.267 230.791 265.119 230.791ZM265.817 229.608C265.95 229.608 266.045 229.592 266.103 229.56C266.167 229.529 266.209 229.465 266.23 229.37C266.251 229.285 266.265 229.19 266.27 229.084C266.275 228.973 266.278 228.846 266.278 228.703C266.278 228.56 266.275 228.438 266.27 228.338C266.27 228.232 266.259 228.142 266.238 228.068C266.217 227.957 266.175 227.885 266.111 227.853C266.048 227.822 265.95 227.806 265.817 227.806C265.701 227.806 265.611 227.814 265.547 227.83C265.489 227.84 265.444 227.875 265.412 227.933C265.386 227.991 265.367 228.081 265.357 228.203C265.352 228.324 265.349 228.491 265.349 228.703C265.349 228.915 265.352 229.084 265.357 229.211C265.367 229.333 265.386 229.423 265.412 229.481C265.444 229.534 265.489 229.568 265.547 229.584C265.611 229.6 265.701 229.608 265.817 229.608Z" fill="#333333"/>
</g>
<defs>
<filter id="filter0_d_134_1621" x="130.63" y="239.383" width="123.966" height="74.502" filterUnits="userSpaceOnUse" color-interpolation-filters="sRGB">
<feFlood flood-opacity="0" result="BackgroundImageFix"/>
<feColorMatrix in="SourceAlpha" type="matrix" values="0 0 0 0 0 0 0 0 0 0 0 0 0 0 0 0 0 0 127 0" result="hardAlpha"/>
<feOffset dy="2.44269"/>
<feGaussianBlur stdDeviation="1.22134"/>
<feComposite in2="hardAlpha" operator="out"/>
<feColorMatrix type="matrix" values="0 0 0 0 0 0 0 0 0 0 0 0 0 0 0 0 0 0 0.25 0"/>
<feBlend mode="normal" in2="BackgroundImageFix" result="effect1_dropShadow_134_1621"/>
<feBlend mode="normal" in="SourceGraphic" in2="effect1_dropShadow_134_1621" result="shape"/>
</filter>
<filter id="filter1_d_134_1621" x="0.557312" y="0" width="384.113" height="267.474" filterUnits="userSpaceOnUse" color-interpolation-filters="sRGB">
<feFlood flood-opacity="0" result="BackgroundImageFix"/>
<feColorMatrix in="SourceAlpha" type="matrix" values="0 0 0 0 0 0 0 0 0 0 0 0 0 0 0 0 0 0 127 0" result="hardAlpha"/>
<feOffset dy="2.44269"/>
<feGaussianBlur stdDeviation="1.22134"/>
<feComposite in2="hardAlpha" operator="out"/>
<feColorMatrix type="matrix" values="0 0 0 0 0 0 0 0 0 0 0 0 0 0 0 0 0 0 0.25 0"/>
<feBlend mode="normal" in2="BackgroundImageFix" result="effect1_dropShadow_134_1621"/>
<feBlend mode="normal" in="SourceGraphic" in2="effect1_dropShadow_134_1621" result="shape"/>
</filter>
<filter id="filter2_d_134_1621" x="12.5573" y="-18" width="363.885" height="274.885" filterUnits="userSpaceOnUse" color-interpolation-filters="sRGB">
<feFlood flood-opacity="0" result="BackgroundImageFix"/>
<feColorMatrix in="SourceAlpha" type="matrix" values="0 0 0 0 0 0 0 0 0 0 0 0 0 0 0 0 0 0 127 0" result="hardAlpha"/>
<feOffset dy="2.44269"/>
<feGaussianBlur stdDeviation="1.22134"/>
<feComposite in2="hardAlpha" operator="out"/>
<feColorMatrix type="matrix" values="0 0 0 0 0 0 0 0 0 0 0 0 0 0 0 0 0 0 0.25 0"/>
<feBlend mode="normal" in2="BackgroundImageFix" result="effect1_dropShadow_134_1621"/>
<feBlend mode="normal" in="SourceGraphic" in2="effect1_dropShadow_134_1621" result="shape"/>
</filter>
</defs>
</svg>
