<svg xmlns="http://www.w3.org/2000/svg" width="385" height="314" fill="none" xmlns:v="https://vecta.io/nano"><style><![CDATA[.B{fill:#eee}.C{fill:#f9f9f9}.D{fill:#212121}.E{fill:#827397}.F{color-interpolation-filters:sRGB}.G{flood-opacity:0}]]></style><g filter="url(#B)" class="D"><rect x="133.073" y="239.383" width="119.081" height="69.617" rx="22.595"/></g><rect x="138.569" y="244.269" width="109.31" height="59.846" rx="21.984" fill="#333"/><rect x="141.623" y="229.002" width="102.593" height="71.449" rx="17.099" class="D"/><g filter="url(#C)" class="D"><rect x="3" width="379.227" height="262.589" rx="29.631"/></g><rect width="6.107" height="6.107" rx="3.053" transform="matrix(1 0 0 -1 189.866 10.9921)" fill="#4d4c7d"/><rect width="4.885" height="4.885" rx="2.443" transform="matrix(1 0 0 -1 190.476 10.3814)" fill="#555"/><g fill="#333"><rect width="3.664" height="3.664" rx="1.832" transform="matrix(1 0 0 -1 191.087 9.77075)"/><path d="M9.107 51.297c0-19.561 15.858-35.419 35.419-35.419h296.786c19.562 0 35.419 15.858 35.419 35.419v176.377c0 16.248-13.172 29.42-29.42 29.42H38.527c-16.248 0-29.42-13.172-29.42-29.42V51.297z"/></g><mask id="A" maskUnits="userSpaceOnUse" x="15" y="23" width="356" height="229" mask-type="alpha"><path d="M15.214 53.448c0-16.365 13.266-29.631 29.631-29.631h296.148c16.365 0 29.632 13.266 29.632 29.631v172.52c0 14.155-11.475 25.63-25.63 25.63H40.844c-14.155 0-25.63-11.475-25.63-25.63V53.448z" fill="#2e0249"/></mask><g mask="url(#A)"><g filter="url(#D)"><path d="M15-18h343.733A15.27 15.27 0 0 1 374-2.733v239.466A15.27 15.27 0 0 1 358.733 252H15V-18z" fill="#dbdffd"/><path d="M15.214-1.832A15.27 15.27 0 0 1 30.48-17.099h33.587v268.696H30.48a15.27 15.27 0 0 1-15.267-15.267V-1.832z" fill="#646fd4"/></g><rect x="75.67" y="86.105" width="201.522" height="34.808" rx="6.107" class="C"/><path d="M289.405 23.816h83.662v227.781h-83.662z" class="C"/><rect width="32.976" height="4.275" rx="2.137" transform="matrix(1 0 0 -1 115.974 108.7)" class="B"/><rect width="32.976" height="4.275" rx="2.137" transform="matrix(1 0 0 -1 115.974 95.2648)" class="B"/><rect width="24.427" height="4.275" rx="2.137" transform="matrix(1 0 0 -1 115.974 115.417)" class="B"/><rect width="58.014" height="4.275" rx="2.137" transform="matrix(1 0 0 -1 115.974 101.982)" class="B"/><circle opacity=".55" cx="93.074" cy="103.509" r="11.908" class="E"/><rect x="75.67" y="39.694" width="201.522" height="34.808" rx="6.107" class="C"/><rect width="32.976" height="4.275" rx="2.137" transform="matrix(1 0 0 -1 115.974 62.2885)" class="B"/><rect width="32.976" height="4.275" rx="2.137" transform="matrix(1 0 0 -1 115.974 48.8538)" class="B"/><rect width="24.427" height="4.275" rx="2.137" transform="matrix(1 0 0 -1 115.974 69.0059)" class="B"/><rect width="58.014" height="4.275" rx="2.137" transform="matrix(1 0 0 -1 115.974 55.5711)" class="B"/><circle opacity=".55" cx="94.296" cy="57.098" r="11.908" class="E"/><rect x="26.816" y="30.534" width="24.427" height="24.427" rx="3.664" class="C"/><rect x="26.816" y="73.891" width="24.427" height="24.427" rx="3.664" class="C"/><rect x="26.816" y="117.249" width="24.427" height="24.427" rx="3.664" class="C"/><rect x="26.816" y="160.607" width="24.427" height="24.427" rx="3.664" class="C"/><rect x="26.816" y="203.964" width="24.427" height="24.427" rx="3.664" class="C"/><rect x="75.67" y="133.126" width="201.522" height="34.808" rx="6.107" class="C"/><rect width="32.976" height="4.275" rx="2.137" transform="matrix(1 0 0 -1 115.974 155.721)" class="B"/><rect width="32.976" height="4.275" rx="2.137" transform="matrix(1 0 0 -1 115.974 142.287)" class="B"/><rect width="24.427" height="4.275" rx="2.137" transform="matrix(1 0 0 -1 115.974 162.439)" class="B"/><rect width="58.014" height="4.275" rx="2.137" transform="matrix(1 0 0 -1 115.974 149.004)" class="B"/><circle opacity=".55" cx="93.074" cy="149.92" r="11.908" class="E"/><rect x="75.67" y="218.621" width="201.522" height="20.763" rx="4.885" fill="#b9bee2"/><path d="M89.573 231.949v-3.43h-.801v-.537h.801v-1.151h.63v1.151h.949v.537h-.949v3.43h-.63zm3.978 1.602a7.17 7.17 0 0 1-.474-.016l-.467-.023-.389-.031v-.506l.467.016.397.015.334.008c.301 0 .537-.023.708-.07.176-.046.306-.124.389-.233s.135-.244.156-.42c.026-.176.039-.392.039-.646v-.233h-.047c-.041.104-.112.2-.21.288s-.233.158-.405.21-.394.078-.669.078c-.29 0-.526-.029-.708-.086-.176-.062-.311-.156-.404-.28-.093-.13-.158-.29-.194-.482-.031-.192-.047-.42-.047-.685v-2.473h.638v2.248l.031.645c.021.161.065.283.132.366.073.078.174.129.303.155a2.66 2.66 0 0 0 .506.039c.259 0 .462-.031.607-.093.145-.067.249-.163.311-.288.067-.124.109-.272.124-.443.021-.177.031-.374.031-.591v-2.038h.63v3.477a6.34 6.34 0 0 1-.062.964c-.036.27-.117.485-.241.646-.119.166-.298.287-.537.365s-.555.117-.949.117zm3.132-.055v-5.514h.576l.023.568h.047c.078-.177.184-.311.319-.405s.288-.153.459-.179a2.96 2.96 0 0 1 .529-.046 2.28 2.28 0 0 1 .708.093.85.85 0 0 1 .451.327c.109.15.187.357.233.622s.07.596.07.995c0 .405-.023.742-.07 1.012-.041.264-.117.471-.225.622s-.257.259-.443.327a2.28 2.28 0 0 1-.708.093c-.213 0-.402-.018-.568-.055a1.16 1.16 0 0 1-.436-.171c-.119-.083-.215-.197-.288-.342h-.039v2.053h-.638zm1.703-2.053c.238 0 .428-.016.568-.047.145-.031.254-.096.327-.194.073-.104.122-.252.148-.443a6.39 6.39 0 0 0 .039-.794l-.039-.793c-.026-.197-.075-.345-.148-.443a.52.52 0 0 0-.327-.195c-.14-.036-.329-.054-.568-.054-.264 0-.475.039-.63.116a.66.66 0 0 0-.327.35c-.052.125-.083.273-.093.444l-.016.575.016.576c.01.161.036.295.078.404.073.182.187.311.342.389s.366.109.63.109zm4.502.568c-.321 0-.591-.021-.809-.062-.212-.042-.383-.109-.513-.203s-.228-.225-.296-.381a1.99 1.99 0 0 1-.132-.583c-.021-.228-.031-.498-.031-.809 0-.368.016-.682.047-.941.031-.265.101-.477.21-.638s.29-.285.529-.358.56-.116.964-.116c.306 0 .555.023.747.07.197.046.352.119.466.217s.197.231.249.397c.057.161.094.355.109.583l.024.778v.21h-2.715c0 .27.013.49.039.661s.078.304.155.397c.083.093.21.158.382.194s.414.055.715.055l.412-.008.452-.039.404-.046v.513c-.109.021-.244.039-.404.054l-.498.039-.506.016zm.949-2.155v-.21c0-.269-.015-.482-.047-.637-.031-.161-.085-.28-.163-.358-.073-.083-.174-.138-.303-.164s-.291-.038-.482-.038c-.249 0-.446.018-.592.054s-.254.091-.326.179-.122.215-.148.381-.039.386-.039.661h2.248l-.148.132zm3.609 2.093v-3.967h.575l.024.568h.046a.91.91 0 0 1 .21-.327c.099-.093.226-.166.381-.218.161-.057.366-.085.615-.085.352 0 .614.051.785.155s.291.257.358.475h.047a.95.95 0 0 1 .225-.327c.099-.093.231-.166.397-.218s.371-.085.615-.085c.357 0 .624.054.801.163a.79.79 0 0 1 .35.506c.057.228.085.521.085.878v2.482h-.63v-2.264l-.031-.638c-.021-.16-.059-.28-.117-.357-.057-.083-.142-.138-.256-.164a2.15 2.15 0 0 0-.459-.039c-.223 0-.399.032-.529.094a.57.57 0 0 0-.288.264 1.3 1.3 0 0 0-.109.444l-.023.614v2.046h-.63v-2.264l-.031-.638c-.021-.16-.06-.28-.117-.357-.057-.083-.142-.138-.256-.164s-.268-.039-.459-.039c-.223 0-.4.034-.529.102-.13.062-.223.152-.28.272s-.094.267-.109.443-.024.376-.024.599v2.046h-.637zm8.476.062c-.321 0-.591-.021-.808-.062s-.384-.109-.514-.203a.93.93 0 0 1-.295-.381c-.068-.16-.112-.355-.133-.583l-.031-.809c0-.368.016-.682.047-.941.031-.265.101-.477.21-.638.114-.166.29-.285.529-.358s.56-.116.964-.116c.306 0 .555.023.747.07s.353.119.467.217.197.231.249.397c.057.161.093.355.109.583l.023.778v.21h-2.715c0 .27.013.49.039.661s.078.304.156.397c.083.093.21.158.381.194.176.037.415.055.715.055l.413-.008.451-.039.404-.046v.513a4.28 4.28 0 0 1-.404.054l-.498.039-.506.016zm.949-2.155v-.21c0-.269-.015-.482-.046-.637-.031-.161-.086-.28-.164-.358-.072-.083-.173-.138-.303-.164s-.29-.038-.482-.038c-.249 0-.446.018-.591.054s-.254.091-.327.179-.122.215-.148.381-.039.386-.039.661h2.248l-.148.132zm3.101 2.155c-.151 0-.311-.005-.483-.016l-.505-.039-.451-.046v-.514l.358.031.35.032.342.015h.35c.269 0 .464-.018.583-.054.125-.042.205-.109.241-.203.042-.093.062-.215.062-.365 0-.171-.015-.296-.046-.373-.026-.078-.075-.127-.148-.148-.067-.026-.171-.047-.311-.062l-1.027-.117c-.244-.026-.428-.078-.552-.156a.63.63 0 0 1-.257-.35c-.046-.15-.07-.339-.07-.567 0-.26.037-.467.109-.623s.176-.272.311-.35a1.24 1.24 0 0 1 .49-.148c.192-.025.407-.038.646-.038l.428.015.443.039.373.054v.514l-.412-.047-.42-.031-.428-.008c-.197 0-.365.011-.505.031s-.247.073-.319.156-.101.22-.101.412c0 .151.01.265.031.342s.075.125.148.156.173.047.303.062l1.073.117c.213.021.379.062.498.124a.5.5 0 0 1 .265.311c.057.151.085.376.085.677 0 .249-.031.451-.093.607-.057.15-.148.267-.272.35s-.278.137-.459.163-.392.047-.63.047zm3.881 0c-.15 0-.311-.005-.482-.016l-.506-.039-.451-.046v-.514l.358.031.35.032.342.015h.35c.27 0 .464-.018.584-.054.124-.042.204-.109.241-.203s.062-.215.062-.365c0-.171-.016-.296-.047-.373-.026-.078-.075-.127-.148-.148-.067-.026-.171-.047-.311-.062l-1.026-.117c-.244-.026-.428-.078-.553-.156s-.21-.199-.256-.35a1.93 1.93 0 0 1-.07-.567c0-.26.036-.467.109-.623a.76.76 0 0 1 .311-.35 1.24 1.24 0 0 1 .49-.148c.192-.025.407-.038.645-.038l.428.015.443.039.374.054v.514l-.412-.047-.42-.031-.428-.008c-.197 0-.366.011-.506.031s-.246.073-.319.156c-.067.083-.101.22-.101.412 0 .151.011.265.031.342.026.073.075.125.148.156a1.43 1.43 0 0 0 .303.062l1.074.117c.212.021.378.062.498.124s.212.161.264.311c.057.151.086.376.086.677 0 .249-.032.451-.094.607-.057.15-.148.267-.272.35s-.277.137-.459.163-.391.047-.63.047zm3.625 0c-.291 0-.534-.034-.731-.101a.8.8 0 0 1-.436-.35c-.093-.166-.14-.4-.14-.7s.034-.537.101-.708a.66.66 0 0 1 .374-.373c.176-.073.422-.109.738-.109l.242.007.388.008.436.008.412.008v-.249c0-.233-.015-.415-.046-.545s-.083-.233-.171-.295c-.089-.068-.213-.109-.374-.125-.155-.02-.363-.031-.622-.031l-.405.016-.458.031-.35.039v-.514c.197-.036.417-.062.661-.077l.77-.031c.28 0 .516.018.708.054.197.031.355.083.474.156a.71.71 0 0 1 .28.287c.062.12.104.265.124.436.026.171.039.371.039.599v2.497h-.567l-.024-.56h-.046c-.083.181-.203.319-.358.412s-.317.145-.498.171a3.68 3.68 0 0 1-.521.039zm.233-.521c.151 0 .291-.008.42-.024s.244-.057.342-.109.177-.129.234-.233.096-.225.116-.35a2.31 2.31 0 0 0 .039-.451v-.202h-1.322c-.202 0-.358.015-.467.046s-.184.096-.225.195-.055.246-.055.443.024.337.07.436.135.166.265.202c.135.031.329.047.583.047zm4.584 2.061a8.22 8.22 0 0 1-.513-.016l-.49-.023-.397-.031v-.513l.412.023.444.015.404.008a3.18 3.18 0 0 0 .708-.062c.171-.041.301-.114.389-.218s.142-.249.163-.435c.026-.187.039-.426.039-.716v-.163h-.039c-.067.145-.161.259-.28.342s-.262.143-.428.179a3.11 3.11 0 0 1-.568.047c-.29 0-.531-.032-.723-.094-.187-.062-.334-.166-.443-.311s-.187-.358-.234-.622c-.041-.265-.062-.597-.062-.996s.024-.739.07-1.003.125-.472.234-.622a.86.86 0 0 1 .443-.319c.192-.068.433-.101.723-.101a2.91 2.91 0 0 1 .521.046c.171.026.324.086.459.179s.247.228.319.405h.047l.031-.568h.568v3.453c0 .384-.021.711-.062.98s-.115.488-.234.654-.298.287-.536.365-.561.117-.965.117zm.093-2.116c.26 0 .464-.033.615-.101s.259-.184.327-.334c.057-.125.09-.273.101-.444l.023-.599-.016-.575a1.17 1.17 0 0 0-.101-.436c-.067-.166-.179-.285-.334-.357s-.361-.109-.615-.109c-.238 0-.43.018-.575.054-.14.031-.247.096-.319.195s-.122.246-.148.443-.039.459-.039.785a6.28 6.28 0 0 0 .039.786c.026.197.075.345.148.443s.179.166.319.203c.145.031.337.046.575.046zm4.658.576c-.321 0-.591-.021-.809-.062-.212-.042-.383-.109-.513-.203s-.228-.225-.296-.381a1.99 1.99 0 0 1-.132-.583c-.021-.228-.031-.498-.031-.809 0-.368.016-.682.047-.941.031-.265.101-.477.21-.638.114-.166.29-.285.529-.358s.56-.116.964-.116c.306 0 .555.023.747.07s.352.119.466.217.197.231.249.397c.057.161.094.355.109.583l.024.778v.21h-2.715c0 .27.013.49.039.661s.078.304.155.397c.083.093.21.158.382.194s.414.055.715.055l.412-.008.452-.039.404-.046v.513c-.109.021-.244.039-.404.054l-.498.039-.506.016zm.949-2.155v-.21c0-.269-.015-.482-.047-.637-.031-.161-.085-.28-.163-.358-.072-.083-.174-.138-.303-.164s-.291-.038-.482-.038c-.249 0-.446.018-.592.054s-.254.091-.326.179-.122.215-.148.381-.039.386-.039.661h2.248l-.148.132z" fill="#363062"/><rect x="244.215" y="223.506" width="27.48" height="10.992" rx="3.664" class="C"/><path d="M249.8 230.791a12.04 12.04 0 0 1-.579-.016l-.604-.04-.516-.055v-.993l.294.024.318.016.301.016h.262l.54-.016c.111-.011.18-.034.206-.071s.04-.093.04-.167c0-.053-.008-.093-.024-.119-.01-.032-.045-.053-.103-.064-.053-.016-.145-.032-.278-.047l-.944-.119c-.212-.032-.371-.101-.477-.207a.87.87 0 0 1-.214-.437c-.032-.185-.048-.399-.048-.643 0-.28.043-.502.127-.666.09-.17.212-.294.365-.374.159-.084.344-.137.556-.158a5.6 5.6 0 0 1 .691-.04l.556.016.531.04c.17.015.31.037.421.063v.984l-.428-.023-.397-.024-.286-.008-.5.016c-.106.005-.175.024-.207.055s-.047.077-.047.151a.4.4 0 0 0 .016.127c.015.027.047.048.095.064.047.01.129.024.246.039l.865.112c.175.021.326.063.453.127s.233.18.301.349c.074.164.112.415.112.754 0 .312-.043.558-.128.738-.079.175-.195.305-.349.389-.148.085-.323.141-.524.167a4.73 4.73 0 0 1-.643.04zm5.203 0c-.397 0-.725-.024-.984-.072s-.466-.129-.62-.23c-.148-.106-.259-.238-.333-.397a1.99 1.99 0 0 1-.135-.587l-.024-.794a8.09 8.09 0 0 1 .048-.953c.037-.264.116-.481.238-.651s.315-.294.579-.373.628-.119 1.088-.119c.371 0 .672.024.905.071s.413.122.54.223.227.233.286.397c.058.158.092.357.103.595l.024.81v.309h-2.334a2.42 2.42 0 0 0 .024.382c.015.089.052.158.111.206.063.042.161.069.293.079.138.011.321.016.548.016l.342-.008.42-.016.437-.031v.992a2.57 2.57 0 0 1-.421.079l-.548.048-.587.024zm.317-2.31v-.127l-.015-.413c-.011-.101-.035-.172-.072-.215s-.079-.079-.143-.095a.93.93 0 0 0-.238-.024 1.08 1.08 0 0 0-.254.024c-.058.016-.103.048-.135.095a.5.5 0 0 0-.063.223c-.011.1-.016.235-.016.405h1.071l-.135.127zm3.049 2.246v-4.048h1.445l.032.468h.071c.09-.138.193-.244.31-.318.121-.079.251-.135.389-.166a1.92 1.92 0 0 1 .42-.048c.265 0 .474.034.628.103a.74.74 0 0 1 .357.31c.084.132.137.296.159.492s.039.421.039.675v2.532h-1.5v-2.135l-.016-.445c-.005-.106-.021-.182-.048-.23s-.068-.077-.127-.087c-.053-.016-.124-.024-.214-.024-.101 0-.183.01-.246.032-.058.015-.101.053-.127.111a.71.71 0 0 0-.056.238 4.45 4.45 0 0 0-.016.421v2.119h-1.5zm6.75.064c-.223 0-.416-.032-.58-.095a.87.87 0 0 1-.397-.326c-.1-.153-.174-.365-.222-.635s-.071-.609-.071-1.016c0-.413.023-.754.071-1.024s.124-.485.23-.643a.86.86 0 0 1 .397-.334c.164-.063.357-.095.58-.095a1.98 1.98 0 0 1 .412.04c.133.021.255.066.366.135.111.063.211.164.301.301h.072v-2.27h1.5v5.898h-1.445l-.031-.468h-.08c-.079.148-.177.262-.294.341a1.07 1.07 0 0 1-.381.151 2.21 2.21 0 0 1-.428.04zm.698-1.183c.133 0 .228-.016.286-.048.064-.031.106-.095.127-.19a1.48 1.48 0 0 0 .04-.286l.008-.381-.008-.365a1 1 0 0 0-.032-.27c-.021-.111-.063-.183-.127-.215s-.161-.047-.294-.047c-.116 0-.206.008-.27.024-.058.01-.103.045-.135.103-.026.058-.045.148-.055.27l-.008.5.008.508c.01.122.029.212.055.27a.22.22 0 0 0 .135.103c.064.016.154.024.27.024z" fill="#333"/></g><defs><filter id="B" x="130.63" y="239.383" width="123.966" height="74.502" filterUnits="userSpaceOnUse" class="F"><feFlood result="A" class="G"/><feColorMatrix in="SourceAlpha" values="0 0 0 0 0 0 0 0 0 0 0 0 0 0 0 0 0 0 127 0" result="B"/><feOffset dy="2.44269"/><feGaussianBlur stdDeviation="1.221"/><feComposite in2="B" operator="out"/><feColorMatrix values="0 0 0 0 0 0 0 0 0 0 0 0 0 0 0 0 0 0 0.25 0"/><feBlend in2="A"/><feBlend in="SourceGraphic"/></filter><filter id="C" x=".557" y="0" width="384.113" height="267.474" filterUnits="userSpaceOnUse" class="F"><feFlood result="A" class="G"/><feColorMatrix in="SourceAlpha" values="0 0 0 0 0 0 0 0 0 0 0 0 0 0 0 0 0 0 127 0" result="B"/><feOffset dy="2.44269"/><feGaussianBlur stdDeviation="1.221"/><feComposite in2="B" operator="out"/><feColorMatrix values="0 0 0 0 0 0 0 0 0 0 0 0 0 0 0 0 0 0 0.25 0"/><feBlend in2="A"/><feBlend in="SourceGraphic"/></filter><filter id="D" x="12.557" y="-18" width="363.885" height="274.885" filterUnits="userSpaceOnUse" class="F"><feFlood result="A" class="G"/><feColorMatrix in="SourceAlpha" values="0 0 0 0 0 0 0 0 0 0 0 0 0 0 0 0 0 0 127 0" result="B"/><feOffset dy="2.44269"/><feGaussianBlur stdDeviation="1.221"/><feComposite in2="B" operator="out"/><feColorMatrix values="0 0 0 0 0 0 0 0 0 0 0 0 0 0 0 0 0 0 0.25 0"/><feBlend in2="A"/><feBlend in="SourceGraphic"/></filter></defs></svg>