<svg xmlns="http://www.w3.org/2000/svg" xmlns:xlink="http://www.w3.org/1999/xlink" width="19" height="19" fill="none" xmlns:v="https://vecta.io/nano"><mask id="A" maskUnits="userSpaceOnUse" x="0" y="0" width="19" height="19" mask-type="alpha"><circle cx="9.5" cy="9.5" r="9.5" fill="#d9d9d9"/></mask><g mask="url(#A)"><g clip-path="url(#B)"><rect width="27.818" height="19" rx="2.473" fill="#9b2424"/><path fill="#f9f9f9" d="M0 9.891h27.818v1.236H0zm10.818-2.782h17v1.236h-17zm0-2.782h17v1.236h-17zM0 12.673h27.818v1.236H0zm0 2.782h27.818v1.236H0zm10.818-13.91h17v1.236h-17z"/><path fill="#242f9b" d="M0 0h10.818v9.891H0z"/><use xlink:href="#C" fill="#fff"/><path d="M4.245 5.667l.065.199h.21l-.17.123.065.199-.17-.123-.17.123.065-.199-.17-.123h.21l.065-.199zm0 2.019l.065.199h.21l-.17.123.065.199-.17-.123-.17.123.065-.199-.17-.123h.21l.065-.199zM7.274.618l.065.199h.21l-.17.123.065.199-.17-.123-.17.123.065-.199L7 .818h.21l.065-.199zm1.01 1.01l.065.199h.21l-.17.123.065.199-.17-.123-.17.123.065-.199-.17-.123h.21l.065-.199zM9.293.618l.065.199h.21l-.17.123.065.199-.17-.123-.17.123.065-.199-.17-.123h.21l.065-.199zm-2.019 2.02l.065.199h.21l-.17.123.065.199-.17-.123-.17.123.065-.199L7 2.837h.21l.065-.199zm0 2.019l.065.199h.21l-.17.123.065.199-.17-.123-.17.123.065-.199L7 4.856h.21l.065-.199zm0 4.039l.065.199h.21l-.17.123.065.199-.17-.123-.17.123.065-.199L7 8.895h.21l.065-.199z" fill="#fff"/><path d="M7.274 6.676l.065.199h.21l-.17.123.065.199-.17-.123-.17.123.065-.199L7 6.876h.21l.065-.199zM5.255.618l.065.199h.21L5.36.94l.065.199-.17-.123-.17.123L5.15.94 4.98.817h.21l.065-.199zm1.009 1.01l.065.199h.21l-.17.123.065.199-.17-.123-.17.123.065-.199-.17-.123h.21l.065-.199zm-1.009 1.01l.065.199h.21l-.17.123.065.199-.17-.123-.17.123.065-.199-.17-.123h.21l.065-.199zm0 2.019l.065.199h.21l-.17.123.065.199-.17-.123-.17.123.065-.199-.17-.123h.21l.065-.199zm0 4.039l.065.199h.21l-.17.123.065.199-.17-.123-.17.123.065-.199-.17-.123h.21l.065-.199z" fill="#fff"/><path d="M5.255 6.676l.065.199h.21l-.17.123.065.199-.17-.123-.17.123.065-.199-.17-.123h.21l.065-.199zM3.235.618l.065.2h.21l-.17.123.065.199-.17-.123-.17.123.065-.199-.17-.123h.21l.065-.199zm-2.019 0l.065.199h.21l-.17.123.065.199-.17-.123-.17.123.065-.199-.17-.123h.21l.065-.199zm3.029 1.01l.065.199h.21l-.17.123.065.199-.17-.123-.17.123.065-.199-.17-.123h.21l.065-.199zm-2.02 0l.065.199h.21l-.17.123.065.199-.17-.123-.17.123.065-.199-.17-.123h.21l.065-.199zm1.01 1.01l.065.199h.21l-.17.123.065.199-.17-.123-.17.123.065-.199-.17-.123h.21l.065-.199zm-2.019 0l.065.199h.21l-.17.123.065.199-.17-.123-.17.123.065-.199-.17-.123h.21l.065-.199zm1.009 1.009l.065.199h.21l-.17.123.065.199-.17-.123-.17.123.065-.199-.17-.123h.21l.065-.199zm1.01 1.01l.065.199h.21l-.17.123.065.199-.17-.123-.17.123.065-.199-.17-.123h.21l.065-.199zm-2.019 0l.065.199h.21l-.17.123.065.199-.17-.123-.17.123.065-.199-.17-.123h.21l.065-.199zm1.009 1.01l.065.199h.21l-.17.123.065.199-.17-.123-.17.123.065-.199-.17-.123h.21l.065-.199zm1.01 3.029l.065.199h.21l-.17.123.065.199-.17-.123-.17.123.065-.199-.17-.123h.21l.065-.199zm-1.01-1.01l.065.199h.21l-.17.123.065.199-.17-.123-.17.123.065-.199-.17-.123h.21l.065-.199zm-1.009 1.01l.065.199h.21l-.17.123.065.199-.17-.123-.17.123.065-.199-.17-.123h.21l.065-.199zm2.019-2.02l.065.199h.21l-.17.123.065.199-.17-.123-.17.123.065-.199-.17-.123h.21l.065-.199zm-2.019 0l.065.199h.21l-.17.123.065.199-.17-.123-.17.123.065-.199-.17-.123h.21l.065-.199zm5.048-3.029l.065.199h.21l-.17.123.065.199-.17-.123-.17.123.065-.199-.17-.123h.21l.065-.199zm0 2.02l.065.199h.21l-.17.123.065.199-.17-.123-.17.123.065-.199-.17-.123h.21l.065-.199zm0 2.019l.065.199h.21l-.17.123.065.199-.17-.123-.17.123.065-.199-.17-.123h.21l.065-.199zm2.02-4.039l.065.199h.21l-.17.123.065.199-.17-.123-.17.123.065-.199-.17-.123h.21l.065-.199zm1.009-1.009l.065.199h.21l-.17.123.065.199-.17-.123-.17.123.065-.199-.17-.123h.21l.065-.199zM8.284 5.667l.065.199h.21l-.17.123.065.199-.17-.123-.17.123.065-.199-.17-.123h.21l.065-.199zm1.009-1.01l.065.199h.21l-.17.123.065.199-.17-.123-.17.123.065-.199-.17-.123h.21l.065-.199zM8.284 7.686l.065.199h.21l-.17.123.065.199-.17-.123-.17.123.065-.199-.17-.123h.21l.065-.199zm1.009 1.01l.065.199h.21l-.17.123.065.199-.17-.123-.17.123.065-.199-.17-.123h.21l.065-.199zm0-2.02l.065.199h.21l-.17.123.065.199-.17-.123-.17.123.065-.199-.17-.123h.21l.065-.199z" fill="#fff"/></g></g><defs><clipPath id="B"><rect width="19" height="19" rx="3.091" fill="#fff"/></clipPath><path id="C" d="M4.245 3.647l.065.199h.21l-.17.123.065.199-.17-.123-.17.123.065-.199-.17-.123h.21l.065-.199z"/></defs></svg>