<svg width="19" height="20" viewBox="0 0 19 20" fill="none" xmlns="http://www.w3.org/2000/svg">
<mask id="mask0_137_2092" style="mask-type:alpha" maskUnits="userSpaceOnUse" x="0" y="0" width="19" height="20">
<circle cx="9.5" cy="9.50586" r="9.5" fill="#D9D9D9"/>
</mask>
<g mask="url(#mask0_137_2092)">
<rect x="-4.58621" y="0.00585938" width="28.5" height="19" rx="2.53333" fill="#249B30"/>
<path d="M1.43042 9.50588L9.66376 1.27254L18.2138 9.50588L9.66376 17.7392L1.43042 9.50588Z" fill="#E4EB9B"/>
<mask id="mask1_137_2092" style="mask-type:alpha" maskUnits="userSpaceOnUse" x="4" y="4" width="11" height="11">
<circle cx="9.66376" cy="9.50586" r="4.75" fill="#242F9B"/>
</mask>
<g mask="url(#mask1_137_2092)">
<rect x="4.9137" y="4.26449" width="9.5" height="10.4828" fill="#242F9B"/>
<rect x="3.01797" y="5.07253" width="17.7333" height="17.6411" rx="8.82055" transform="rotate(21.0539 3.01797 5.07253)" fill="#D9D9D9"/>
<ellipse cx="8.73245" cy="14.9226" rx="8.70131" ry="6.38045" transform="rotate(16.4505 8.73245 14.9226)" fill="#242F9B"/>
</g>
<path d="M6.15238 10.4559L6.21717 10.6553L6.42686 10.6553L6.25722 10.7786L6.32202 10.978L6.15238 10.8547L5.98274 10.978L6.04753 10.7786L5.87789 10.6553L6.08758 10.6553L6.15238 10.4559Z" fill="white"/>
<path d="M8.36902 11.0892L8.43382 11.2886L8.6435 11.2886L8.47386 11.4119L8.53866 11.6113L8.36902 11.488L8.19938 11.6113L8.26418 11.4119L8.09454 11.2886L8.30422 11.2886L8.36902 11.0892Z" fill="white"/>
<path d="M12.4857 11.4059L12.5505 11.6053L12.7602 11.6053L12.5905 11.7285L12.6553 11.9279L12.4857 11.8047L12.3161 11.9279L12.3808 11.7285L12.2112 11.6053L12.4209 11.6053L12.4857 11.4059Z" fill="white"/>
<path d="M7.10239 11.0892L7.16719 11.2886L7.37687 11.2886L7.20723 11.4119L7.27203 11.6113L7.10239 11.488L6.93275 11.6113L6.99755 11.4119L6.82791 11.2886L7.03759 11.2886L7.10239 11.0892Z" fill="white"/>
<path d="M6.15238 9.50587L6.21717 9.70529L6.42686 9.70529L6.25722 9.82854L6.32202 10.028L6.15238 9.90471L5.98274 10.028L6.04753 9.82854L5.87789 9.70529L6.08758 9.70529L6.15238 9.50587Z" fill="white"/>
<path d="M7.73575 9.50587L7.80055 9.70529L8.01023 9.70529L7.84059 9.82854L7.90539 10.028L7.73575 9.90471L7.56611 10.028L7.63091 9.82854L7.46127 9.70529L7.67095 9.70529L7.73575 9.50587Z" fill="white"/>
<path d="M11.2191 11.7225L11.2839 11.9219L11.4935 11.9219L11.3239 12.0452L11.3887 12.2446L11.2191 12.1214L11.0494 12.2446L11.1142 12.0452L10.9446 11.9219L11.1543 11.9219L11.2191 11.7225Z" fill="white"/>
<path d="M11.8524 12.3559L11.9172 12.5553L12.1269 12.5553L11.9573 12.6785L12.0221 12.878L11.8524 12.7547L11.6828 12.878L11.7476 12.6785L11.5779 12.5553L11.7876 12.5553L11.8524 12.3559Z" fill="white"/>
<path d="M10.269 12.6725L10.3338 12.872L10.5435 12.872L10.3739 12.9952L10.4387 13.1946L10.269 13.0714L10.0994 13.1946L10.1642 12.9952L9.99456 12.872L10.2042 12.872L10.269 12.6725Z" fill="white"/>
<path d="M9.63571 11.4059L9.70051 11.6053L9.9102 11.6053L9.74056 11.7285L9.80535 11.9279L9.63571 11.8047L9.46608 11.9279L9.53087 11.7285L9.36123 11.6053L9.57092 11.6053L9.63571 11.4059Z" fill="white"/>
<path d="M8.6857 12.6725L8.7505 12.872L8.96018 12.872L8.79055 12.9952L8.85534 13.1946L8.6857 13.0714L8.51606 13.1946L8.58086 12.9952L8.41122 12.872L8.62091 12.872L8.6857 12.6725Z" fill="white"/>
<path d="M9.00232 9.50587L9.06712 9.70529L9.2768 9.70529L9.10717 9.82854L9.17196 10.028L9.00232 9.90471L8.83268 10.028L8.89748 9.82854L8.72784 9.70529L8.93753 9.70529L9.00232 9.50587Z" fill="white"/>
<path d="M10.269 10.4559L10.3338 10.6553L10.5435 10.6553L10.3739 10.7786L10.4387 10.978L10.269 10.8547L10.0994 10.978L10.1642 10.7786L9.99456 10.6553L10.2042 10.6553L10.269 10.4559Z" fill="white"/>
</g>
</svg>
