<svg xmlns="http://www.w3.org/2000/svg" xmlns:xlink="http://www.w3.org/1999/xlink" width="19" height="20" fill="none" xmlns:v="https://vecta.io/nano"><mask id="A" maskUnits="userSpaceOnUse" x="0" y="0" width="19" height="20" mask-type="alpha"><circle cx="9.5" cy="9.506" r="9.5" fill="#d9d9d9"/></mask><g mask="url(#A)"><rect x="-4.586" y=".006" width="28.5" height="19" rx="2.533" fill="#249b30"/><path d="M1.43 9.506l8.233-8.233 8.55 8.233-8.55 8.233L1.43 9.506z" fill="#e4eb9b"/><mask id="B" maskUnits="userSpaceOnUse" x="4" y="4" width="11" height="11" mask-type="alpha"><circle cx="9.664" cy="9.506" r="4.75" fill="#242f9b"/></mask><g mask="url(#B)"><path fill="#242f9b" d="M4.914 4.264h9.5v10.483h-9.5z"/><rect x="3.018" y="5.073" width="17.733" height="17.641" rx="8.821" transform="rotate(21.054 3.018 5.073)" fill="#d9d9d9"/><ellipse cx="8.732" cy="14.923" rx="8.701" ry="6.38" transform="rotate(16.451 8.732 14.923)" fill="#242f9b"/></g><use xlink:href="#D" fill="#fff"/><use xlink:href="#D" x="2.217" y="0.633" fill="#fff"/><use xlink:href="#D" x="6.334" y="0.95" fill="#fff"/><use xlink:href="#D" x="0.95" y="0.633" fill="#fff"/><use xlink:href="#D" y="-0.95" fill="#fff"/><use xlink:href="#D" x="1.584" y="-0.95" fill="#fff"/><use xlink:href="#D" x="5.067" y="1.267" fill="#fff"/><path d="M11.852 12.356l.065.199h.21l-.17.123.065.2-.17-.123-.17.123.065-.2-.17-.123h.21l.065-.199zm-1.583.317l.065.2h.21l-.17.123.065.199-.17-.123-.17.123.065-.199-.17-.123h.21l.065-.2z" fill="#fff"/><use xlink:href="#D" x="3.484" y="0.95" fill="#fff"/><path d="M8.686 12.673l.065.2h.21l-.17.123.065.199-.17-.123-.17.123.065-.199-.17-.123h.21l.065-.2z" fill="#fff"/><use xlink:href="#D" x="2.85" y="-0.95" fill="#fff"/><use xlink:href="#D" x="4.117" fill="#fff"/></g><defs ><path id="D" d="M6.152 10.456l.065.199h.21l-.17.123.065.199-.17-.123-.17.123.065-.199-.17-.123h.21l.065-.199z"/></defs></svg>