<svg xmlns="http://www.w3.org/2000/svg" width="133" height="30" fill="#f9f9f9" xmlns:v="https://vecta.io/nano"><path d="M48.793 24h-3.6V12.8h-4.2V10h12v2.8h-4.2V24zm8.902-10.4c1.293-.267 2.427-.4 3.4-.4h.9c.907 0 1.633.273 2.18.82s.82 1.273.82 2.18V24h-3.5v-7.4a.68.68 0 0 0-.7-.7h-.7c-.507 0-.973.027-1.4.08l-1 .12V24h-3.5V10h3.5v3.6zm13.498.2V24h-3.5v-7.5h-1.5v-2.7h5zm-3.5-4h3.5v2.8h-3.5V9.8zm5.106 11.4l6.4.3a.68.68 0 0 0 .7-.7v-.7h-4.3c-.907 0-1.633-.273-2.18-.82s-.82-1.273-.82-2.18v-.7c0-.907.273-1.633.82-2.18s1.273-.82 2.18-.82h6.8V16h-5.6a.68.68 0 0 0-.7.7.68.68 0 0 0 .7.7h3.6c.907 0 1.633.273 2.18.82s.82 1.273.82 2.18v.8c0 .907-.273 1.633-.82 2.18s-1.273.82-2.18.82c-2.36 0-4.893-.133-7.6-.4v-2.6zm23.002 2.6l-7.4.4c-1.307 0-2.267-.307-2.88-.92s-.92-1.573-.92-2.88V14c0-1.4.313-2.413.94-3.04.64-.64 1.66-.96 3.06-.96h7.2v2.8h-6.4c-.8 0-1.2.4-1.2 1.2v6.4c0 .307.087.553.26.74a.99.99 0 0 0 .7.26h.92l1.04-.04 1.08-.04 1.42-.08 2.18-.14v2.7zm12.202-2.8c0 1-.287 1.787-.86 2.36-.56.56-1.34.84-2.34.84h-4.6c-1 0-1.787-.28-2.36-.84-.56-.573-.84-1.36-.84-2.36v-4.6c0-1 .28-1.78.84-2.34.573-.573 1.36-.86 2.36-.86h4.6c1 0 1.78.287 2.34.86.573.56.86 1.34.86 2.34V21zm-3.5-4.3c0-.533-.267-.8-.8-.8h-2.4c-.533 0-.8.267-.8.8v4c0 .533.267.8.8.8h2.4c.533 0 .8-.267.8-.8v-4zm11.398-.4c-.84 0-1.707.2-2.6.6V24h-3.5V13.4h3.1l.2 1.3c1.146-1 2.346-1.5 3.6-1.5h.9v3.1h-1.7zm10.208 7.7l-.2-1c-.626.413-1.273.72-1.94.92-.653.187-1.206.28-1.66.28h-.9c-.906 0-1.633-.273-2.18-.82s-.82-1.273-.82-2.18v-4.6c0-1 .28-1.78.84-2.34.574-.573 1.36-.86 2.36-.86h4.1V10h3.5v14h-3.1zm-2.8-2.7c.707 0 1.507-.133 2.4-.4v-4.8h-3c-.533 0-.8.267-.8.8v3.7a.68.68 0 0 0 .7.7h.7zM31 1.5H19A1.5 1.5 0 0 0 17.508 3L17.5 16.5l3-3H31c.825 0 1.5-.675 1.5-1.5V3c0-.825-.675-1.5-1.5-1.5zm-8.25 6.75h-1.5v-1.5h1.5v1.5zm3 0h-1.5v-1.5h1.5v1.5zm3 0h-1.5v-1.5h1.5v1.5zM3 1.5h12c.825 0 1.5.675 1.5 1.5v13.5l-3-3H3c-.825 0-1.5-.675-1.5-1.5V3c0-.825.675-1.5 1.5-1.5zm6 6.75c.412 0 .75-.338.75-.75v-3c0-.412-.338-.75-.75-.75s-.75.338-.75.75v3c0 .412.338.75.75.75zm-.75 3h1.5v-1.5h-1.5v1.5zM17 24.75a10.61 10.61 0 0 1 4.24.9c1.08.48 1.76 1.56 1.76 2.73V29c0 .55-.45 1-1 1H12c-.55 0-1-.45-1-1v-.61c0-1.18.68-2.26 1.76-2.73a10.44 10.44 0 0 1 4.24-.91zM9 25c1.1 0 2-.9 2-2s-.9-2-2-2-2 .9-2 2 .9 2 2 2zm1.13 1.1c-.37-.06-.74-.1-1.13-.1a6.95 6.95 0 0 0-2.78.58A2.01 2.01 0 0 0 5 28.43V29c0 .55.45 1 1 1h3.5v-1.61a4.5 4.5 0 0 1 .63-2.29zM25 25c1.1 0 2-.9 2-2s-.9-2-2-2-2 .9-2 2 .9 2 2 2zm4 3.43a2.01 2.01 0 0 0-1.22-1.85A6.95 6.95 0 0 0 25 26c-.39 0-.76.04-1.13.1a4.5 4.5 0 0 1 .63 2.29V30H28c.55 0 1-.45 1-1v-.57zM17 18c1.66 0 3 1.34 3 3s-1.34 3-3 3-3-1.34-3-3 1.34-3 3-3z"/></svg>