<svg width="327" height="695" viewBox="0 0 327 695" fill="none" xmlns="http://www.w3.org/2000/svg">
<g opacity="0.25">
<rect width="327" height="695" rx="66.3168" fill="#212121"/>
<rect x="2.70264" y="3.979" width="321.595" height="687.042" rx="66.3168" fill="#333333"/>
<rect x="5.40503" y="6.63171" width="316.19" height="681.737" rx="66.3168" fill="#212121"/>
<mask id="mask0_311_4988" style="mask-type:alpha" maskUnits="userSpaceOnUse" x="24" y="63" width="278" height="599">
<rect x="24.3223" y="63.6641" width="277.004" height="598.177" rx="42.4428" fill="#DBDFFD"/>
</mask>
<g mask="url(#mask0_311_4988)">
<path d="M24.3223 87.5381C24.3223 74.3528 35.011 63.6641 48.1963 63.6641H301.326V661.842H24.3223V87.5381Z" fill="#DBDFFD"/>
<rect x="45.9421" y="115.391" width="233.764" height="75.6012" rx="13.2634" fill="#F9F9F9"/>
<rect x="45.9421" y="213.54" width="233.764" height="75.6012" rx="13.2634" fill="#F9F9F9"/>
<rect x="45.9421" y="330.258" width="233.764" height="75.6012" rx="13.2634" fill="#F9F9F9"/>
<rect x="35.1321" y="588.893" width="255.384" height="45.0954" rx="10.6107" fill="#B9BEE2"/>
<path d="M82.7041 615.937V608.487H80.9641V607.321H82.7041V604.821H84.0725V607.321H86.1335V608.487H84.0725V615.937H82.7041ZM93.3328 619.417C93.0062 619.417 92.6627 619.405 92.3024 619.383C91.9532 619.372 91.6154 619.355 91.2888 619.332C90.9734 619.321 90.6919 619.298 90.4441 619.265V618.166C90.8157 618.178 91.1536 618.189 91.4577 618.2C91.773 618.223 92.0602 618.234 92.3192 618.234C92.5895 618.245 92.8317 618.251 93.0457 618.251C93.6989 618.251 94.2113 618.2 94.583 618.099C94.9659 617.998 95.2474 617.829 95.4276 617.592C95.6078 617.367 95.7204 617.063 95.7655 616.68C95.8218 616.297 95.85 615.83 95.85 615.278V614.771H95.7486C95.6585 614.996 95.5065 615.204 95.2925 615.396C95.0785 615.587 94.7857 615.739 94.414 615.852C94.0424 615.965 93.5581 616.021 92.9612 616.021C92.3305 616.021 91.8181 615.959 91.4239 615.835C91.041 615.7 90.7482 615.497 90.5454 615.227C90.3427 614.945 90.2019 614.596 90.1231 614.18C90.0555 613.763 90.0218 613.267 90.0218 612.693V607.321H91.407V612.203C91.407 612.789 91.4295 613.256 91.4746 613.605C91.5196 613.954 91.6154 614.219 91.7618 614.399C91.9194 614.568 92.1391 614.681 92.4206 614.737C92.7022 614.793 93.0682 614.822 93.5187 614.822C94.0818 614.822 94.521 614.754 94.8364 614.619C95.1517 614.472 95.3769 614.264 95.5121 613.994C95.6585 613.723 95.7486 613.403 95.7824 613.031C95.8274 612.648 95.85 612.22 95.85 611.747V607.321H97.2183V614.872C97.2183 615.694 97.1733 616.393 97.0832 616.967C97.0043 617.553 96.8298 618.02 96.5595 618.369C96.3004 618.73 95.9119 618.994 95.3938 619.163C94.8758 619.332 94.1888 619.417 93.3328 619.417ZM102.124 619.298V607.321H103.374L103.425 608.554H103.526C103.695 608.171 103.926 607.878 104.219 607.676C104.512 607.473 104.844 607.343 105.216 607.287C105.587 607.22 105.97 607.186 106.364 607.186C106.984 607.186 107.496 607.253 107.902 607.388C108.318 607.524 108.645 607.76 108.881 608.098C109.118 608.425 109.287 608.875 109.388 609.449C109.49 610.024 109.54 610.745 109.54 611.612C109.54 612.49 109.49 613.222 109.388 613.808C109.298 614.382 109.135 614.833 108.898 615.159C108.662 615.486 108.341 615.723 107.935 615.869C107.53 616.004 107.018 616.072 106.398 616.072C105.936 616.072 105.525 616.032 105.165 615.953C104.805 615.886 104.489 615.762 104.219 615.582C103.96 615.402 103.752 615.154 103.594 614.838H103.509V619.298H102.124ZM105.824 614.838C106.342 614.838 106.753 614.805 107.057 614.737C107.372 614.67 107.609 614.529 107.767 614.315C107.924 614.09 108.031 613.769 108.088 613.352C108.144 612.924 108.172 612.35 108.172 611.629C108.172 610.908 108.144 610.334 108.088 609.906C108.031 609.478 107.924 609.157 107.767 608.943C107.609 608.729 107.372 608.588 107.057 608.52C106.753 608.442 106.342 608.402 105.824 608.402C105.249 608.402 104.793 608.487 104.455 608.655C104.129 608.813 103.892 609.067 103.746 609.416C103.633 609.686 103.566 610.007 103.543 610.379C103.521 610.75 103.509 611.167 103.509 611.629C103.509 612.102 103.521 612.518 103.543 612.879C103.566 613.228 103.622 613.521 103.712 613.757C103.87 614.151 104.118 614.433 104.455 614.602C104.793 614.76 105.249 614.838 105.824 614.838ZM117.592 616.072C116.894 616.072 116.308 616.027 115.835 615.937C115.373 615.846 115.002 615.7 114.72 615.497C114.438 615.283 114.224 615.007 114.078 614.67C113.932 614.32 113.836 613.898 113.791 613.403C113.746 612.907 113.723 612.321 113.723 611.646C113.723 610.846 113.757 610.165 113.825 609.602C113.892 609.027 114.044 608.565 114.281 608.216C114.529 607.856 114.911 607.597 115.43 607.439C115.948 607.27 116.646 607.186 117.524 607.186C118.189 607.186 118.729 607.236 119.146 607.338C119.574 607.439 119.912 607.597 120.16 607.811C120.407 608.025 120.588 608.312 120.7 608.672C120.824 609.022 120.903 609.444 120.937 609.939C120.971 610.424 120.987 610.987 120.987 611.629V612.085H115.092C115.092 612.67 115.12 613.149 115.176 613.521C115.232 613.892 115.345 614.18 115.514 614.382C115.694 614.585 115.97 614.726 116.342 614.805C116.725 614.884 117.243 614.923 117.896 614.923C118.166 614.923 118.465 614.917 118.791 614.906C119.118 614.884 119.445 614.855 119.771 614.822C120.098 614.788 120.391 614.754 120.65 614.72V615.835C120.413 615.88 120.12 615.92 119.771 615.953C119.433 615.987 119.073 616.015 118.69 616.038C118.318 616.06 117.952 616.072 117.592 616.072ZM119.653 611.392V610.936C119.653 610.35 119.619 609.889 119.552 609.551C119.484 609.202 119.366 608.943 119.197 608.774C119.039 608.594 118.819 608.475 118.538 608.419C118.256 608.363 117.907 608.335 117.491 608.335C116.95 608.335 116.522 608.374 116.207 608.453C115.891 608.52 115.655 608.65 115.497 608.841C115.339 609.033 115.232 609.309 115.176 609.669C115.12 610.029 115.092 610.508 115.092 611.105H119.974L119.653 611.392ZM132.196 615.937V608.487H130.456V607.321H132.196V604.821H133.564V607.321H135.625V608.487H133.564V615.937H132.196ZM142.945 616.072C142.247 616.072 141.661 616.027 141.188 615.937C140.726 615.846 140.355 615.7 140.073 615.497C139.791 615.283 139.577 615.007 139.431 614.67C139.285 614.32 139.189 613.898 139.144 613.403C139.099 612.907 139.076 612.321 139.076 611.646C139.076 610.846 139.11 610.165 139.178 609.602C139.245 609.027 139.397 608.565 139.634 608.216C139.882 607.856 140.264 607.597 140.783 607.439C141.301 607.27 141.999 607.186 142.877 607.186C143.542 607.186 144.082 607.236 144.499 607.338C144.927 607.439 145.265 607.597 145.513 607.811C145.76 608.025 145.941 608.312 146.053 608.672C146.177 609.022 146.256 609.444 146.29 609.939C146.324 610.424 146.34 610.987 146.34 611.629V612.085H140.445C140.445 612.67 140.473 613.149 140.529 613.521C140.585 613.892 140.698 614.18 140.867 614.382C141.047 614.585 141.323 614.726 141.695 614.805C142.078 614.884 142.596 614.923 143.249 614.923C143.519 614.923 143.818 614.917 144.144 614.906C144.471 614.884 144.797 614.855 145.124 614.822C145.451 614.788 145.744 614.754 146.003 614.72V615.835C145.766 615.88 145.473 615.92 145.124 615.953C144.786 615.987 144.426 616.015 144.043 616.038C143.671 616.06 143.305 616.072 142.945 616.072ZM145.006 611.392V610.936C145.006 610.35 144.972 609.889 144.904 609.551C144.837 609.202 144.719 608.943 144.55 608.774C144.392 608.594 144.172 608.475 143.891 608.419C143.609 608.363 143.26 608.335 142.843 608.335C142.303 608.335 141.875 608.374 141.56 608.453C141.244 608.52 141.008 608.65 140.85 608.841C140.692 609.033 140.585 609.309 140.529 609.669C140.473 610.029 140.445 610.508 140.445 611.105H145.327L145.006 611.392ZM149.911 615.937L153.171 611.561L150.029 607.321H151.6L153.982 610.531H154.084L156.483 607.321H157.986L154.861 611.544L158.121 615.937H156.533L154.033 612.592H153.932L151.431 615.937H149.911ZM162.284 615.937V608.487H160.544V607.321H162.284V604.821H163.652V607.321H165.713V608.487H163.652V615.937H162.284Z" fill="#363062"/>
<g filter="url(#filter0_d_311_4988)">
<path d="M24.3813 87.224C24.3813 74.0388 35.0701 63.35 48.2554 63.35H96.0919V661.656H24.3813V87.224Z" fill="#646FD4"/>
</g>
<path d="M35.9675 100.913V96.5436H34.9088V95.1696H35.9675V94.7754C35.9675 94.3399 35.9937 93.9871 36.0463 93.7168C36.0989 93.439 36.1927 93.2212 36.3279 93.0636C36.463 92.9059 36.6507 92.7933 36.891 92.7257C37.1387 92.6506 37.4466 92.6056 37.8145 92.5905C38.1899 92.568 38.6366 92.5568 39.1547 92.5568V93.7956C38.8468 93.7956 38.5991 93.8031 38.4114 93.8181C38.2312 93.8331 38.096 93.8669 38.0059 93.9195C37.9158 93.9645 37.8558 94.0359 37.8257 94.1335C37.8032 94.2236 37.7919 94.355 37.7919 94.5277V95.1696H39.1547V96.5436H37.7919V100.913H35.9675ZM42.1226 100.913V95.1696H43.8344L43.8795 96.1494H43.9808C44.086 95.8716 44.2174 95.6539 44.375 95.4962C44.5402 95.3385 44.7392 95.2297 44.9719 95.1696C45.2047 95.1095 45.475 95.0795 45.7828 95.0795V96.735C45.3098 96.735 44.9381 96.7951 44.6678 96.9152C44.3975 97.0354 44.2061 97.2418 44.0935 97.5347C43.9808 97.82 43.9245 98.2217 43.9245 98.7397V100.913H42.1226ZM48.7088 93.9983V92.5455H50.5671V93.9983H48.7088ZM48.7314 100.913V95.1696H50.5558V100.913H48.7314ZM56.6238 101.003C56.0832 101.003 55.6364 100.97 55.2836 100.902C54.9307 100.834 54.6491 100.729 54.4389 100.587C54.2362 100.437 54.0822 100.245 53.9771 100.012C53.8795 99.7796 53.8157 99.5018 53.7857 99.1789C53.7632 98.8561 53.7519 98.4807 53.7519 98.0527C53.7519 97.5347 53.7744 97.0879 53.8195 96.7125C53.872 96.3371 53.9846 96.0293 54.1573 95.789C54.33 95.5488 54.5966 95.3723 54.9569 95.2597C55.3248 95.1396 55.8204 95.0795 56.4436 95.0795C56.9466 95.0795 57.3558 95.117 57.6711 95.1921C57.9865 95.2597 58.2343 95.3686 58.4144 95.5187C58.6022 95.6614 58.7335 95.8491 58.8086 96.0818C58.8912 96.3146 58.9438 96.5961 58.9663 96.9265C58.9888 97.2494 59.0001 97.6248 59.0001 98.0527V98.492H55.5426C55.5426 98.7472 55.5538 98.9537 55.5764 99.1114C55.5989 99.2615 55.659 99.3742 55.7566 99.4492C55.8542 99.5243 56.0043 99.5769 56.2071 99.6069C56.4098 99.6294 56.6913 99.6407 57.0517 99.6407C57.1944 99.6407 57.3633 99.6369 57.5585 99.6294C57.7537 99.6219 57.9565 99.6107 58.1667 99.5957C58.3844 99.5806 58.5871 99.5656 58.7748 99.5506V100.812C58.6097 100.85 58.4069 100.883 58.1667 100.913C57.9339 100.943 57.6824 100.966 57.4121 100.981C57.1418 100.996 56.879 101.003 56.6238 101.003ZM57.2995 97.7374V97.5572C57.2995 97.2869 57.2845 97.0729 57.2544 96.9152C57.2319 96.7576 57.1869 96.6412 57.1193 96.5661C57.0592 96.4835 56.9729 96.431 56.8603 96.4084C56.7476 96.3859 56.605 96.3747 56.4323 96.3747C56.2371 96.3747 56.0794 96.3897 55.9593 96.4197C55.8467 96.4422 55.7603 96.4948 55.7003 96.5774C55.6402 96.66 55.5989 96.7801 55.5764 96.9378C55.5538 97.0954 55.5426 97.3019 55.5426 97.5572H57.4909L57.2995 97.7374ZM62.2019 100.913V95.1696H63.9137L63.9588 95.8679H64.0601C64.1728 95.6726 64.3117 95.5187 64.4768 95.4061C64.642 95.286 64.8297 95.2034 65.0399 95.1583C65.2502 95.1058 65.4792 95.0795 65.7269 95.0795C66.1099 95.0795 66.4139 95.1283 66.6392 95.2259C66.8719 95.3235 67.0484 95.4662 67.1685 95.6539C67.2886 95.8416 67.3675 96.0743 67.405 96.3521C67.4501 96.6299 67.4726 96.9528 67.4726 97.3207V100.913H65.6594V97.8725C65.6594 97.5647 65.6519 97.3244 65.6368 97.1517C65.6218 96.9716 65.588 96.8402 65.5355 96.7576C65.4829 96.675 65.4003 96.6262 65.2877 96.6112C65.1826 96.5886 65.0399 96.5774 64.8597 96.5774C64.672 96.5774 64.5181 96.5999 64.398 96.6449C64.2854 96.6825 64.199 96.7501 64.139 96.8477C64.0864 96.9453 64.0489 97.0842 64.0263 97.2644C64.0113 97.4371 64.0038 97.6548 64.0038 97.9176V100.913H62.2019ZM72.5346 101.003C72.2043 101.003 71.919 100.958 71.6787 100.868C71.4385 100.778 71.2432 100.624 71.0931 100.407C70.9429 100.181 70.8303 99.8772 70.7552 99.4943C70.6876 99.1114 70.6539 98.6309 70.6539 98.0527C70.6539 97.4821 70.6876 97.0053 70.7552 96.6224C70.8228 96.232 70.9317 95.9279 71.0818 95.7102C71.232 95.4849 71.4234 95.3235 71.6562 95.2259C71.8965 95.1283 72.1855 95.0795 72.5234 95.0795C72.7486 95.0795 72.9589 95.0983 73.1541 95.1358C73.3568 95.1734 73.5407 95.2409 73.7059 95.3385C73.8711 95.4361 74.0138 95.5825 74.1339 95.7778H74.224V92.5455H76.0372V100.913H74.3141L74.269 100.226H74.1789C74.0663 100.444 73.9199 100.609 73.7397 100.722C73.567 100.827 73.3756 100.898 73.1653 100.936C72.9626 100.981 72.7524 101.003 72.5346 101.003ZM73.3455 99.5168C73.5783 99.5168 73.751 99.4905 73.8636 99.438C73.9837 99.3779 74.0701 99.2728 74.1226 99.1226C74.1677 98.9875 74.1939 98.8336 74.2015 98.6609C74.2165 98.4807 74.224 98.2742 74.224 98.0415C74.224 97.8087 74.2165 97.606 74.2015 97.4333C74.1939 97.2606 74.1677 97.1142 74.1226 96.9941C74.0776 96.8289 73.995 96.7163 73.8749 96.6562C73.7547 96.5961 73.5783 96.5661 73.3455 96.5661C73.1428 96.5661 72.9814 96.5811 72.8613 96.6112C72.7411 96.6412 72.651 96.705 72.591 96.8026C72.5384 96.8927 72.5046 97.0354 72.4896 97.2306C72.4746 97.4258 72.4671 97.6961 72.4671 98.0415C72.4671 98.3868 72.4746 98.6609 72.4896 98.8636C72.5046 99.0588 72.5384 99.2052 72.591 99.3028C72.651 99.3929 72.7411 99.453 72.8613 99.483C72.9814 99.5056 73.1428 99.5168 73.3455 99.5168ZM81.6527 101.003C81.4124 101.003 81.1496 100.996 80.8643 100.981C80.5865 100.966 80.3125 100.947 80.0422 100.925C79.7794 100.902 79.5429 100.876 79.3327 100.846V99.5731C79.4528 99.5806 79.588 99.5919 79.7381 99.6069C79.8958 99.6219 80.0572 99.6332 80.2224 99.6407C80.3876 99.6482 80.5452 99.6557 80.6954 99.6632C80.8531 99.6632 80.9957 99.6632 81.1234 99.6632C81.4763 99.6632 81.7278 99.652 81.8779 99.6294C82.0356 99.6069 82.1332 99.5619 82.1708 99.4943C82.2158 99.4192 82.2383 99.3216 82.2383 99.2015C82.2383 99.0813 82.2233 98.995 82.1933 98.9424C82.1708 98.8899 82.1182 98.8523 82.0356 98.8298C81.9605 98.8073 81.8291 98.7848 81.6414 98.7622L80.3012 98.5933C79.9784 98.5483 79.7344 98.4544 79.5692 98.3118C79.404 98.1616 79.2914 97.9626 79.2313 97.7149C79.1788 97.4596 79.1525 97.163 79.1525 96.8251C79.1525 96.4272 79.2125 96.1156 79.3327 95.8904C79.4528 95.6576 79.618 95.4849 79.8282 95.3723C80.046 95.2522 80.3012 95.1734 80.594 95.1358C80.8944 95.0983 81.2135 95.0795 81.5513 95.0795C81.7916 95.0795 82.0394 95.087 82.2946 95.102C82.5499 95.117 82.7939 95.1396 83.0267 95.1696C83.2594 95.1921 83.4509 95.2184 83.6011 95.2484V96.5098C83.4134 96.4948 83.2144 96.4798 83.0042 96.4648C82.8014 96.4497 82.6062 96.4385 82.4185 96.431C82.2308 96.4235 82.0732 96.4197 81.9455 96.4197C81.6452 96.4197 81.4124 96.4272 81.2473 96.4422C81.0896 96.4572 80.9807 96.4948 80.9207 96.5549C80.8681 96.6149 80.8418 96.7125 80.8418 96.8477C80.8418 96.9528 80.8493 97.0354 80.8643 97.0954C80.8869 97.148 80.9357 97.1855 81.0107 97.2081C81.0858 97.2306 81.2022 97.2531 81.3599 97.2756L82.7113 97.4446C82.9666 97.4746 83.1844 97.5347 83.3646 97.6248C83.5447 97.7149 83.6799 97.8763 83.77 98.109C83.8676 98.3418 83.9164 98.6909 83.9164 99.1564C83.9164 99.5769 83.8601 99.911 83.7475 100.159C83.6424 100.399 83.4884 100.583 83.2857 100.711C83.083 100.831 82.8427 100.91 82.5649 100.947C82.2946 100.985 81.9906 101.003 81.6527 101.003Z" fill="#F9F9F9"/>
<rect x="47.3289" y="122.477" width="27.0248" height="26.5267" rx="6.63168" fill="#F9F9F9"/>
<rect x="47.3289" y="179.509" width="27.0248" height="26.5267" rx="6.63168" fill="#F9F9F9"/>
<rect x="47.3289" y="231.236" width="27.0248" height="26.5267" rx="6.63168" fill="#F9F9F9"/>
<rect x="47.3289" y="279.857" width="27.0248" height="26.5267" rx="6.63168" fill="#F9F9F9"/>
</g>
<rect x="66.2107" y="6.63171" width="194.579" height="75.6012" rx="17.2424" fill="#212121"/>
<rect width="9.45867" height="9.28435" rx="4.64218" transform="matrix(1 0 0 -1 159.446 33.1584)" fill="#4D4C7D"/>
<rect width="5.40496" height="5.30534" rx="2.65267" transform="matrix(1 0 0 -1 144.583 31.832)" fill="#4D4C7D"/>
<rect x="218.901" y="599.504" width="60.8058" height="23.874" rx="7.95802" fill="#F9F9F9"/>
<path d="M231.591 616.294C231.2 616.294 230.78 616.283 230.332 616.26C229.884 616.237 229.447 616.208 229.022 616.174C228.608 616.139 228.234 616.099 227.901 616.053V613.898C228.096 613.909 228.309 613.926 228.539 613.949C228.769 613.961 228.999 613.972 229.229 613.984C229.458 613.995 229.677 614.007 229.884 614.018C230.091 614.018 230.28 614.018 230.453 614.018C231.004 614.018 231.395 614.007 231.625 613.984C231.867 613.961 232.016 613.909 232.074 613.829C232.131 613.748 232.16 613.628 232.16 613.467C232.16 613.352 232.142 613.266 232.108 613.208C232.085 613.139 232.01 613.093 231.884 613.07C231.769 613.036 231.568 613.001 231.28 612.967L229.229 612.708C228.769 612.639 228.424 612.49 228.194 612.26C227.964 612.018 227.809 611.702 227.728 611.311C227.659 610.909 227.625 610.444 227.625 609.915C227.625 609.306 227.717 608.823 227.901 608.466C228.096 608.099 228.361 607.828 228.694 607.656C229.039 607.472 229.441 607.357 229.901 607.311C230.372 607.254 230.872 607.225 231.401 607.225C231.792 607.225 232.194 607.236 232.608 607.259C233.022 607.282 233.407 607.311 233.763 607.346C234.131 607.38 234.436 607.426 234.677 607.484V609.622C234.367 609.599 234.056 609.581 233.746 609.57C233.436 609.547 233.148 609.53 232.884 609.518C232.631 609.507 232.424 609.501 232.263 609.501C231.78 609.501 231.418 609.512 231.177 609.535C230.947 609.547 230.798 609.587 230.729 609.656C230.66 609.714 230.625 609.823 230.625 609.984C230.625 610.099 230.637 610.191 230.66 610.26C230.694 610.317 230.763 610.363 230.867 610.398C230.97 610.421 231.148 610.449 231.401 610.484L233.28 610.725C233.66 610.771 233.987 610.863 234.263 611.001C234.551 611.139 234.769 611.392 234.919 611.76C235.079 612.116 235.16 612.662 235.16 613.398C235.16 614.076 235.068 614.61 234.884 615.001C234.712 615.381 234.459 615.662 234.125 615.846C233.804 616.03 233.424 616.151 232.987 616.208C232.562 616.266 232.097 616.294 231.591 616.294ZM242.891 616.294C242.029 616.294 241.316 616.243 240.753 616.139C240.189 616.024 239.741 615.858 239.408 615.639C239.086 615.409 238.845 615.122 238.684 614.777C238.534 614.421 238.436 613.995 238.39 613.501C238.356 612.995 238.339 612.421 238.339 611.777C238.339 610.972 238.373 610.283 238.442 609.708C238.523 609.133 238.695 608.662 238.959 608.294C239.224 607.926 239.643 607.656 240.218 607.484C240.793 607.311 241.58 607.225 242.58 607.225C243.385 607.225 244.04 607.277 244.546 607.38C245.052 607.484 245.443 607.645 245.718 607.863C246.006 608.081 246.213 608.369 246.339 608.725C246.466 609.07 246.54 609.501 246.563 610.018C246.598 610.524 246.615 611.11 246.615 611.777V612.449H241.546C241.546 612.794 241.563 613.07 241.598 613.277C241.632 613.472 241.712 613.622 241.839 613.725C241.977 613.817 242.19 613.875 242.477 613.898C242.776 613.921 243.172 613.932 243.667 613.932C243.885 613.932 244.132 613.926 244.408 613.915C244.695 613.903 245 613.892 245.322 613.881C245.655 613.858 245.971 613.835 246.27 613.812V615.967C246.04 616.036 245.736 616.093 245.356 616.139C244.989 616.185 244.592 616.22 244.167 616.243C243.741 616.277 243.316 616.294 242.891 616.294ZM243.58 611.277V611.001C243.58 610.622 243.569 610.323 243.546 610.104C243.523 609.886 243.471 609.731 243.391 609.639C243.322 609.535 243.218 609.466 243.08 609.432C242.954 609.397 242.782 609.38 242.563 609.38C242.333 609.38 242.149 609.397 242.011 609.432C241.885 609.466 241.787 609.535 241.718 609.639C241.649 609.742 241.603 609.903 241.58 610.122C241.557 610.34 241.546 610.633 241.546 611.001H243.874L243.58 611.277ZM250.202 616.156V607.363H253.34L253.409 608.38H253.564C253.759 608.081 253.983 607.851 254.236 607.69C254.501 607.518 254.782 607.397 255.081 607.328C255.391 607.259 255.696 607.225 255.995 607.225C256.57 607.225 257.024 607.3 257.357 607.449C257.702 607.599 257.961 607.823 258.133 608.122C258.317 608.409 258.432 608.765 258.478 609.191C258.535 609.616 258.564 610.104 258.564 610.656V616.156H255.305V611.518C255.305 611.104 255.294 610.783 255.271 610.553C255.259 610.323 255.225 610.156 255.167 610.053C255.11 609.949 255.018 609.886 254.891 609.863C254.776 609.829 254.621 609.811 254.426 609.811C254.207 609.811 254.029 609.834 253.891 609.88C253.765 609.915 253.673 609.995 253.615 610.122C253.558 610.237 253.518 610.409 253.495 610.639C253.472 610.857 253.46 611.162 253.46 611.553V616.156H250.202ZM264.861 616.294C264.379 616.294 263.959 616.225 263.603 616.088C263.258 615.95 262.971 615.714 262.741 615.381C262.522 615.047 262.361 614.587 262.258 614.001C262.154 613.415 262.103 612.679 262.103 611.794C262.103 610.898 262.154 610.156 262.258 609.57C262.361 608.984 262.528 608.518 262.758 608.173C262.988 607.828 263.275 607.587 263.62 607.449C263.976 607.311 264.396 607.242 264.879 607.242C265.201 607.242 265.499 607.271 265.775 607.328C266.063 607.374 266.327 607.472 266.568 607.622C266.81 607.759 267.028 607.978 267.224 608.277H267.379V603.345H270.638V616.156H267.5L267.431 615.139H267.258C267.086 615.461 266.873 615.708 266.62 615.881C266.367 616.042 266.091 616.151 265.793 616.208C265.494 616.266 265.183 616.294 264.861 616.294ZM266.379 613.725C266.666 613.725 266.873 613.691 267 613.622C267.137 613.553 267.229 613.415 267.275 613.208C267.321 613.024 267.35 612.817 267.362 612.587C267.373 612.346 267.379 612.07 267.379 611.76C267.379 611.449 267.373 611.185 267.362 610.967C267.362 610.737 267.339 610.541 267.293 610.38C267.247 610.139 267.155 609.984 267.017 609.915C266.879 609.846 266.666 609.811 266.379 609.811C266.126 609.811 265.93 609.829 265.793 609.863C265.666 609.886 265.568 609.961 265.499 610.087C265.442 610.214 265.402 610.409 265.379 610.673C265.367 610.938 265.361 611.3 265.361 611.76C265.361 612.219 265.367 612.587 265.379 612.863C265.402 613.128 265.442 613.323 265.499 613.449C265.568 613.564 265.666 613.639 265.793 613.674C265.93 613.708 266.126 613.725 266.379 613.725Z" fill="#333333"/>
</g>
<defs>
<filter id="filter0_d_311_4988" x="23.055" y="58.0446" width="82.3211" height="608.916" filterUnits="userSpaceOnUse" color-interpolation-filters="sRGB">
<feFlood flood-opacity="0" result="BackgroundImageFix"/>
<feColorMatrix in="SourceAlpha" type="matrix" values="0 0 0 0 0 0 0 0 0 0 0 0 0 0 0 0 0 0 127 0" result="hardAlpha"/>
<feOffset dx="3.97901"/>
<feGaussianBlur stdDeviation="2.65267"/>
<feComposite in2="hardAlpha" operator="out"/>
<feColorMatrix type="matrix" values="0 0 0 0 0 0 0 0 0 0 0 0 0 0 0 0 0 0 0.25 0"/>
<feBlend mode="normal" in2="BackgroundImageFix" result="effect1_dropShadow_311_4988"/>
<feBlend mode="normal" in="SourceGraphic" in2="effect1_dropShadow_311_4988" result="shape"/>
</filter>
</defs>
</svg>
