<svg xmlns="http://www.w3.org/2000/svg" width="457" height="448" fill="none" xmlns:v="https://vecta.io/nano"><style><![CDATA[.B{fill-rule:evenodd}.C{fill:#000}.D{fill:#fff}.E{fill-opacity:.6}.F{fill:#e6e6e6}.G{fill-opacity:.16}.H{stroke:#2fa910}.I{fill:#dbdffd}.J{fill:#d0c6ac}.K{fill-opacity:.1}.L{fill-opacity:.7}.M{fill:#ff4f6d}.N{fill:#d08b5b}.O{fill-opacity:.24}.P{color-interpolation-filters:sRGB}]]></style><path d="M92 26h202v21H92z" class="I"/><g filter="url(#V)"><path d="M84 0h344c13.807 0 25 11.193 25 25v390c0 13.807-11.193 25-25 25H84V0z" fill="#212121"/><path d="M4 25C4 11.193 15.193 0 29 0h55v440H29c-13.807 0-25-11.193-25-25V25z" fill="#4d4c7d"/><path d="M119.877 50l1.29-5.55h-2.85V42.2h3.36l1.11-4.86h-3.36v-2.25h3.87l1.35-5.73h2.31l-1.35 5.73h4.71l1.35-5.73h2.31l-1.35 5.73h2.91v2.25h-3.42l-1.11 4.86h3.42v2.25h-3.96l-1.26 5.55h-2.31l1.29-5.55h-4.74l-1.26 5.55h-2.31zm4.08-7.8h4.74l1.11-4.86h-4.71l-1.14 4.86z" class="I"/></g><path d="M145.14 47.16c-.4 0-.833-.013-1.3-.04l-1.34-.1-1.18-.14V45.2l.76.06.92.06.94.04.9.02c.64 0 1.1-.04 1.38-.12.293-.08.48-.213.56-.4.093-.2.14-.453.14-.76 0-.347-.033-.6-.1-.76a.48.48 0 0 0-.32-.32c-.16-.053-.407-.1-.74-.14l-2.48-.3c-.64-.067-1.127-.213-1.46-.44-.32-.24-.54-.56-.66-.96-.107-.413-.16-.913-.16-1.5 0-.68.093-1.22.28-1.62.2-.413.473-.72.82-.92.36-.2.793-.333 1.3-.4s1.06-.1 1.66-.1l1.16.04 1.18.12 1 .14v1.68l-1.04-.1-1.12-.06-1.04-.04c-.493 0-.9.027-1.22.08-.32.04-.56.147-.72.32-.147.16-.22.44-.22.84 0 .307.02.54.06.7.053.147.153.253.3.32.16.053.4.1.72.14l2.68.32c.507.053.913.16 1.22.32.32.147.553.42.7.82.16.387.24.98.24 1.78 0 .667-.087 1.207-.26 1.62-.16.4-.407.713-.74.94-.333.213-.74.353-1.22.42-.467.08-1 .12-1.6.12zm10.221 0c-.787 0-1.44-.067-1.96-.2-.507-.147-.913-.353-1.22-.62-.307-.28-.533-.627-.68-1.04-.147-.427-.247-.92-.3-1.48l-.06-1.94.08-1.9c.053-.56.16-1.047.32-1.46.173-.427.413-.773.72-1.04.307-.28.707-.487 1.2-.62.493-.147 1.113-.22 1.86-.22.48 0 .98.027 1.5.08l1.32.2v1.68c-.293-.053-.66-.093-1.1-.12l-1.18-.06c-.573 0-1.033.047-1.38.14-.333.093-.587.267-.76.52s-.293.607-.36 1.06c-.053.453-.08 1.04-.08 1.76l.08 1.8c.067.467.187.82.36 1.06.187.24.453.407.8.5.347.08.807.12 1.38.12l1.12-.04 1.22-.14v1.68c-.36.08-.807.147-1.34.2l-1.54.08zm5.399-.16V32.14h2.12v5.92h.14c.16-.307.373-.56.64-.76.266-.213.6-.373 1-.48.413-.107.913-.16 1.5-.16.72 0 1.3.08 1.74.24.453.16.793.407 1.02.74s.38.747.46 1.24a9.5 9.5 0 0 1 .14 1.74V47h-2.14v-5.54c0-.667-.027-1.193-.08-1.58-.04-.4-.134-.693-.28-.88-.147-.2-.367-.327-.66-.38-.28-.053-.66-.08-1.14-.08-.534 0-.96.067-1.28.2-.307.133-.54.333-.7.6-.147.267-.247.6-.3 1a14.27 14.27 0 0 0-.06 1.4V47h-2.12zm16.074.16c-.854 0-1.567-.053-2.14-.16-.56-.107-1.007-.273-1.34-.5-.32-.24-.56-.56-.72-.96-.147-.4-.247-.9-.3-1.5l-.06-2.16.06-2.14c.053-.6.153-1.1.3-1.5.16-.4.4-.713.72-.94.333-.24.78-.407 1.34-.5.573-.107 1.286-.16 2.14-.16.866 0 1.58.053 2.14.16.573.093 1.02.26 1.34.5.333.227.573.54.72.94.16.4.26.9.3 1.5l.08 2.14-.08 2.16c-.04.6-.14 1.1-.3 1.5-.147.4-.387.72-.72.96-.32.227-.767.393-1.34.5-.56.107-1.274.16-2.14.16zm0-1.78c.613 0 1.086-.04 1.42-.12s.566-.24.7-.48c.146-.24.233-.593.26-1.06.04-.467.06-1.08.06-1.84l-.06-1.82c-.027-.467-.114-.82-.26-1.06-.134-.24-.367-.393-.7-.46-.334-.08-.807-.12-1.42-.12-.6 0-1.067.04-1.4.12-.334.067-.574.22-.72.46-.134.24-.22.593-.26 1.06l-.04 1.82.04 1.84c.04.467.126.82.26 1.06.146.24.386.4.72.48s.8.12 1.4.12zm11.504 1.78c-.854 0-1.567-.053-2.14-.16-.56-.107-1.007-.273-1.34-.5-.32-.24-.56-.56-.72-.96-.147-.4-.247-.9-.3-1.5l-.06-2.16.06-2.14c.053-.6.153-1.1.3-1.5.16-.4.4-.713.72-.94.333-.24.78-.407 1.34-.5.573-.107 1.286-.16 2.14-.16.866 0 1.58.053 2.14.16.573.093 1.02.26 1.34.5.333.227.573.54.72.94.16.4.26.9.3 1.5l.08 2.14-.08 2.16c-.04.6-.14 1.1-.3 1.5-.147.4-.387.72-.72.96-.32.227-.767.393-1.34.5-.56.107-1.274.16-2.14.16zm0-1.78c.613 0 1.086-.04 1.42-.12s.566-.24.7-.48c.146-.24.233-.593.26-1.06.04-.467.06-1.08.06-1.84l-.06-1.82c-.027-.467-.114-.82-.26-1.06-.134-.24-.367-.393-.7-.46-.334-.08-.807-.12-1.42-.12-.6 0-1.067.04-1.4.12-.334.067-.574.22-.72.46-.134.24-.22.593-.26 1.06l-.04 1.82.04 1.84c.04.467.126.82.26 1.06.146.24.386.4.72.48s.8.12 1.4.12zm7.344 1.62V32.14h2.12V47h-2.12zm4.813-4.76v-1.88h5.06v1.88h-5.06zM209.18 47v-8.42h-2.02V36.8h2.02v-1.24c0-.653.046-1.187.14-1.6.093-.427.246-.76.46-1 .226-.24.52-.413.88-.52.373-.12.826-.193 1.36-.22l1.88-.06v1.6l-1.36.06c-.334.027-.594.087-.78.18a.74.74 0 0 0-.36.44 2.75 2.75 0 0 0-.08.74v1.62h2.58v1.78h-2.58V47h-2.14zm6.834 0V36.8h1.94l.08 1.84h.16c.173-.533.413-.947.72-1.24s.68-.493 1.12-.6.94-.16 1.5-.16v2.08c-.907 0-1.607.133-2.1.4-.48.267-.82.693-1.02 1.28-.187.573-.28 1.327-.28 2.26V47h-2.12zm7.557-12.76v-2.1h2.22v2.1h-2.22zm.04 12.76V36.8h2.12V47h-2.12zm9.614.16c-.867 0-1.587-.053-2.16-.16-.574-.12-1.034-.307-1.38-.56-.347-.267-.607-.6-.78-1-.174-.413-.287-.907-.34-1.48-.054-.587-.08-1.267-.08-2.04 0-.92.046-1.713.14-2.38s.286-1.213.58-1.64c.293-.44.746-.76 1.36-.96.626-.2 1.46-.3 2.5-.3.813 0 1.48.067 2 .2.52.12.926.313 1.22.58.306.267.526.613.66 1.04.146.413.24.913.28 1.5l.06 1.96v.68h-6.66c0 .6.026 1.087.08 1.46.053.36.173.64.36.84.2.187.506.32.92.4.426.067 1 .1 1.72.1l1-.02 1.14-.08 1.04-.1v1.66l-1.06.14-1.3.12-1.3.04zm2.02-5.7v-.38c0-.6-.04-1.073-.12-1.42-.067-.36-.187-.627-.36-.8-.16-.187-.387-.307-.68-.36-.28-.067-.634-.1-1.06-.1-.534 0-.96.04-1.28.12-.307.067-.54.2-.7.4s-.274.48-.34.84c-.054.347-.08.807-.08 1.38h4.98l-.36.32zm4.792 5.54V36.8h1.96l.06 1.36h.16a2.31 2.31 0 0 1 .64-.82c.267-.227.613-.4 1.04-.52s.947-.18 1.56-.18c.72 0 1.3.087 1.74.26.44.16.773.407 1 .74s.38.747.46 1.24a9.5 9.5 0 0 1 .14 1.74V47h-2.14v-5.54c0-.667-.027-1.193-.08-1.58-.04-.4-.133-.693-.28-.88-.147-.2-.367-.327-.66-.38-.28-.053-.66-.08-1.14-.08-.533 0-.96.067-1.28.2-.307.133-.54.333-.7.6-.147.267-.247.6-.3 1a14.27 14.27 0 0 0-.06 1.4V47h-2.12zm15.154.16c-.68 0-1.253-.08-1.72-.24a2.36 2.36 0 0 1-1.12-.84c-.28-.4-.487-.94-.62-1.62-.12-.68-.18-1.527-.18-2.54 0-1.027.06-1.88.18-2.56.133-.68.333-1.213.6-1.6a2.33 2.33 0 0 1 1.1-.86c.453-.173 1.013-.26 1.68-.26a6.86 6.86 0 0 1 1.34.12c.4.08.753.22 1.06.42.32.187.573.46.76.82h.14v-5.86h2.12V47h-1.96l-.08-1.34h-.12c-.2.427-.473.747-.82.96-.333.213-.707.353-1.12.42a6.51 6.51 0 0 1-1.24.12zm.86-1.88c.587 0 1.04-.073 1.36-.22.333-.16.567-.407.7-.74.133-.307.213-.66.24-1.06a14.27 14.27 0 0 0 .06-1.4l-.06-1.32c-.027-.387-.1-.713-.22-.98a1.43 1.43 0 0 0-.72-.78c-.32-.16-.773-.24-1.36-.24-.533 0-.96.04-1.28.12-.307.067-.54.213-.7.44-.147.213-.247.547-.3 1-.053.44-.08 1.04-.08 1.8l.08 1.82c.053.44.16.773.32 1s.393.38.7.46c.32.067.74.1 1.26.1zm11.198 1.88c-.4 0-.833-.013-1.3-.04l-1.34-.1-1.18-.14V45.2l.76.06.92.06.94.04.9.02c.64 0 1.1-.04 1.38-.12.294-.08.48-.213.56-.4.094-.2.14-.453.14-.76 0-.347-.033-.6-.1-.76a.48.48 0 0 0-.32-.32c-.16-.053-.406-.1-.74-.14l-2.48-.3c-.64-.067-1.126-.213-1.46-.44-.32-.24-.54-.56-.66-.96-.106-.413-.16-.913-.16-1.5 0-.68.094-1.22.28-1.62.2-.413.474-.72.82-.92.36-.2.794-.333 1.3-.4s1.06-.1 1.66-.1l1.16.04 1.18.12 1 .14v1.68l-1.04-.1-1.12-.06-1.04-.04c-.493 0-.9.027-1.22.08-.32.04-.56.147-.72.32-.146.16-.22.44-.22.84 0 .307.02.54.06.7a.55.55 0 0 0 .3.32c.16.053.4.1.72.14l2.68.32c.507.053.914.16 1.22.32.32.147.554.42.7.82.16.387.24.98.24 1.78 0 .667-.086 1.207-.26 1.62a2 2 0 0 1-.74.94c-.333.213-.74.353-1.22.42a9.54 9.54 0 0 1-1.6.12z" class="I"/><path d="M117.6 266v-11.008h7.152v1.184h-5.776v3.664H124v1.2h-5.024v3.776h5.776V266H117.6zm9.417 0v-8.16h1.168l.064 1.568h.096c.138-.459.336-.811.592-1.056s.565-.411.928-.496c.362-.096.762-.144 1.2-.144v1.28c-.736 0-1.302.117-1.696.352s-.667.597-.816 1.088-.224 1.109-.224 1.856V266h-1.312zm5.843-10.464v-1.424h1.392v1.424h-1.392zm.032 10.464v-8.16h1.312V266h-1.312zm7.038.128c-.619 0-1.131-.053-1.536-.16-.395-.107-.715-.267-.96-.48a1.96 1.96 0 0 1-.528-.816c-.117-.331-.197-.725-.24-1.184l-.048-1.568.064-1.6c.053-.459.144-.853.272-1.184.139-.341.325-.613.56-.816.245-.203.56-.352.944-.448.384-.107.859-.16 1.424-.16.373 0 .763.021 1.168.064.416.032.757.08 1.024.144v1.056a11.03 11.03 0 0 0-.912-.112l-.96-.048c-.501 0-.907.043-1.216.128-.299.085-.528.24-.688.464-.149.224-.251.539-.304.944s-.08.928-.08 1.568c0 .651.027 1.184.08 1.6.053.405.16.72.32.944.171.213.405.363.704.448.309.075.715.112 1.216.112l.976-.048.944-.112v1.056c-.267.053-.608.101-1.024.144l-1.2.064z" fill="#f88906"/><path d="M116.528 352v-1.136c.576-.011 1.019-.043 1.328-.096s.533-.165.672-.336c.139-.181.219-.464.24-.848a21.41 21.41 0 0 0 .048-1.632v-6.96h1.376v6.528l-.048 2.128c-.032.555-.107.992-.224 1.312-.117.309-.309.539-.576.688-.256.149-.613.245-1.072.288-.448.043-1.029.064-1.744.064zm8.728.128c-.598 0-1.099-.069-1.504-.208-.395-.139-.694-.379-.896-.72-.192-.341-.288-.821-.288-1.44s.069-1.104.208-1.456c.149-.363.405-.619.768-.768s.869-.224 1.52-.224l.496.016.8.016.896.016.848.016v-.512c0-.48-.032-.853-.096-1.12-.054-.277-.171-.48-.352-.608-.182-.139-.438-.224-.768-.256-.32-.043-.747-.064-1.28-.064l-.832.032-.944.064-.72.08v-1.056c.405-.075.858-.128 1.36-.16l1.584-.064c.576 0 1.061.037 1.456.112.405.064.73.171.976.32.256.149.448.347.576.592s.213.544.256.896c.053.352.08.763.08 1.232V352h-1.168l-.048-1.152h-.096a1.86 1.86 0 0 1-.736.848c-.31.181-.651.299-1.024.352s-.731.08-1.072.08zm.48-1.072a7.28 7.28 0 0 0 .864-.048c.266-.043.501-.117.704-.224s.362-.267.48-.48c.117-.224.197-.464.24-.72.053-.267.08-.576.08-.928v-.416h-2.72c-.416 0-.736.032-.96.096s-.379.197-.464.4c-.075.203-.112.507-.112.912 0 .395.048.693.144.896s.277.341.544.416c.277.064.677.096 1.2.096zm6.437.944v-8.16h1.184l.048 1.168h.096a2.14 2.14 0 0 1 .48-.672c.213-.192.496-.341.848-.448.363-.117.821-.176 1.376-.176.608 0 1.093.064 1.456.192s.64.32.832.576c.203.256.336.587.4.992.064.395.096.869.096 1.424V352h-1.296v-4.656c0-.555-.027-.992-.08-1.312-.043-.331-.133-.576-.272-.736-.139-.171-.341-.283-.608-.336s-.619-.08-1.056-.08c-.523 0-.933.069-1.232.208-.299.128-.517.32-.656.576-.139.245-.224.549-.256.912-.032.352-.048.757-.048 1.216V352h-1.312zm12.906.128c-.661 0-1.216-.043-1.664-.128-.437-.085-.789-.224-1.056-.416a1.93 1.93 0 0 1-.608-.784c-.139-.331-.229-.731-.272-1.2a18.56 18.56 0 0 1-.064-1.664c0-.757.032-1.403.096-1.936.064-.544.208-.981.432-1.312.235-.341.597-.587 1.088-.736.491-.16 1.152-.24 1.984-.24.629 0 1.141.048 1.536.144.405.096.725.245.96.448s.405.475.512.816c.117.331.192.731.224 1.2l.048 1.6v.432h-5.584a9.44 9.44 0 0 0 .08 1.36c.053.352.16.624.32.816.171.192.432.325.784.4.363.075.853.112 1.472.112l.848-.016.928-.08.832-.096v1.056c-.224.043-.501.08-.832.112l-1.024.08-1.04.032zm1.952-4.432v-.432c0-.555-.032-.992-.096-1.312-.064-.331-.176-.576-.336-.736-.149-.171-.357-.283-.624-.336s-.597-.08-.992-.08c-.512 0-.917.037-1.216.112-.299.064-.523.187-.672.368s-.251.443-.304.784-.08.795-.08 1.36h4.624l-.304.272z" fill="#f3f806"/><path d="M116.528 179v-1.136c.576-.011 1.019-.043 1.328-.096s.533-.165.672-.336c.139-.181.219-.464.24-.848a21.41 21.41 0 0 0 .048-1.632v-6.96h1.376v6.528l-.048 2.128c-.032.555-.107.992-.224 1.312-.117.309-.309.539-.576.688-.256.149-.613.245-1.072.288-.448.043-1.029.064-1.744.064zm9.768.128c-.672 0-1.232-.043-1.68-.128-.438-.075-.784-.203-1.04-.384a1.64 1.64 0 0 1-.576-.752c-.118-.32-.192-.72-.224-1.2l-.048-1.744.048-1.728c.032-.491.106-.896.224-1.216a1.64 1.64 0 0 1 .576-.752c.256-.181.602-.309 1.04-.384.448-.085 1.008-.128 1.68-.128.682 0 1.242.043 1.68.128.437.075.784.203 1.04.384.266.181.458.432.576.752.128.32.208.725.24 1.216l.048 1.728-.048 1.744c-.032.48-.112.88-.24 1.2-.118.32-.31.571-.576.752-.256.181-.603.309-1.04.384-.438.085-.998.128-1.68.128zm0-1.104c.576 0 1.018-.037 1.328-.112s.528-.219.656-.432c.138-.213.218-.523.24-.928l.048-1.632-.048-1.616c-.022-.416-.102-.731-.24-.944-.128-.213-.347-.357-.656-.432s-.752-.112-1.328-.112c-.566 0-1.008.037-1.328.112-.31.075-.528.219-.656.432s-.208.528-.24.944l-.048 1.616.048 1.632c.032.405.112.715.24.928s.346.357.656.432c.32.075.762.112 1.328.112zm6.002.976v-11.888h1.312v4.8h.08c.107-.224.261-.427.464-.608s.48-.32.832-.416c.352-.107.8-.16 1.344-.16.597 0 1.077.064 1.44.192.373.117.656.304.848.56.203.256.336.587.4.992.064.395.096.869.096 1.424V179h-1.296v-4.656c0-.555-.027-.992-.08-1.312-.043-.331-.133-.576-.272-.736-.139-.171-.341-.283-.608-.336s-.619-.08-1.056-.08c-.523 0-.933.069-1.232.208-.299.128-.517.32-.656.576-.139.245-.224.549-.256.912-.032.352-.048.757-.048 1.216V179h-1.312zm9.578 0v-8.16h1.184l.048 1.168h.096a2.14 2.14 0 0 1 .48-.672c.213-.192.496-.341.848-.448.363-.117.821-.176 1.376-.176.608 0 1.093.064 1.456.192s.64.32.832.576c.203.256.336.587.4.992.064.395.096.869.096 1.424V179h-1.296v-4.656c0-.555-.027-.992-.08-1.312-.043-.331-.133-.576-.272-.736-.139-.171-.341-.283-.608-.336s-.619-.08-1.056-.08c-.523 0-.933.069-1.232.208-.299.128-.517.32-.656.576-.139.245-.224.549-.256.912-.032.352-.048.757-.048 1.216V179h-1.312zm12.298.128c-.309 0-.64-.011-.992-.032l-1.04-.08-.928-.096v-1.056l.736.064.72.064.704.032h.72c.555 0 .955-.037 1.2-.112.256-.085.421-.224.496-.416.085-.192.128-.443.128-.752 0-.352-.032-.608-.096-.768-.053-.16-.155-.261-.304-.304-.139-.053-.352-.096-.64-.128l-2.112-.24c-.501-.053-.88-.16-1.136-.32a1.3 1.3 0 0 1-.528-.72c-.096-.309-.144-.699-.144-1.168 0-.533.075-.96.224-1.28s.363-.56.64-.72.613-.261 1.008-.304a10.04 10.04 0 0 1 1.328-.08l.88.032.912.08.768.112v1.056l-.848-.096-.864-.064-.88-.016c-.405 0-.752.021-1.04.064s-.507.149-.656.32c-.139.171-.208.453-.208.848 0 .309.021.544.064.704a.53.53 0 0 0 .304.32 3.01 3.01 0 0 0 .624.128l2.208.24c.437.043.779.128 1.024.256.256.117.437.331.544.64.117.309.176.773.176 1.392 0 .512-.064.928-.192 1.248-.117.309-.304.549-.56.72s-.571.283-.944.336a7.74 7.74 0 0 1-1.296.096zm8.497 0c-.672 0-1.232-.043-1.68-.128-.438-.075-.784-.203-1.04-.384a1.64 1.64 0 0 1-.576-.752c-.118-.32-.192-.72-.224-1.2l-.048-1.744.048-1.728c.032-.491.106-.896.224-1.216a1.64 1.64 0 0 1 .576-.752c.256-.181.602-.309 1.04-.384.448-.085 1.008-.128 1.68-.128.682 0 1.242.043 1.68.128.437.075.784.203 1.04.384.266.181.458.432.576.752.128.32.208.725.24 1.216l.048 1.728-.048 1.744c-.032.48-.112.88-.24 1.2-.118.32-.31.571-.576.752-.256.181-.603.309-1.04.384-.438.085-.998.128-1.68.128zm0-1.104c.576 0 1.018-.037 1.328-.112s.528-.219.656-.432c.138-.213.218-.523.24-.928l.048-1.632-.048-1.616c-.022-.416-.102-.731-.24-.944-.128-.213-.347-.357-.656-.432s-.752-.112-1.328-.112c-.566 0-1.008.037-1.328.112-.31.075-.528.219-.656.432s-.208.528-.24.944l-.048 1.616.048 1.632c.032.405.112.715.24.928s.346.357.656.432c.32.075.762.112 1.328.112zm6.002.976v-8.16h1.184l.048 1.168h.096a2.14 2.14 0 0 1 .48-.672c.213-.192.496-.341.848-.448.363-.117.821-.176 1.376-.176.608 0 1.093.064 1.456.192s.64.32.832.576c.203.256.336.587.4.992.064.395.096.869.096 1.424V179h-1.296v-4.656c0-.555-.027-.992-.08-1.312-.043-.331-.133-.576-.272-.736-.139-.171-.341-.283-.608-.336s-.619-.08-1.056-.08c-.523 0-.933.069-1.232.208-.299.128-.517.32-.656.576-.139.245-.224.549-.256.912-.032.352-.048.757-.048 1.216V179h-1.312z" class="M"/><path d="M116.448 91l4.16-11.008h1.728L126.48 91h-1.424l-1.136-3.008h-4.944L117.84 91h-1.392zm2.944-4.208h4.112l-2.016-5.392h-.08l-2.016 5.392zM128.314 91V79.112h1.312V91h-1.312zm4.03-10.464v-1.424h1.392v1.424h-1.392zM132.376 91v-8.16h1.312V91h-1.312zm4.063 0v-8.16h1.184l.048 1.168h.096a2.14 2.14 0 0 1 .48-.672c.213-.192.496-.341.848-.448.362-.117.821-.176 1.376-.176.608 0 1.093.064 1.456.192s.64.32.832.576c.202.256.336.587.4.992.064.395.096.869.096 1.424V91h-1.296v-4.656c0-.555-.027-.992-.08-1.312-.043-.331-.134-.576-.272-.736-.139-.171-.342-.283-.608-.336a5.6 5.6 0 0 0-1.056-.08c-.523 0-.934.069-1.232.208-.299.128-.518.32-.656.576-.139.245-.224.549-.256.912-.032.352-.048.757-.048 1.216V91h-1.312zm12.906.128c-.662 0-1.216-.043-1.664-.128-.438-.085-.79-.224-1.056-.416a1.92 1.92 0 0 1-.608-.784c-.139-.331-.23-.731-.272-1.2s-.064-1.024-.064-1.664c0-.757.032-1.403.096-1.936.064-.544.208-.981.432-1.312.234-.341.597-.587 1.088-.736.49-.16 1.152-.24 1.984-.24.629 0 1.141.048 1.536.144.405.096.725.245.96.448s.405.475.512.816c.117.331.192.731.224 1.2l.048 1.6v.432h-5.584c0 .555.026 1.008.08 1.36s.16.624.32.816c.17.192.432.325.784.4.362.075.853.112 1.472.112l.848-.016.928-.08.832-.096v1.056c-.224.043-.502.08-.832.112l-1.024.08-1.04.032zm1.952-4.432v-.432c0-.555-.032-.992-.096-1.312-.064-.331-.176-.576-.336-.736-.15-.171-.358-.283-.624-.336a5.18 5.18 0 0 0-.992-.08c-.512 0-.918.037-1.216.112-.299.064-.523.187-.672.368s-.251.443-.304.784-.08.795-.08 1.36h4.624l-.304.272z" fill="#3cb448"/><circle opacity=".55" cx="135.5" cy="126.5" r="19.5" fill="#827397"/><g fill="#595165"><circle cx="135.5" cy="214.5" r="19.5"/><circle cx="135.5" cy="301.5" r="19.5"/><circle cx="135.5" cy="388.5" r="19.5"/></g><g fill="#363062"><rect x="24" y="80" width="40" height="40" rx="6"/><rect x="24" y="151" width="40" height="40" rx="6"/><rect x="24" y="222" width="40" height="40" rx="6"/><rect x="24" y="293" width="40" height="40" rx="6"/><rect x="24" y="364" width="40" height="40" rx="6"/></g><g fill="#555"><rect x="164" y="379" width="54" height="7" rx="3.5"/><rect x="164" y="401" width="54" height="7" rx="3.5"/><rect x="164" y="368" width="40" height="7" rx="3.5"/><rect x="164" y="390" width="95" height="7" rx="3.5"/><rect width="54" height="7" rx="3.5" transform="matrix(1 0 0 -1 164 136)"/><rect width="54" height="7" rx="3.5" transform="matrix(1 0 0 -1 164 114)"/><rect width="40" height="7" rx="3.5" transform="matrix(1 0 0 -1 164 147)"/><rect width="95" height="7" rx="3.5" transform="matrix(1 0 0 -1 164 125)"/><rect x="164" y="293" width="40" height="7" rx="3.5"/><rect x="164" y="304" width="95" height="7" rx="3.5"/><rect width="40" height="7" rx="3.5" transform="matrix(1 0 0 -1 164 224)"/><rect width="95" height="7" rx="3.5" transform="matrix(1 0 0 -1 164 213)"/></g><mask id="A" maskUnits="userSpaceOnUse" x="116" y="107" width="39" height="39" mask-type="alpha"><circle cx="135.5" cy="126.5" r="19.5" class="D"/><circle cx="135.5" cy="126.5" r="19.5" class="H"/></mask><g mask="url(#A)"><circle cx="135.5" cy="126.5" r="19.5" class="I"/><path d="M135.5 113.318c-4.569 0-8.273 3.704-8.273 8.273v.911c-.838.14-1.477.87-1.477 1.748v2.068c0 .894.662 1.634 1.522 1.755a8.28 8.28 0 0 0 4.683 6.608v2.739a11.97 11.97 0 0 0-11.228 11.944h29.546a11.97 11.97 0 0 0-11.228-11.944v-2.739a8.28 8.28 0 0 0 4.683-6.608c.86-.121 1.522-.861 1.522-1.755v-2.068c0-.878-.639-1.608-1.477-1.748v-.911c0-4.569-3.704-8.273-8.273-8.273z" class="B J"/><mask id="B" maskUnits="userSpaceOnUse" x="120" y="113" width="31" height="37" mask-type="alpha"><path d="M135.5 113.318c-4.569 0-8.273 3.704-8.273 8.273v.911c-.838.14-1.477.87-1.477 1.748v2.068c0 .894.662 1.634 1.522 1.755a8.28 8.28 0 0 0 4.683 6.608v2.739a11.97 11.97 0 0 0-11.228 11.944h29.546a11.97 11.97 0 0 0-11.228-11.944v-2.739a8.28 8.28 0 0 0 4.683-6.608c.86-.121 1.522-.861 1.522-1.755v-2.068c0-.878-.639-1.608-1.477-1.748v-.911c0-4.569-3.704-8.273-8.273-8.273z" class="B D"/></mask><g mask="url(#B)"><path d="M116 113.318h39v36.046h-39z" class="N"/><path d="M127.227 127.205v1.181c0 4.569 3.704 8.273 8.273 8.273s8.273-3.704 8.273-8.273v-1.181c0 4.568-3.704 8.272-8.273 8.272s-8.273-3.704-8.273-8.272z" class="B C K"/></g><path d="M135.5 141.542c2.203 0 3.989-1.654 3.989-3.693 0-.132-.008-.261-.022-.389 6.064.58 10.806 5.688 10.806 11.904h-29.546c0-6.216 4.742-11.324 10.806-11.904-.014.128-.022.257-.022.389 0 2.039 1.786 3.693 3.989 3.693z" class="B F"/><mask id="C" maskUnits="userSpaceOnUse" x="120" y="137" width="31" height="13" mask-type="alpha"><path d="M135.5 141.542c2.203 0 3.989-1.654 3.989-3.693 0-.132-.008-.261-.022-.389 6.064.58 10.806 5.688 10.806 11.904h-29.546c0-6.216 4.742-11.324 10.806-11.904-.014.128-.022.257-.022.389 0 2.039 1.786 3.693 3.989 3.693z" class="B D"/></mask><g mask="url(#C)" class="F"><path d="M116 133.114h39v16.25h-39z"/></g><path d="M140.174 149.364c.502-1.785.792-3.884.792-6.131 0-2.054-.242-3.984-.667-5.664 5.66.945 9.974 5.866 9.974 11.795h-10.099zm-9.2 0h-10.247c0-5.982 4.393-10.939 10.128-11.819-.429 1.685-.673 3.624-.673 5.688 0 2.247.289 4.346.792 6.131z" fill="#3a4c5a" class="B"/><path d="M142.739 145.818l.425-.319c.795-.596 1.892-.587 2.677.024l-3.102.295z" class="B F"/><path d="M130.92 137.25c-.886 4.284.739 12.114.739 12.114h-2.364l-2.068-5.319.887-1.329-.887-.886 2.807-4.432s.449-.14.886-.148zm9.16 0c.886 4.284-.739 12.114-.739 12.114h2.364l2.068-5.319-.887-1.329.887-.886-2.807-4.432s-.449-.14-.886-.148z" fill="#2f4351" class="B"/><path d="M131.955 136.296c-1.001.679-1.625 1.642-1.625 2.71 0 1.093.654 2.077 1.695 2.758l.878-.691.677.049-.148-.466.011-.009c-.901-.464-1.488-1.225-1.488-2.086v-2.265zm7.09 2.262c0 .864-.587 1.625-1.488 2.089l.011.009-.148.466.677-.049.878.691c1.041-.681 1.695-1.665 1.695-2.758 0-1.068-.624-2.031-1.625-2.71v2.262z" fill="#f2f2f2" class="B"/><path d="M132.711 130.03c.156 1.403 1.345 2.493 2.789 2.493a2.81 2.81 0 0 0 2.791-2.506c.012-.113-.115-.301-.273-.301h-5.017c-.159 0-.306.174-.29.314z" class="B C L"/><mask id="D" maskUnits="userSpaceOnUse" x="132" y="129" width="7" height="4" mask-type="alpha"><path d="M132.711 130.03c.156 1.403 1.345 2.493 2.789 2.493a2.81 2.81 0 0 0 2.791-2.506c.012-.113-.115-.301-.273-.301h-5.017c-.159 0-.306.174-.29.314z" class="B D"/></mask><g mask="url(#D)"><rect x="133.284" y="128.091" width="4.58" height="2.364" rx="1.182" class="D"/><circle cx="134.761" cy="132.966" r="1.625" class="M"/><circle cx="136.239" cy="132.966" r="1.625" class="M"/></g><path d="M133.727 127.205c0 .652.794 1.181 1.773 1.181s1.773-.529 1.773-1.181" class="B C G"/><path d="M129.615 124.612c.272-.562.887-.953 1.601-.953s1.323.389 1.598.947c.081.165-.035.301-.152.201-.362-.312-.876-.506-1.446-.506-.553 0-1.053.182-1.413.477-.131.107-.268-.002-.188-.166zm8.568 0c.273-.562.887-.953 1.601-.953s1.324.389 1.598.947c.081.165-.035.301-.152.201-.362-.312-.876-.506-1.446-.506-.553 0-1.053.182-1.413.477-.131.107-.268-.002-.188-.166z" class="B C E"/><path d="M129.536 122.648c.579-.813 2.164-1.27 3.53-.934.158.039.318-.058.357-.217s-.058-.318-.216-.357c-1.586-.39-3.422.139-4.152 1.166-.095.133-.064.318.069.412s.318.063.412-.07zm11.928 0c-.579-.813-2.164-1.27-3.53-.934-.158.039-.318-.058-.357-.217s.058-.318.216-.357c1.586-.39 3.422.139 4.152 1.166.095.133.064.318-.069.412s-.318.063-.412-.07z" class="C E"/><mask id="E" maskUnits="userSpaceOnUse" x="116" y="108" width="39" height="42" mask-type="alpha"><path d="M116 108h39v41.364h-39z" class="D"/></mask><g mask="url(#E)"><path d="M123.239 121.369c0 .673.25 1.277.717 1.592.133.09.365.136.612.157v11.768a1.18 1.18 0 0 0 1.182 1.182h6.205v-1.387c-2.59-1.23-4.439-3.766-4.697-6.757-.853-.128-1.508-.864-1.508-1.754v-1.92c0-.516.22-.98.572-1.304 1.704-.387 3.56-1.113 5.388-2.168 1.792-1.035 3.324-2.251 4.502-3.508-.506 1.169-1.119 2.192-1.839 3.07 1.873-.815 3.148-2.127 3.825-3.935l.174.408c1.515 3.403 4.118 5.815 6.761 6.61.075.312.117.603.117.827v1.92c0 .89-.655 1.626-1.508 1.754-.258 2.991-2.107 5.527-4.697 6.757v1.387h2.66a4.73 4.73 0 0 0 4.727-4.727v-7.66h0v-.336a.24.24 0 0 0-.005-.04l-.09-3.158c-.706-5.355-5.289-9.488-10.837-9.488-5.331 0-9.77 3.816-10.784 8.864-.816 0-1.477.827-1.477 1.846z" fill="#944f23" class="B"/><mask id="F" maskUnits="userSpaceOnUse" x="123" y="110" width="24" height="27" mask-type="alpha"><path d="M123.239 121.369c0 .673.25 1.277.717 1.592.133.09.365.136.612.157v11.768a1.18 1.18 0 0 0 1.182 1.182h6.205v-1.387c-2.59-1.23-4.439-3.766-4.697-6.757-.853-.128-1.508-.864-1.508-1.754v-1.92c0-.516.22-.98.572-1.304 1.704-.387 3.56-1.113 5.388-2.168 1.792-1.035 3.324-2.251 4.502-3.508-.506 1.169-1.119 2.192-1.839 3.07 1.873-.815 3.148-2.127 3.825-3.935l.174.408c1.515 3.403 4.118 5.815 6.761 6.61.075.312.117.603.117.827v1.92c0 .89-.655 1.626-1.508 1.754-.258 2.991-2.107 5.527-4.697 6.757v1.387h2.66a4.73 4.73 0 0 0 4.727-4.727v-7.66h0v-.336a.24.24 0 0 0-.005-.04l-.09-3.158c-.706-5.355-5.289-9.488-10.837-9.488-5.331 0-9.77 3.816-10.784 8.864-.816 0-1.477.827-1.477 1.846z" class="B D"/></mask><g mask="url(#F)"><path fill="#a55728" d="M115.852 108h39.296v41.364h-39.296z"/></g><g opacity=".44" class="B D G"><path d="M138.372 116.813c1.764 3.961 5.001 6.579 8.06 6.868v-2.09c0-6.038-4.895-10.932-10.932-10.932-5.331 0-9.77 3.816-10.737 8.865-.015-.001-.031-.001-.047-.001-.816 0-1.477.827-1.477 1.846 0 .958.583 1.745 1.329 1.838v.023l.141-.014c.103 0 .197-.011.287-.033 2.041-.26 4.4-1.069 6.714-2.405 1.792-1.035 3.324-2.251 4.502-3.508-.506 1.169-1.119 2.192-1.839 3.07 1.873-.815 3.148-2.127 3.825-3.935l.174.408z"/></g></g><circle cx="135.5" cy="126.5" r="18.5" stroke-width="2" class="H"/></g><mask id="G" maskUnits="userSpaceOnUse" x="116" y="195" width="39" height="39" mask-type="alpha"><circle cx="135.5" cy="214.5" r="19.5" class="D"/><circle cx="135.5" cy="214.5" r="19.5" class="H"/></mask><g mask="url(#G)"><circle cx="135.5" cy="214.5" r="19.5" fill="#f8fddb"/><path d="M135 204.364a6.79 6.79 0 0 0-6.788 6.788v.747c-.688.115-1.212.714-1.212 1.434v1.697c0 .734.543 1.341 1.249 1.44.251 2.401 1.753 4.43 3.842 5.422v2.248a9.82 9.82 0 0 0-9.212 9.799h24.242a9.82 9.82 0 0 0-9.212-9.799v-2.248c2.089-.992 3.591-3.021 3.842-5.422.706-.099 1.249-.706 1.249-1.44v-1.697c0-.72-.524-1.319-1.212-1.434v-.747a6.79 6.79 0 0 0-6.788-6.788z" class="B J"/><mask id="H" maskUnits="userSpaceOnUse" x="122" y="204" width="26" height="30" mask-type="alpha"><path d="M135 204.364a6.79 6.79 0 0 0-6.788 6.788v.747c-.688.115-1.212.714-1.212 1.434v1.697c0 .734.543 1.341 1.249 1.44.251 2.401 1.753 4.43 3.842 5.422v2.248a9.82 9.82 0 0 0-9.212 9.799h24.242a9.82 9.82 0 0 0-9.212-9.799v-2.248c2.089-.992 3.591-3.021 3.842-5.422.706-.099 1.249-.706 1.249-1.44v-1.697c0-.72-.524-1.319-1.212-1.434v-.747a6.79 6.79 0 0 0-6.788-6.788z" class="B D"/></mask><g mask="url(#H)"><path d="M119 204.364h32v29.576h-32z" class="N"/><path d="M128.212 215.758v.969a6.79 6.79 0 0 0 6.788 6.788 6.79 6.79 0 0 0 6.788-6.788v-.969a6.79 6.79 0 0 1-6.788 6.787 6.79 6.79 0 0 1-6.788-6.787z" class="B C K"/></g><path d="M132.091 222.387c-2.144.509-3.67 1.564-3.859 2.806-3.178 1.625-5.353 4.932-5.353 8.746h24.242c0-3.814-2.175-7.121-5.353-8.746-.189-1.242-1.715-2.297-3.859-2.806v2.098a2.91 2.91 0 0 1-2.909 2.909 2.91 2.91 0 0 1-2.909-2.909v-2.098z" fill="#b7c1db" class="B"/><mask id="I" maskUnits="userSpaceOnUse" x="122" y="222" width="26" height="12" mask-type="alpha"><path d="M132.091 222.387c-2.144.509-3.67 1.564-3.859 2.806-3.178 1.625-5.353 4.932-5.353 8.746h24.242c0-3.814-2.175-7.121-5.353-8.746-.189-1.242-1.715-2.297-3.859-2.806v2.098a2.91 2.91 0 0 1-2.909 2.909 2.91 2.91 0 0 1-2.909-2.909v-2.098z" class="B D"/></mask><g mask="url(#I)"><path d="M119 220.606h32v13.333h-32z" class="F"/><path d="M131.364 228.283c-.3-.102-.584-.216-.849-.341v5.997h.849v-5.656zm7.272 0c.3-.102.584-.216.849-.341v4.603c0 .235-.19.425-.424.425s-.425-.19-.425-.425v-4.262z" fill="#f4f4f4" class="B"/><path d="M135 228.848c3.749 0 6.788-1.628 6.788-3.636 0-1.195-1.077-2.256-2.74-2.919 2.4.609 4.013 1.742 4.013 3.04 0 1.942-3.609 3.515-8.061 3.515zm-4.048-6.555c-1.663.663-2.74 1.724-2.74 2.919 0 2.008 3.039 3.636 6.788 3.636-4.452 0-8.061-1.573-8.061-3.515 0-1.298 1.613-2.431 4.013-3.04z" class="B C G"/></g><path d="M133.303 218.061a1.7 1.7 0 0 0 1.697 1.697 1.7 1.7 0 0 0 1.697-1.697" class="B C L"/><path d="M133.545 215.758c0 .535.652.969 1.455.969s1.455-.434 1.455-.969" class="B C G"/><circle cx="131.848" cy="213.576" r=".727" class="C E"/><circle cx="138.152" cy="213.576" r=".727" class="C E"/><path d="M130.107 212.019c.474-.668 1.775-1.042 2.896-.767.13.032.261-.047.293-.177s-.048-.262-.178-.294c-1.301-.319-2.807.114-3.407.957-.077.109-.051.261.058.338s.26.052.338-.057zm9.786 0c-.474-.668-1.775-1.042-2.896-.767-.13.032-.261-.047-.293-.177s.048-.262.178-.294c1.301-.319 2.807.114 3.407.957.077.109.052.261-.058.338s-.26.052-.338-.057z" class="C E"/><mask id="J" maskUnits="userSpaceOnUse" x="119" y="200" width="32" height="34" mask-type="alpha"><path d="M119 200h32v33.939h-32z" class="D"/></mask><g mask="url(#J)"><path d="M127 208.485c0-1.125.232-2.196.651-3.167-.485-1.059-1.156-2.928-.574-4.212 1.049-.319 2.354.241 3.334.825 1.299-.911 2.882-1.446 4.589-1.446a7.96 7.96 0 0 1 4.592 1.448c.981-.585 2.287-1.146 3.338-.827.583 1.287-.092 3.162-.578 4.22.417.969.648 2.037.648 3.159v.363h-16v-.363z" fill="#d8d8d8" class="B"/><mask id="K" maskUnits="userSpaceOnUse" x="126" y="200" width="18" height="9" mask-type="alpha"><path d="M127 208.485c0-1.125.232-2.196.651-3.167-.485-1.059-1.156-2.928-.574-4.212 1.049-.319 2.354.241 3.334.825 1.299-.911 2.882-1.446 4.589-1.446a7.96 7.96 0 0 1 4.592 1.448c.981-.585 2.287-1.146 3.338-.827.583 1.287-.092 3.162-.578 4.22.417.969.648 2.037.648 3.159v.363h-16v-.363z" class="B D"/></mask><g mask="url(#K)"><path fill="#5199e4" d="M124.091 200h21.877v23.152h-21.877z"/></g><path d="M142.352 205.326c.486-1.058 1.161-2.933.578-4.22-1.051-.319-2.357.242-3.338.827a8.03 8.03 0 0 1 2.76 3.393zm-11.941-3.395c-.98-.584-2.285-1.144-3.334-.825-.582 1.284.089 3.153.574 4.212.591-1.369 1.553-2.541 2.76-3.387z" class="B C O"/><path d="M141.837 204.329c.282-.782.551-1.786.276-2.23-.368-.159-1.088.119-1.743.456.57.516 1.065 1.114 1.467 1.774zm-12.215-1.767c-.665-.346-1.407-.639-1.782-.476-.282.455.007 1.497.296 2.286.406-.674.907-1.284 1.486-1.81z" fill-opacity=".3" class="B D"/><g filter="url(#W)" class="B"><path d="M126.636 209.421c0-1.053.475-2.057 1.415-2.533 1.373-.696 3.723-1.555 6.958-1.555 3.262 0 5.618.874 6.981 1.573.913.468 1.374 1.445 1.374 2.472 0 1.425-1.752 2.398-3.096 1.925-1.354-.477-3.107-.879-5.171-.879-2.136 0-3.975.431-5.387.93-1.353.477-3.074-.498-3.074-1.933z" fill="#f4f4f4"/></g></g></g><mask id="L" maskUnits="userSpaceOnUse" x="116" y="282" width="39" height="39" mask-type="alpha"><circle cx="135.5" cy="301.5" r="19.5" class="D"/><circle cx="135.5" cy="301.5" r="19.5" class="H"/></mask><g mask="url(#L)"><circle cx="135.5" cy="301.5" r="19.5" fill="#f2c9a8"/><path d="M135.5 290.5a7 7 0 0 0-7 7v.771a1.5 1.5 0 0 0-1.25 1.479v1.75a1.5 1.5 0 0 0 1.288 1.485c.259 2.476 1.807 4.568 3.962 5.591v2.318A10.13 10.13 0 0 0 123 321h25a10.13 10.13 0 0 0-9.5-10.106v-2.318c2.155-1.023 3.703-3.115 3.962-5.591a1.5 1.5 0 0 0 1.288-1.485v-1.75a1.5 1.5 0 0 0-1.25-1.479v-.771a7 7 0 0 0-7-7z" class="B J"/><mask id="M" maskUnits="userSpaceOnUse" x="123" y="290" width="25" height="31" mask-type="alpha"><path d="M135.5 290.5a7 7 0 0 0-7 7v.771a1.5 1.5 0 0 0-1.25 1.479v1.75a1.5 1.5 0 0 0 1.288 1.485c.259 2.476 1.807 4.568 3.962 5.591v2.318A10.13 10.13 0 0 0 123 321h25a10.13 10.13 0 0 0-9.5-10.106v-2.318c2.155-1.023 3.703-3.115 3.962-5.591a1.5 1.5 0 0 0 1.288-1.485v-1.75a1.5 1.5 0 0 0-1.25-1.479v-.771a7 7 0 0 0-7-7z" class="B D"/></mask><g mask="url(#M)"><path d="M119 290.5h33V321h-33z" class="N"/><path d="M128.5 302.25v1a7 7 0 1 0 14 0v-1a7 7 0 1 1-14 0z" class="B C K"/></g><path d="M135.5 314.381c1.864 0 3.375-1.399 3.375-3.125 0-.111-.006-.22-.018-.328A10.12 10.12 0 0 1 148 321h-25a10.12 10.12 0 0 1 9.143-10.072c-.012.108-.018.217-.018.328 0 1.726 1.511 3.125 3.375 3.125z" class="B F"/><mask id="N" maskUnits="userSpaceOnUse" x="123" y="310" width="25" height="11" mask-type="alpha"><path d="M135.5 314.381c1.864 0 3.375-1.399 3.375-3.125 0-.111-.006-.22-.018-.328A10.12 10.12 0 0 1 148 321h-25a10.12 10.12 0 0 1 9.143-10.072c-.012.108-.018.217-.018.328 0 1.726 1.511 3.125 3.375 3.125z" class="B D"/></mask><g mask="url(#N)" class="F"><path d="M119 307.25h33V321h-33z"/></g><path d="M139.455 321c.425-1.51.67-3.286.67-5.187 0-1.738-.205-3.372-.565-4.793 4.79.8 8.44 4.964 8.44 9.98h-8.545zm-7.785 0H123c0-5.062 3.717-9.255 8.57-10.001-.363 1.426-.57 3.067-.57 4.814 0 1.901.245 3.677.67 5.187z" fill="#3a4c5a" class="B"/><path d="M141.625 318l.36-.27c.673-.505 1.601-.497 2.265.02l-2.625.25z" class="B F"/><path d="M131.625 310.75c-.75 3.625.625 10.25.625 10.25h-2l-1.75-4.5.75-1.125-.75-.75 2.375-3.75s.38-.118.75-.125zm7.75 0c.75 3.625-.625 10.25-.625 10.25h2l1.75-4.5-.75-1.125.75-.75-2.375-3.75s-.38-.118-.75-.125z" fill="#2f4351" class="B"/><path d="M132.5 309.942c-.847.575-1.375 1.39-1.375 2.294 0 .925.554 1.757 1.435 2.334l.743-.585.572.041-.125-.394.01-.008c-.763-.392-1.26-1.036-1.26-1.764v-1.918zm6 1.918c0 .728-.497 1.372-1.26 1.764l.01.008-.125.394.572-.041.743.585c.881-.577 1.435-1.409 1.435-2.334 0-.904-.528-1.719-1.375-2.294v1.918z" fill="#f2f2f2" class="B"/><path d="M133.75 304.625a1.75 1.75 0 1 0 3.5 0" class="B C L"/><path d="M134 302.25c0 .552.672 1 1.5 1s1.5-.448 1.5-1" class="B C G"/><circle cx="132.25" cy="300" r=".75" class="C E"/><circle cx="138.75" cy="300" r=".75" class="C E"/><path d="M130.454 298.395c.489-.689 1.831-1.075 2.986-.791a.25.25 0 0 0 .12-.486c-1.342-.329-2.896.118-3.514.987a.25.25 0 1 0 .408.29zm10.092 0c-.489-.689-1.831-1.075-2.986-.791a.25.25 0 0 1-.12-.486c1.342-.329 2.896.118 3.514.987a.25.25 0 1 1-.408.29z" class="C E"/><mask id="O" maskUnits="userSpaceOnUse" x="119" y="286" width="33" height="35" mask-type="alpha"><path d="M119 286h33v35h-33z" class="D"/></mask><g mask="url(#O)"><path d="M149.06 306.993l.082.115.307.42c.536.726 1.103 1.494 1.223 2.336.057.4.089 2.03-.943 1.429l-.031.348c-.031.269-.047.413.074.803.111.357.26 1.077-.483 1.012l.062.167c.28.755.643 1.735.248 2.478-.698 1.315-1.486-.342-1.696-.936.013.41-.428 1.149-.98.579l.054.509c.078.621.17 1.357-.136 1.848-.77 1.231-1.622-.328-1.651-.987-.03.096-.049.222-.069.358-.072.49-.164 1.105-.88.911-.791-.215-.505-1.262-.352-1.734-.251.444-.56 1.106-.609 1.608-.009.098.004.224.018.36.05.467.111 1.044-.712.897-.815-.146-.844-1.362-.83-1.898.003-.144.052-.351.106-.576.107-.449.23-.97.041-1.206-.816.342-.775 1.099-.737 1.823.037.688.072 1.347-.632 1.59-.443.153-.791-.074-.973-.398l-.067-.182c.05-.211-.045-.32-.285-.325a1.23 1.23 0 0 0-.137-.14c-.082-.073-.148-.133-.213-.317-.289-.815.274-1.899.678-2.625-.175.16-.337.345-.499.531-.223.257-.448.515-.712.708-.307.225-.76.289-1.048-.022-.264-.286-.097-.562.064-.827l.089-.15c.294-.539.722-.9 1.191-1.298l.392-.337c.48-.428.914-.904 1.341-1.372l.159-.174a9.08 9.08 0 0 0 .714-.875c-.862-.303-1.777-.492-2.728-.55v-2.318c1.387-.659 2.523-1.76 3.225-3.122l.058-1.4.06-4.418-.025-.323c-.139-1.794-.223-2.878-1.499-4.507-.57-.728-1.648-.959-2.715-1.188-1.011-.216-2.012-.43-2.564-1.063-.516.597-1.268.915-2.092 1.124l-.543.12c-.623.128-1.211.249-1.635.7-.975 1.039-1.404 1.735-1.703 3.032-.331 1.438-.418 2.862-.317 4.322l.04.712c.044.887.089 1.79.361 2.638.689 1.477 1.878 2.674 3.349 3.373v2.318l-.891.094c.072.396.114.797.082 1.189l-.052.508c-.05.441-.099.872-.054 1.33.107 1.075.493 2.107.877 3.133l.251.68c.077.214.248.442.418.67.307.41.612.817.36 1.137-.391.498-1.727-.683-2.025-1.256l-.364-.717-.534-1.037.298 1.246.217.896a4.15 4.15 0 0 0 .085.284c.171.534.43 1.341-.285 1.493-.948.203-1.123-1.072-1.222-1.792l-.049-.321c-.127-.618-.263-.976-.434-1.424l-.255-.698c-.024.266-.022.535-.02.806.003.41.006.821-.081 1.22-.06.277-.301.522-.534.759l-.285.307c-.747.92-1.042-.114-1.252-.847l-.152-.472c-.414.301-1.313.896-1.864.518-.342-.235-.214-.629-.108-.954l.054-.175c.153-.556.243-1.106-.164-1.609-.386.376-1.24.594-1.735.235-.549-.398-.194-.957.091-1.406l.113-.181c.385-.647.46-1.294.539-1.982l.046-.387.024-.16.03-.198.041-.266c.058-.338.133-.782.037-1.015-.137-.334-.287-.337-.592-.261-.431.107-.786.348-.859.697-.059.283.09.47.24.657.115.146.232.291.251.483.097.944-1.087.5-1.44.077-.514-.617-.53-1.3-.235-2.002.151-.359.386-.68.621-1.002l.032-.045.108-.146c.233-.312.301-.402.252-.81l-.108-.71c-.092-.537-.181-1.06-.126-1.631.079-.832.33-1.573.703-2.346.124-.257.295-.506.465-.756.217-.316.433-.632.554-.964.115-.311.142-.647.169-.981l.068-.596.216-.971.223-1.018c.23-1.3.77-2.549 1.376-3.759l.128-.259c.28-.564.559-1.128.944-1.651.228-.309.477-.627.781-.889.137-.117.327-.203.513-.288.194-.089.385-.175.508-.293.209-.202.234-.476.26-.76.029-.321.059-.656.359-.914.349-.301.712-.368 1.172-.441.231-.037.304-.027.362-.052s.097-.079.247-.237l.194-.221c.22-.261.444-.527.836-.618.471-.11.873.086 1.269.278l.439.197c.803.298 1.306.211 2.094-.038l.01-.003c.525-.166.869-.275 1.362.012.129.076.247.212.367.351.176.204.357.414.59.446.246.034.543-.07.846-.175.282-.097.569-.197.824-.189.806.026 1.197.531 1.531 1.07.115.187.2.239.301.302.063.039.132.082.219.163.098.092.17.197.243.303.077.112.154.226.265.327.451.412.981.771 1.512 1.13l1.159.83c1.583 1.268 1.958 2.985 2.06 4.728l.031.751c.038 1.208.079 2.507.812 3.538l.379.501c.335.426.651.829.835 1.372l.038.109c.098.273.233.649.066.889-.226.323-.795.326-1.04.018-.223.69.478 1.668.923 2.288z" fill="#8d5a5a" class="B"/><mask id="P" maskUnits="userSpaceOnUse" x="120" y="287" width="31" height="34" mask-type="alpha"><path d="M149.06 306.993l.082.115.307.42c.536.726 1.103 1.494 1.223 2.336.057.4.089 2.03-.943 1.429l-.031.348c-.031.269-.047.413.074.803.111.357.26 1.077-.483 1.012l.062.167c.28.755.643 1.735.248 2.478-.698 1.315-1.486-.342-1.696-.936.013.41-.428 1.149-.98.579l.054.509c.078.621.17 1.357-.136 1.848-.77 1.231-1.622-.328-1.651-.987-.03.096-.049.222-.069.358-.072.49-.164 1.105-.88.911-.791-.215-.505-1.262-.352-1.734-.251.444-.56 1.106-.609 1.608-.009.098.004.224.018.36.05.467.111 1.044-.712.897-.815-.146-.844-1.362-.83-1.898.003-.144.052-.351.106-.576.107-.449.23-.97.041-1.206-.816.342-.775 1.099-.737 1.823.037.688.072 1.347-.632 1.59-.443.153-.791-.074-.973-.398l-.067-.182c.05-.211-.045-.32-.285-.325a1.23 1.23 0 0 0-.137-.14c-.082-.073-.148-.133-.213-.317-.289-.815.274-1.899.678-2.625-.175.16-.337.345-.499.531-.223.257-.448.515-.712.708-.307.225-.76.289-1.048-.022-.264-.286-.097-.562.064-.827l.089-.15c.294-.539.722-.9 1.191-1.298l.392-.337c.48-.428.914-.904 1.341-1.372l.159-.174a9.08 9.08 0 0 0 .714-.875c-.862-.303-1.777-.492-2.728-.55v-2.318c1.387-.659 2.523-1.76 3.225-3.122l.058-1.4.06-4.418-.025-.323c-.139-1.794-.223-2.878-1.499-4.507-.57-.728-1.648-.959-2.715-1.188-1.011-.216-2.012-.43-2.564-1.063-.516.597-1.268.915-2.092 1.124l-.543.12c-.623.128-1.211.249-1.635.7-.975 1.039-1.404 1.735-1.703 3.032-.331 1.438-.418 2.862-.317 4.322l.04.712c.044.887.089 1.79.361 2.638.689 1.477 1.878 2.674 3.349 3.373v2.318l-.891.094c.072.396.114.797.082 1.189l-.052.508c-.05.441-.099.872-.054 1.33.107 1.075.493 2.107.877 3.133l.251.68c.077.214.248.442.418.67.307.41.612.817.36 1.137-.391.498-1.727-.683-2.025-1.256l-.364-.717-.534-1.037.298 1.246.217.896a4.15 4.15 0 0 0 .085.284c.171.534.43 1.341-.285 1.493-.948.203-1.123-1.072-1.222-1.792l-.049-.321c-.127-.618-.263-.976-.434-1.424l-.255-.698c-.024.266-.022.535-.02.806.003.41.006.821-.081 1.22-.06.277-.301.522-.534.759l-.285.307c-.747.92-1.042-.114-1.252-.847l-.152-.472c-.414.301-1.313.896-1.864.518-.342-.235-.214-.629-.108-.954l.054-.175c.153-.556.243-1.106-.164-1.609-.386.376-1.24.594-1.735.235-.549-.398-.194-.957.091-1.406l.113-.181c.385-.647.46-1.294.539-1.982l.046-.387.024-.16.03-.198.041-.266c.058-.338.133-.782.037-1.015-.137-.334-.287-.337-.592-.261-.431.107-.786.348-.859.697-.059.283.09.47.24.657.115.146.232.291.251.483.097.944-1.087.5-1.44.077-.514-.617-.53-1.3-.235-2.002.151-.359.386-.68.621-1.002l.032-.045.108-.146c.233-.312.301-.402.252-.81l-.108-.71c-.092-.537-.181-1.06-.126-1.631.079-.832.33-1.573.703-2.346.124-.257.295-.506.465-.756.217-.316.433-.632.554-.964.115-.311.142-.647.169-.981l.068-.596.216-.971.223-1.018c.23-1.3.77-2.549 1.376-3.759l.128-.259c.28-.564.559-1.128.944-1.651.228-.309.477-.627.781-.889.137-.117.327-.203.513-.288.194-.089.385-.175.508-.293.209-.202.234-.476.26-.76.029-.321.059-.656.359-.914.349-.301.712-.368 1.172-.441.231-.037.304-.027.362-.052s.097-.079.247-.237l.194-.221c.22-.261.444-.527.836-.618.471-.11.873.086 1.269.278l.439.197c.803.298 1.306.211 2.094-.038l.01-.003c.525-.166.869-.275 1.362.012.129.076.247.212.367.351.176.204.357.414.59.446.246.034.543-.07.846-.175.282-.097.569-.197.824-.189.806.026 1.197.531 1.531 1.07.115.187.2.239.301.302.063.039.132.082.219.163.098.092.17.197.243.303.077.112.154.226.265.327.451.412.981.771 1.512 1.13l1.159.83c1.583 1.268 1.958 2.985 2.06 4.728l.031.751c.038 1.208.079 2.507.812 3.538l.379.501c.335.426.651.829.835 1.372l.038.109c.098.273.233.649.066.889-.226.323-.795.326-1.04.018-.223.69.478 1.668.923 2.288z" class="B D"/></mask><g mask="url(#P)"><path fill="#2c1b18" d="M119 286h33v35h-33z"/><path d="M141.688 305.526a6.99 6.99 0 0 0 .046 1.106l.169.914c.141.667.279 1.32.161 2.034-.108.659-.425 1.286-.836 1.864-.862-.303-1.777-.492-2.728-.55v-2.318c1.363-.647 2.483-1.721 3.188-3.05zm-10.079 5.462l-.173-.789c-.267-1.103-.803-2.079-1.346-3.069l-.695-1.316c-.097-.2-.177-.404-.244-.611.689 1.477 1.878 2.674 3.349 3.373v2.318l-.891.094z" class="B C O"/><path d="M131.685 290.189c-.209 0-1.52.593-1.03.768.299.108 1.562-.768 1.03-.768zm8.571 1.731c-.106.047-.104.092.005.133.106-.047.104-.092-.005-.133zm3.058 2.28h0 0l-.172-.345-.054-.071h0 0 0 0l-.001-.001h0 0 0c-.196-.252-.771-.989-.254-.867.261.062.612.773.77 1.094h0l.041.083.039.073c.124.222.405.728.01.687-.08-.008-.245-.364-.379-.653h0 0zm1.312 8.414v-.002h0 0 0 0 0 0 0 0 0 0v-.001h0 0 0 0l-.248-2.768a1.01 1.01 0 0 1-.006-.093h0c-.007-.184-.019-.473-.301-.333-.184.091-.015 1 .065 1.432l.037.208.057.496h0 0 0 0 0 0v.001h0 0 0 0 0 0 0v.001h0l.166 2.278c0 .015-.004.044-.009.082-.026.216-.088.728.203.595.182-.084.097-1.093.071-1.402l-.006-.066-.029-.428zm-17.581-1.333c.002.039 0 .111-.003.201-.011.362-.032 1.019.182 1.024.228.005.155-1.05.125-1.479h0 0 0l-.009-.157c-.001-.014 0-.043.001-.082h0c.006-.292.024-1.169-.255-.999-.223.135-.135.775-.076 1.197l.035.295zm1.058 7.109h0c.015-.409.061-1.653-.242-1.312-.141.159-.089.656-.057.954h0l.015.155c.001.023-.002.059-.007.1-.012.114-.028.268.058.299.095.033.228.041.229-.086l.004-.11zm-3.213 1.755c.241-.007.018-4.729-.353-4.724-.26.004.171 4.729.353 4.724zm.279 2.419c-.3 0-.244 1.058-.068 1.143.268.128.403-1.143.068-1.143zm1.932-.114l-.027.557c.002.132-.148.134-.248.093-.089-.037-.079-.289-.072-.436l.002-.089c-.004-.068-.021-.183-.041-.322-.063-.423-.158-1.06.005-1.207.202-.182.242-.051.287.093l.032.094c.133.332.096.793.062 1.217zm17.152-5.252c-.317-.062-.482 1.012-.338 1.127.24.192.669-1.061.338-1.127zm-.034 4.725c-.142-.028-1.179 1.967-1.093 2.079.162.215 1.603-1.977 1.093-2.079zm-2.552.922c-.223-.1-1.167 1.344-.926 1.452.218.098 1.195-1.331.926-1.452zm5.261-5.414c-.269 0-.257 1.478-.05 1.571.214.096.368-1.571.05-1.571zm-17.614-14.657c.158-.081.68-.108.388.162-.078.071-.223.25-.395.462h0c-.382.471-.898 1.107-1.12 1.116-.529.022.323-.905.594-1.201h0 .001l.067-.074.032-.038h0 0 0 0c.09-.108.299-.359.433-.427zm-3.032 3.724c-.273-.054-.73 1.283-.57 1.444.24.244.876-1.384.57-1.444zm2.768 14.733c.06-.326.297-.025.349.143.011.035.043.117.085.226h0c.16.407.466 1.193.361 1.319-.165.2-.234.006-.29-.15l-.037-.096-.035-.076c-.165-.354-.49-1.054-.433-1.366zm-.677 2.996c-.287 0-.254 1.225-.083 1.298.265.113.435-1.298.083-1.298zm19.603-2.743a7.3 7.3 0 0 1 .623 1.697.71.71 0 0 0 .016.052c.052.169.197.632-.099.553-.146-.038-.199-.352-.238-.578l-.037-.185c-.065-.216-.193-.453-.322-.694-.177-.329-.357-.664-.382-.956-.043-.487.23-.301.439.111zm-1.84 1.635c-.266-.001-.279 1.346-.113 1.425.233.11.453-1.425.113-1.425zm.77-11.037c.198-.052-.426-1.666-.647-1.648-.337.027.347 1.725.647 1.648zm-3.352 7.011c-.106.048-.104.093.006.134.105-.047.104-.092-.006-.134zm-3.027 6.905c.099 0 .14-.153-.006-.156-.097.001-.148.156.006.156zm-12.316-6.919c.003-.239-.309-.064-.307.137.004.402.3.219.307-.137zm-.771-5.969c-.101 0-.142.155.006.159.098-.001.15-.159-.006-.159zm-2.392 7.814c-.009-.243-.212.005-.201.006s.028.012.051.027c.063.042.156.102.15-.033zm.527-12.666c-.296 0-.253.719-.064.765.315.077.358-.765.064-.765zm1.577 15.533c-.286 0-.305.976-.108 1.037.306.094.405-1.037.108-1.037zm-2.345.7c-.109.049-.107.095.005.138.109-.049.108-.094-.005-.138zm21.25.419c-.29 0-.279 1.194-.101 1.275.249.113.436-1.275.101-1.275zm-2.939 1.11c-.301-.06-.459.926-.319 1.036.232.183.629-.974.319-1.036zm-2.56.911c-.25 0-.188.447-.044.514.249.115.323-.514.044-.514z" fill-opacity=".3" class="B D"/></g></g></g><mask id="Q" maskUnits="userSpaceOnUse" x="116" y="369" width="39" height="39" mask-type="alpha"><circle cx="135.5" cy="388.5" r="19.5" class="D"/><circle cx="135.5" cy="388.5" r="19.5" class="H"/></mask><g mask="url(#Q)"><circle cx="135.5" cy="388.5" r="19.5" fill="#fddbdb"/><path d="M136 374.909a7.64 7.64 0 0 0-7.636 7.636v.841c-.774.13-1.364.803-1.364 1.614v1.909c0 .825.611 1.508 1.405 1.62.282 2.701 1.972 4.983 4.322 6.1v2.528a11.05 11.05 0 0 0-10.363 11.025h27.272a11.05 11.05 0 0 0-10.363-11.025v-2.528c2.35-1.117 4.04-3.399 4.322-6.1.794-.112 1.405-.795 1.405-1.62V385c0-.811-.59-1.484-1.364-1.614v-.841a7.64 7.64 0 0 0-7.636-7.636z" class="B J"/><mask id="R" maskUnits="userSpaceOnUse" x="122" y="374" width="28" height="35" mask-type="alpha"><path d="M136 374.909a7.64 7.64 0 0 0-7.636 7.636v.841c-.774.13-1.364.803-1.364 1.614v1.909c0 .825.611 1.508 1.405 1.62.282 2.701 1.972 4.983 4.322 6.1v2.528a11.05 11.05 0 0 0-10.363 11.025h27.272a11.05 11.05 0 0 0-10.363-11.025v-2.528c2.35-1.117 4.04-3.399 4.322-6.1.794-.112 1.405-.795 1.405-1.62V385c0-.811-.59-1.484-1.364-1.614v-.841a7.64 7.64 0 0 0-7.636-7.636z" class="B D"/></mask><g mask="url(#R)"><path fill="#edb98a" d="M118 374.909h36v33.273h-36z"/><path d="M128.364 387.727v1.091a7.64 7.64 0 0 0 7.636 7.637 7.64 7.64 0 0 0 7.636-7.637v-1.091a7.64 7.64 0 0 1-7.636 7.637 7.64 7.64 0 0 1-7.636-7.637z" class="B C K"/></g><path d="M136.068 402.158c3.728 0 6.75-1.8 6.75-4.02l-.005-.161c4.005 1.656 6.823 5.601 6.823 10.205h-27.272c0-4.658 2.884-8.641 6.964-10.262-.007.072-.01.145-.01.218 0 2.22 3.022 4.02 6.75 4.02z" class="B F"/><mask id="S" maskUnits="userSpaceOnUse" x="122" y="397" width="28" height="12" mask-type="alpha"><path d="M136.068 402.158c3.728 0 6.75-1.8 6.75-4.02l-.005-.161c4.005 1.656 6.823 5.601 6.823 10.205h-27.272c0-4.658 2.884-8.641 6.964-10.262-.007.072-.01.145-.01.218 0 2.22 3.022 4.02 6.75 4.02z" class="B D"/></mask><g mask="url(#S)" class="F"><path d="M118 393.182h36v15h-36z"/></g><path d="M134.091 390.318a1.91 1.91 0 0 0 1.909 1.909 1.91 1.91 0 0 0 1.909-1.909" class="B C L"/><path d="M134.364 387.727c0 .603.732 1.091 1.636 1.091s1.636-.488 1.636-1.091" class="B C G"/><circle cx="132.455" cy="385.273" r=".818" class="C E"/><circle cx="139.545" cy="385.273" r=".818" class="C E"/><path d="M130.495 383.522c.534-.752 1.997-1.173 3.258-.863.146.036.294-.054.33-.2s-.053-.294-.2-.33c-1.464-.36-3.159.128-3.833 1.077-.087.122-.058.293.065.38s.293.058.38-.064zm11.01 0c-.534-.752-1.997-1.173-3.258-.863-.146.036-.294-.054-.33-.2s.054-.294.2-.33c1.464-.36 3.159.128 3.833 1.077.087.122.058.293-.065.38s-.293.058-.38-.064z" class="C E"/><mask id="T" maskUnits="userSpaceOnUse" x="118" y="370" width="36" height="39" mask-type="alpha"><path d="M118 370h36v38.182h-36z" class="D"/></mask><g mask="url(#T)"><path d="M139.273 397.136v-2.507c2.39-1.136 4.097-3.477 4.335-6.238.788-.118 1.392-.798 1.392-1.618V385c0-.633-.359-1.182-.885-1.454l-.318-.124c-.052-.015-.106-.027-.161-.036v-.034c-1.742-.775-3.425-2.297-4.621-4.368-.4-.693-.72-1.403-.96-2.112-1.178 1.438-2.908 2.892-5.008 4.105-1.305.753-2.618 1.335-3.865 1.741v8.452c.764 1.51 2.014 2.732 3.545 3.459v2.507h-.545c-1.046 0-2.055.164-3 .467v6.215a3.82 3.82 0 0 1-3.273 3.78v-8.197-16.856c0-5.573 4.518-10.09 10.091-10.09s10.091 4.517 10.091 10.09v1.384 15.472a9.78 9.78 0 0 0-6.273-2.265h-.545z" fill="#944f23" class="B"/><mask id="U" maskUnits="userSpaceOnUse" x="125" y="372" width="22" height="36" mask-type="alpha"><path d="M139.273 397.136v-2.507c2.39-1.136 4.097-3.477 4.335-6.238.788-.118 1.392-.798 1.392-1.618V385c0-.633-.359-1.182-.885-1.454l-.318-.124c-.052-.015-.106-.027-.161-.036v-.034c-1.742-.775-3.425-2.297-4.621-4.368-.4-.693-.72-1.403-.96-2.112-1.178 1.438-2.908 2.892-5.008 4.105-1.305.753-2.618 1.335-3.865 1.741v8.452c.764 1.51 2.014 2.732 3.545 3.459v2.507h-.545c-1.046 0-2.055.164-3 .467v6.215a3.82 3.82 0 0 1-3.273 3.78v-8.197-16.856c0-5.573 4.518-10.09 10.091-10.09s10.091 4.517 10.091 10.09v1.384 15.472a9.78 9.78 0 0 0-6.273-2.265h-.545z" class="B D"/></mask><g mask="url(#U)"><path fill="#a55728" d="M118 370h36v38.182h-36z"/></g><path d="M139.273 397.136v-2.507c2.39-1.136 4.097-3.477 4.335-6.238.788-.118 1.392-.798 1.392-1.618V385c0-.633-.359-1.182-.885-1.454a6.08 6.08 0 0 0 1.976.383v15.472a9.78 9.78 0 0 0-6.273-2.265h-.545zm-10.091.467c.945-.303 1.954-.467 3-.467h.545v-2.507a7.67 7.67 0 0 1-3.545-3.459v6.433zm14.454-14.251v.034c.055.009.109.021.161.036l-.161-.07z" class="B C O"/></g></g><defs><filter id="V" x="0" y="0" width="457" height="448" filterUnits="userSpaceOnUse" class="P"><feFlood flood-opacity="0" result="A"/><feColorMatrix in="SourceAlpha" values="0 0 0 0 0 0 0 0 0 0 0 0 0 0 0 0 0 0 127 0" result="B"/><feOffset dy="4"/><feGaussianBlur stdDeviation="2"/><feComposite in2="B" operator="out"/><feColorMatrix values="0 0 0 0 0 0 0 0 0 0 0 0 0 0 0 0 0 0 0.25 0"/><feBlend in2="A"/><feBlend in="SourceGraphic"/></filter><filter id="W" x="126.636" y="205.333" width="16.727" height="8.143" filterUnits="userSpaceOnUse" class="P"><feFlood flood-opacity="0" result="A"/><feColorMatrix in="SourceAlpha" values="0 0 0 0 0 0 0 0 0 0 0 0 0 0 0 0 0 0 127 0"/><feOffset dy="2"/><feColorMatrix values="0 0 0 0 0 0 0 0 0 0 0 0 0 0 0 0 0 0 0.1 0"/><feBlend in2="A"/><feBlend in="SourceGraphic"/></filter></defs></svg>