<svg xmlns="http://www.w3.org/2000/svg" width="148" height="27" fill="none" xmlns:v="https://vecta.io/nano"><path d="M22.43 8.908l.016.666c0 6.773-5.155 14.578-14.578 14.578A14.48 14.48 0 0 1 0 21.852a10.59 10.59 0 0 0 1.237.063 10.26 10.26 0 0 0 6.361-2.189c-2.253-.048-4.14-1.523-4.791-3.553.317.048.635.079.968.079a5.42 5.42 0 0 0 1.348-.174c-2.348-.476-4.109-2.538-4.109-5.029v-.063a5.16 5.16 0 0 0 2.316.65 5.12 5.12 0 0 1-2.284-4.267c0-.952.254-1.824.698-2.586 2.522 3.109 6.313 5.14 10.565 5.362-.079-.381-.127-.777-.127-1.174 0-2.824 2.284-5.124 5.124-5.124a5.11 5.11 0 0 1 3.744 1.618 10.09 10.09 0 0 0 3.252-1.237 5.11 5.11 0 0 1-2.253 2.824c1.031-.111 2.031-.397 2.951-.793-.698 1.015-1.57 1.919-2.57 2.649z" fill="#dadada"/><g clip-path="url(#A)"><path d="M59.317 14.563l.694-4.524H55.67V7.102c0-1.238.606-2.444 2.551-2.444h1.974V.806S58.404.5 56.691.5c-3.575 0-5.912 2.167-5.912 6.09v3.448h-3.974v4.524h3.974V25.5h4.891V14.563h3.647z" fill="#dadada"/></g><path d="M94.505 7.385a5.6 5.6 0 0 0-5.61 5.61 5.611 5.611 0 1 0 11.221 0 5.6 5.6 0 0 0-5.61-5.61zm0 9.258c-2.007 0-3.648-1.636-3.648-3.648a3.65 3.65 0 0 1 3.648-3.647 3.65 3.65 0 0 1 3.647 3.647c0 2.012-1.641 3.648-3.647 3.648zm7.148-9.487c0 .728-.586 1.309-1.308 1.309-.728 0-1.309-.586-1.309-1.309a1.31 1.31 0 0 1 1.309-1.309 1.31 1.31 0 0 1 1.308 1.309zm3.716 1.328c-.083-1.753-.483-3.306-1.767-4.585s-2.832-1.68-4.585-1.768c-1.807-.103-7.222-.103-9.028 0-1.748.083-3.301.483-4.585 1.763s-1.68 2.832-1.768 4.585c-.103 1.807-.103 7.222 0 9.028.083 1.753.483 3.306 1.768 4.585s2.832 1.68 4.585 1.768a132.58 132.58 0 0 0 9.028 0c1.753-.083 3.305-.483 4.585-1.768s1.679-2.832 1.767-4.585c.103-1.807.103-7.217 0-9.023zm-2.334 10.962c-.381.957-1.118 1.694-2.08 2.08-1.44.571-4.858.439-6.45.439s-5.015.127-6.45-.439c-.957-.381-1.694-1.118-2.08-2.08-.571-1.44-.439-4.858-.439-6.45s-.127-5.015.439-6.45c.381-.957 1.118-1.694 2.08-2.08 1.44-.571 4.858-.439 6.45-.439s5.015-.127 6.45.439c.957.381 1.694 1.118 2.08 2.08.571 1.44.44 4.858.44 6.45s.131 5.015-.44 6.45zm43.822-12.171a2.98 2.98 0 0 0-2.096-2.109c-1.849-.499-9.261-.499-9.261-.499s-7.412 0-9.261.499c-1.02.274-1.823 1.083-2.095 2.109-.496 1.861-.496 5.742-.496 5.742s0 3.882.496 5.742c.272 1.026 1.075 1.801 2.095 2.076 1.849.498 9.261.498 9.261.498s7.412 0 9.261-.498c1.02-.274 1.823-1.049 2.096-2.076.495-1.86.495-5.742.495-5.742s0-3.882-.495-5.742zm-13.781 9.267v-7.05l6.195 3.525-6.195 3.524z" fill="#dadada"/><defs><clipPath id="A"><path fill="#fff" transform="translate(41 .5)" d="M0 0h25v25H0z"/></clipPath></defs></svg>