<svg width="512" height="513" viewBox="0 0 512 513" fill="none" xmlns="http://www.w3.org/2000/svg">
<g clip-path="url(#clip0_378_3820)">
<rect y="0.368408" width="512" height="512" rx="59" fill="#646FD4"/>
<path d="M451.389 65.4818H283.913C272.399 65.4818 263.083 74.9023 263.083 86.4163L262.978 274.827L304.847 232.958H451.389C462.903 232.958 472.323 223.537 472.323 212.023V86.4163C472.323 74.9023 462.903 65.4818 451.389 65.4818ZM336.249 159.687H315.314V138.753H336.249V159.687ZM378.118 159.687H357.183V138.753H378.118V159.687ZM419.987 159.687H399.052V138.753H419.987V159.687Z" fill="#F9F9F9"/>
<path d="M60.611 65.4818H228.087C239.601 65.4818 249.021 74.9023 249.021 86.4163V274.827L207.152 232.958H60.611C49.097 232.958 39.6765 223.537 39.6765 212.023V86.4163C39.6765 74.9023 49.097 65.4818 60.611 65.4818ZM144.349 159.687C150.106 159.687 154.816 154.977 154.816 149.22V107.351C154.816 101.594 150.106 96.8835 144.349 96.8835C138.592 96.8835 133.882 101.594 133.882 107.351V149.22C133.882 154.977 138.592 159.687 144.349 159.687ZM133.882 201.556H154.816V180.622H133.882V201.556Z" fill="#F9F9F9"/>
<g clip-path="url(#clip1_378_3820)">
<path d="M256 389.966C278.749 389.966 298.846 395.409 315.175 402.527C330.248 409.226 339.738 424.299 339.738 440.628V449.281C339.738 456.957 333.458 463.237 325.782 463.237H186.218C178.542 463.237 172.262 456.957 172.262 449.281V440.768C172.262 424.299 181.752 409.226 196.825 402.667C213.154 395.409 233.251 389.966 256 389.966ZM144.349 393.456C159.701 393.456 172.262 380.895 172.262 365.543C172.262 350.191 159.701 337.63 144.349 337.63C128.997 337.63 116.437 350.191 116.437 365.543C116.437 380.895 128.997 393.456 144.349 393.456ZM160.12 408.808C154.956 407.97 149.792 407.412 144.349 407.412C130.532 407.412 117.414 410.343 105.551 415.507C95.223 419.973 88.5239 430.021 88.5239 441.326V449.281C88.5239 456.957 94.8043 463.237 102.48 463.237H151.327V440.768C151.327 429.184 154.537 418.298 160.12 408.808ZM367.651 393.456C383.003 393.456 395.563 380.895 395.563 365.543C395.563 350.191 383.003 337.63 367.651 337.63C352.299 337.63 339.738 350.191 339.738 365.543C339.738 380.895 352.299 393.456 367.651 393.456ZM423.476 441.326C423.476 430.021 416.777 419.973 406.449 415.507C394.586 410.343 381.467 407.412 367.651 407.412C362.208 407.412 357.044 407.97 351.88 408.808C357.462 418.298 360.672 429.184 360.672 440.768V463.237H409.52C417.196 463.237 423.476 456.957 423.476 449.281V441.326ZM256 295.761C279.167 295.761 297.869 314.463 297.869 337.63C297.869 360.798 279.167 379.499 256 379.499C232.832 379.499 214.131 360.798 214.131 337.63C214.131 314.463 232.832 295.761 256 295.761Z" fill="#F9F9F9"/>
</g>
</g>
<defs>
<clipPath id="clip0_378_3820">
<rect width="512" height="512" fill="white" transform="translate(0 0.368408)"/>
</clipPath>
<clipPath id="clip1_378_3820">
<rect width="334.952" height="334.952" fill="white" transform="translate(88.5239 212.023)"/>
</clipPath>
</defs>
</svg>
